STARTFONT 2.1
COMMENT
COMMENT Converted from OpenType font "TimesNewRomanPSMT.otf" by "otf2bdf 3.0".
COMMENT
FONT -FreeType-Times New Roman-Medium-R-Normal--21-150-100-100-P-101-ISO10646-1
SIZE 15 100 100
FONTBOUNDINGBOX 35 27 -12 -6
STARTPROPERTIES 19
FOUNDRY "FreeType"
FAMILY_NAME "Times New Roman"
WEIGHT_NAME "Medium"
SLANT "R"
SETWIDTH_NAME "Normal"
ADD_STYLE_NAME ""
PIXEL_SIZE 21
POINT_SIZE 150
RESOLUTION_X 100
RESOLUTION_Y 100
SPACING "P"
AVERAGE_WIDTH 101
CHARSET_REGISTRY "ISO10646"
CHARSET_ENCODING "1"
FONT_ASCENT 18
FONT_DESCENT 4
COPYRIGHT "© 2006 The Monotype Corporation. All Rights Reserved."
_OTF_FONTFILE "TimesNewRomanPSMT.otf"
_OTF_PSNAME "TimesNewRomanPSMT"
ENDPROPERTIES
CHARS 1425
STARTCHAR 0020
ENCODING 32
SWIDTH 240 0
DWIDTH 5 0
BBX 0 0 0 0
BITMAP
ENDCHAR
STARTCHAR 0021
ENCODING 33
SWIDTH 336 0
DWIDTH 7 0
BBX 3 14 2 0
BITMAP
C0
E0
E0
40
40
40
40
40
40
40
00
00
40
E0
ENDCHAR
STARTCHAR 0022
ENCODING 34
SWIDTH 432 0
DWIDTH 9 0
BBX 6 6 1 8
BITMAP
CC
CC
4C
4C
44
40
ENDCHAR
STARTCHAR 0023
ENCODING 35
SWIDTH 480 0
DWIDTH 10 0
BBX 10 14 0 0
BITMAP
0880
0880
1080
1080
1100
7FC0
1100
2100
2100
FFC0
2200
2200
4200
4400
ENDCHAR
STARTCHAR 0024
ENCODING 36
SWIDTH 480 0
DWIDTH 10 0
BBX 8 15 1 -1
BITMAP
3E
53
D1
D1
F0
70
38
1E
17
13
11
91
93
F6
18
ENDCHAR
STARTCHAR 0025
ENCODING 37
SWIDTH 816 0
DWIDTH 17 0
BBX 16 15 1 -1
BITMAP
7008
C810
8820
8C20
8C40
8880
5880
211C
0232
0222
0423
0823
0832
1012
200C
ENDCHAR
STARTCHAR 0026
ENCODING 38
SWIDTH 768 0
DWIDTH 16 0
BBX 15 14 1 0
BITMAP
0780
0880
1880
1880
1900
0E3C
0C10
3620
4720
C340
C3C0
C1C2
E3E4
7C7C
ENDCHAR
STARTCHAR 0027
ENCODING 39
SWIDTH 192 0
DWIDTH 4 0
BBX 2 5 1 8
BITMAP
C0
C0
C0
80
80
ENDCHAR
STARTCHAR 0028
ENCODING 40
SWIDTH 336 0
DWIDTH 7 0
BBX 5 18 1 -4
BITMAP
08
10
20
60
40
C0
C0
C0
C0
C0
C0
C0
C0
40
60
20
10
08
ENDCHAR
STARTCHAR 0029
ENCODING 41
SWIDTH 336 0
DWIDTH 7 0
BBX 5 18 1 -4
BITMAP
80
40
20
30
10
18
18
18
18
18
18
18
18
10
30
20
40
80
ENDCHAR
STARTCHAR 002A
ENCODING 42
SWIDTH 480 0
DWIDTH 10 0
BBX 8 8 1 6
BITMAP
18
4B
6F
18
76
EB
18
18
ENDCHAR
STARTCHAR 002B
ENCODING 43
SWIDTH 576 0
DWIDTH 12 0
BBX 11 11 0 1
BITMAP
0400
0400
0400
0400
0400
FFE0
0400
0400
0400
0400
0400
ENDCHAR
STARTCHAR 002C
ENCODING 44
SWIDTH 240 0
DWIDTH 5 0
BBX 3 5 1 -3
BITMAP
E0
E0
20
20
40
ENDCHAR
STARTCHAR 002D
ENCODING 45
SWIDTH 336 0
DWIDTH 7 0
BBX 5 1 1 4
BITMAP
F8
ENDCHAR
STARTCHAR 002E
ENCODING 46
SWIDTH 240 0
DWIDTH 5 0
BBX 2 2 2 0
BITMAP
C0
C0
ENDCHAR
STARTCHAR 002F
ENCODING 47
SWIDTH 288 0
DWIDTH 6 0
BBX 6 14 0 0
BITMAP
04
08
08
10
10
10
20
20
20
40
40
40
80
80
ENDCHAR
STARTCHAR 0030
ENCODING 48
SWIDTH 480 0
DWIDTH 10 0
BBX 9 14 1 0
BITMAP
3C00
6200
4300
C300
C100
C180
C180
C180
C180
C100
C300
4300
6200
3C00
ENDCHAR
STARTCHAR 0031
ENCODING 49
SWIDTH 480 0
DWIDTH 10 0
BBX 4 14 3 0
BITMAP
20
E0
60
60
60
60
60
60
60
60
60
60
60
70
ENDCHAR
STARTCHAR 0032
ENCODING 50
SWIDTH 480 0
DWIDTH 10 0
BBX 8 14 1 0
BITMAP
3C
7E
87
03
03
02
02
04
08
10
10
20
7F
FF
ENDCHAR
STARTCHAR 0033
ENCODING 51
SWIDTH 480 0
DWIDTH 10 0
BBX 8 14 1 0
BITMAP
3C
4E
86
06
04
08
1C
0E
07
03
03
02
86
F8
ENDCHAR
STARTCHAR 0034
ENCODING 52
SWIDTH 480 0
DWIDTH 10 0
BBX 10 14 0 0
BITMAP
0300
0300
0700
0B00
1300
1300
2300
4300
4300
FFC0
0300
0300
0300
0300
ENDCHAR
STARTCHAR 0035
ENCODING 53
SWIDTH 480 0
DWIDTH 10 0
BBX 8 14 1 0
BITMAP
1F
3E
20
40
78
FC
0E
07
03
03
03
02
C4
F8
ENDCHAR
STARTCHAR 0036
ENCODING 54
SWIDTH 480 0
DWIDTH 10 0
BBX 9 14 1 0
BITMAP
0600
1800
3000
2000
6000
CC00
F700
C300
C180
C180
C100
C100
6300
3E00
ENDCHAR
STARTCHAR 0037
ENCODING 55
SWIDTH 480 0
DWIDTH 10 0
BBX 8 14 1 0
BITMAP
7F
7F
81
03
02
02
06
04
04
08
08
08
10
10
ENDCHAR
STARTCHAR 0038
ENCODING 56
SWIDTH 480 0
DWIDTH 10 0
BBX 8 14 1 0
BITMAP
3C
42
C3
C3
62
74
38
2C
66
43
C1
C1
41
3E
ENDCHAR
STARTCHAR 0039
ENCODING 57
SWIDTH 480 0
DWIDTH 10 0
BBX 9 14 1 0
BITMAP
3C00
4200
C300
C300
C100
C180
C300
6300
3F00
0300
0600
0400
0800
7000
ENDCHAR
STARTCHAR 003A
ENCODING 58
SWIDTH 288 0
DWIDTH 6 0
BBX 2 10 2 0
BITMAP
80
C0
C0
00
00
00
00
00
C0
C0
ENDCHAR
STARTCHAR 003B
ENCODING 59
SWIDTH 288 0
DWIDTH 6 0
BBX 3 13 1 -3
BITMAP
40
60
40
00
00
00
00
00
60
E0
20
20
40
ENDCHAR
STARTCHAR 003C
ENCODING 60
SWIDTH 576 0
DWIDTH 12 0
BBX 10 10 1 2
BITMAP
0040
0180
0600
3800
C000
C000
3000
0C00
0380
0040
ENDCHAR
STARTCHAR 003D
ENCODING 61
SWIDTH 576 0
DWIDTH 12 0
BBX 11 4 0 5
BITMAP
FFE0
0000
0000
FFE0
ENDCHAR
STARTCHAR 003E
ENCODING 62
SWIDTH 576 0
DWIDTH 12 0
BBX 11 10 0 2
BITMAP
8000
7000
0C00
0300
00C0
0060
0180
0E00
3000
C000
ENDCHAR
STARTCHAR 003F
ENCODING 63
SWIDTH 432 0
DWIDTH 9 0
BBX 7 14 1 0
BITMAP
7C
86
86
C2
06
06
0C
08
10
10
10
00
10
38
ENDCHAR
STARTCHAR 0040
ENCODING 64
SWIDTH 912 0
DWIDTH 19 0
BBX 18 18 1 -4
BITMAP
07FC00
080200
100100
200100
40E880
411880
821880
861080
841080
8C3100
8C3100
8CE200
8F2440
463880
400080
200100
100200
0FFC00
ENDCHAR
STARTCHAR 0041
ENCODING 65
SWIDTH 720 0
DWIDTH 15 0
BBX 13 14 1 0
BITMAP
0200
0200
0700
0700
0980
0980
1180
10C0
10C0
2F60
2060
4060
4030
E078
ENDCHAR
STARTCHAR 0042
ENCODING 66
SWIDTH 672 0
DWIDTH 14 0
BBX 13 14 0 0
BITMAP
FF80
3060
3030
3030
3030
3070
39E0
36E0
3030
3038
3038
3030
3070
7FE0
ENDCHAR
STARTCHAR 0043
ENCODING 67
SWIDTH 672 0
DWIDTH 14 0
BBX 12 14 1 0
BITMAP
0F90
3070
6010
6010
C000
C000
C000
C000
C000
C000
E000
6010
3020
1FC0
ENDCHAR
STARTCHAR 0044
ENCODING 68
SWIDTH 720 0
DWIDTH 15 0
BBX 14 14 0 0
BITMAP
FF80
3070
3038
3018
300C
300C
300C
300C
300C
300C
3018
3018
3070
7FC0
ENDCHAR
STARTCHAR 0045
ENCODING 69
SWIDTH 624 0
DWIDTH 13 0
BBX 12 14 0 0
BITMAP
FFE0
3020
3020
3000
3000
3040
3FC0
3040
3040
3000
3000
3010
3030
7FE0
ENDCHAR
STARTCHAR 0046
ENCODING 70
SWIDTH 576 0
DWIDTH 12 0
BBX 11 14 0 0
BITMAP
FFE0
3060
3020
3000
3000
3080
3F80
3080
3000
3000
3000
3000
3000
7800
ENDCHAR
STARTCHAR 0047
ENCODING 71
SWIDTH 720 0
DWIDTH 15 0
BBX 14 14 1 0
BITMAP
0FD0
3030
6010
6010
C000
C000
C0FC
C030
C030
C030
E030
6030
3030
1FE0
ENDCHAR
STARTCHAR 0048
ENCODING 72
SWIDTH 720 0
DWIDTH 15 0
BBX 15 14 0 0
BITMAP
FC7E
3018
3018
3018
3018
3018
3018
3FF8
3018
3018
3018
3018
3018
783C
ENDCHAR
STARTCHAR 0049
ENCODING 73
SWIDTH 336 0
DWIDTH 7 0
BBX 5 14 1 0
BITMAP
F8
70
60
60
60
60
60
60
60
60
60
60
60
70
ENDCHAR
STARTCHAR 004A
ENCODING 74
SWIDTH 384 0
DWIDTH 8 0
BBX 8 14 0 0
BITMAP
3F
0C
0C
0C
0C
0C
0C
0C
0C
0C
0C
0C
C8
78
ENDCHAR
STARTCHAR 004B
ENCODING 75
SWIDTH 720 0
DWIDTH 15 0
BBX 14 14 0 0
BITMAP
FCF8
3020
3040
3080
3100
3200
3400
3E00
3300
3180
30C0
3060
3038
787C
ENDCHAR
STARTCHAR 004C
ENCODING 76
SWIDTH 624 0
DWIDTH 13 0
BBX 12 14 0 0
BITMAP
FE00
3000
3000
3000
3000
3000
3000
3000
3000
3000
3000
3010
3030
7FE0
ENDCHAR
STARTCHAR 004D
ENCODING 77
SWIDTH 912 0
DWIDTH 19 0
BBX 18 14 0 0
BITMAP
F003C0
380300
380700
2C0700
2C0B00
260B00
261300
231300
232300
23A300
21C300
21C300
20C300
708780
ENDCHAR
STARTCHAR 004E
ENCODING 78
SWIDTH 720 0
DWIDTH 15 0
BBX 15 14 0 0
BITMAP
F03E
3808
3808
2C08
2E08
2708
2388
2188
20C8
2068
2078
2038
2018
7008
ENDCHAR
STARTCHAR 004F
ENCODING 79
SWIDTH 720 0
DWIDTH 15 0
BBX 13 14 1 0
BITMAP
0F80
3060
6030
6030
C018
C018
C018
C018
C018
C018
E030
6030
3060
1FC0
ENDCHAR
STARTCHAR 0050
ENCODING 80
SWIDTH 576 0
DWIDTH 12 0
BBX 11 14 0 0
BITMAP
FF00
31C0
30E0
30E0
3060
30E0
30C0
3F80
3000
3000
3000
3000
3000
7800
ENDCHAR
STARTCHAR 0051
ENCODING 81
SWIDTH 720 0
DWIDTH 15 0
BBX 13 18 1 -4
BITMAP
0F80
3060
6030
6030
C018
C018
C018
C018
C018
C018
E030
6030
3060
18C0
0700
0380
00C0
0030
ENDCHAR
STARTCHAR 0052
ENCODING 82
SWIDTH 672 0
DWIDTH 14 0
BBX 13 14 0 0
BITMAP
FF80
30C0
3060
3060
3060
30E0
31C0
3F00
3380
3180
30C0
3060
3070
7838
ENDCHAR
STARTCHAR 0053
ENCODING 83
SWIDTH 576 0
DWIDTH 12 0
BBX 9 14 1 0
BITMAP
3E80
4180
C080
C080
E080
7000
3C00
1F00
0780
0180
8180
8080
C180
FF00
ENDCHAR
STARTCHAR 0054
ENCODING 84
SWIDTH 624 0
DWIDTH 13 0
BBX 11 14 1 0
BITMAP
FFE0
8C20
8C20
0C00
0C00
0C00
0C00
0C00
0C00
0C00
0C00
0C00
0C00
1E00
ENDCHAR
STARTCHAR 0055
ENCODING 85
SWIDTH 720 0
DWIDTH 15 0
BBX 15 14 0 0
BITMAP
FC3E
3008
3008
3008
3008
3008
3008
3008
3008
3008
3008
3010
1810
0FE0
ENDCHAR
STARTCHAR 0056
ENCODING 86
SWIDTH 720 0
DWIDTH 15 0
BBX 15 14 0 0
BITMAP
FC1E
3008
3808
1810
1810
0C10
0C20
0620
0640
0740
0380
0380
0180
0100
ENDCHAR
STARTCHAR 0057
ENCODING 87
SWIDTH 960 0
DWIDTH 20 0
BBX 20 14 0 0
BITMAP
F9F1F0
30E040
306040
186080
187080
187080
0C7100
0C9900
0C9900
069A00
070E00
070C00
020C00
020400
ENDCHAR
STARTCHAR 0058
ENCODING 88
SWIDTH 720 0
DWIDTH 15 0
BBX 14 14 0 0
BITMAP
FE3C
1810
0C30
0E20
0640
0380
0380
0180
02C0
04E0
0860
1030
3038
703C
ENDCHAR
STARTCHAR 0059
ENCODING 89
SWIDTH 720 0
DWIDTH 15 0
BBX 15 14 0 0
BITMAP
FC3E
3818
1810
1C20
0C20
0640
0780
0380
0300
0300
0300
0300
0300
0380
ENDCHAR
STARTCHAR 005A
ENCODING 90
SWIDTH 624 0
DWIDTH 13 0
BBX 12 14 0 0
BITMAP
3FF0
2060
40C0
41C0
0180
0300
0700
0600
0C00
1800
3800
3010
6010
FFF0
ENDCHAR
STARTCHAR 005B
ENCODING 91
SWIDTH 336 0
DWIDTH 7 0
BBX 4 18 2 -4
BITMAP
F0
80
80
80
80
80
80
80
80
80
80
80
80
80
80
80
80
F0
ENDCHAR
STARTCHAR 005C
ENCODING 92
SWIDTH 288 0
DWIDTH 6 0
BBX 6 14 0 0
BITMAP
80
40
40
40
20
20
20
10
10
10
08
08
08
04
ENDCHAR
STARTCHAR 005D
ENCODING 93
SWIDTH 336 0
DWIDTH 7 0
BBX 4 18 1 -4
BITMAP
F0
10
10
10
10
10
10
10
10
10
10
10
10
10
10
10
10
F0
ENDCHAR
STARTCHAR 005E
ENCODING 94
SWIDTH 480 0
DWIDTH 10 0
BBX 8 7 1 7
BITMAP
10
18
24
24
42
82
81
ENDCHAR
STARTCHAR 005F
ENCODING 95
SWIDTH 480 0
DWIDTH 10 0
BBX 11 1 0 -4
BITMAP
FFE0
ENDCHAR
STARTCHAR 0060
ENCODING 96
SWIDTH 336 0
DWIDTH 7 0
BBX 2 3 2 11
BITMAP
C0
40
40
ENDCHAR
STARTCHAR 0061
ENCODING 97
SWIDTH 432 0
DWIDTH 9 0
BBX 8 10 1 0
BITMAP
38
4C
C6
C6
1E
66
C6
86
CE
F7
ENDCHAR
STARTCHAR 0062
ENCODING 98
SWIDTH 480 0
DWIDTH 10 0
BBX 10 14 0 0
BITMAP
E000
6000
2000
2000
2600
2F00
3180
20C0
20C0
20C0
20C0
2080
2180
3E00
ENDCHAR
STARTCHAR 0063
ENCODING 99
SWIDTH 432 0
DWIDTH 9 0
BBX 8 10 1 0
BITMAP
18
66
C6
80
80
80
C1
C2
66
7C
ENDCHAR
STARTCHAR 0064
ENCODING 100
SWIDTH 480 0
DWIDTH 10 0
BBX 9 14 1 0
BITMAP
0700
0300
0300
0300
1B00
6700
4300
C300
C300
C300
C300
C300
E300
7F80
ENDCHAR
STARTCHAR 0065
ENCODING 101
SWIDTH 432 0
DWIDTH 9 0
BBX 8 10 1 0
BITMAP
18
66
86
83
FC
80
C0
C2
76
3C
ENDCHAR
STARTCHAR 0066
ENCODING 102
SWIDTH 336 0
DWIDTH 7 0
BBX 8 14 1 0
BITMAP
1F
23
20
20
20
F8
20
20
20
20
20
20
20
70
ENDCHAR
STARTCHAR 0067
ENCODING 103
SWIDTH 480 0
DWIDTH 10 0
BBX 9 14 1 -4
BITMAP
1800
6780
4200
C300
C300
6200
3C00
4000
4000
7F00
4080
8080
8100
FE00
ENDCHAR
STARTCHAR 0068
ENCODING 104
SWIDTH 480 0
DWIDTH 10 0
BBX 8 14 1 0
BITMAP
C0
40
40
40
44
5E
63
43
43
43
43
43
43
E3
ENDCHAR
STARTCHAR 0069
ENCODING 105
SWIDTH 288 0
DWIDTH 6 0
BBX 3 14 1 0
BITMAP
60
00
00
00
20
E0
60
60
60
60
60
60
60
60
ENDCHAR
STARTCHAR 006A
ENCODING 106
SWIDTH 288 0
DWIDTH 6 0
BBX 6 18 -2 -4
BITMAP
0C
00
00
00
04
1C
0C
0C
0C
0C
0C
0C
0C
0C
0C
0C
08
F8
ENDCHAR
STARTCHAR 006B
ENCODING 107
SWIDTH 480 0
DWIDTH 10 0
BBX 9 14 1 0
BITMAP
C000
4000
4000
4000
4000
4300
4400
4800
5000
7800
4C00
4600
4600
E380
ENDCHAR
STARTCHAR 006C
ENCODING 108
SWIDTH 288 0
DWIDTH 6 0
BBX 3 14 1 0
BITMAP
E0
60
60
60
60
60
60
60
60
60
60
60
60
60
ENDCHAR
STARTCHAR 006D
ENCODING 109
SWIDTH 768 0
DWIDTH 16 0
BBX 15 10 0 0
BITMAP
0208
EFBC
31C6
2186
2186
2186
2186
2186
2186
71CE
ENDCHAR
STARTCHAR 006E
ENCODING 110
SWIDTH 480 0
DWIDTH 10 0
BBX 9 10 0 0
BITMAP
0200
EF00
3180
2180
2180
2180
2180
2180
2180
7180
ENDCHAR
STARTCHAR 006F
ENCODING 111
SWIDTH 480 0
DWIDTH 10 0
BBX 9 10 1 0
BITMAP
1800
6600
4300
C300
C180
C180
C180
C100
6300
3E00
ENDCHAR
STARTCHAR 0070
ENCODING 112
SWIDTH 480 0
DWIDTH 10 0
BBX 10 14 0 -4
BITMAP
0200
EF80
3180
21C0
20C0
20C0
20C0
2080
2180
3300
2C00
2000
2000
7000
ENDCHAR
STARTCHAR 0071
ENCODING 113
SWIDTH 480 0
DWIDTH 10 0
BBX 8 14 1 -4
BITMAP
09
37
43
C3
83
83
C3
C3
E7
7B
03
03
03
03
ENDCHAR
STARTCHAR 0072
ENCODING 114
SWIDTH 336 0
DWIDTH 7 0
BBX 7 10 0 0
BITMAP
04
EE
30
20
20
20
20
20
20
70
ENDCHAR
STARTCHAR 0073
ENCODING 115
SWIDTH 384 0
DWIDTH 8 0
BBX 6 10 1 0
BITMAP
34
4C
84
C4
F0
38
0C
84
84
F8
ENDCHAR
STARTCHAR 0074
ENCODING 116
SWIDTH 288 0
DWIDTH 6 0
BBX 5 12 1 0
BITMAP
40
40
C0
70
40
40
40
40
40
40
68
70
ENDCHAR
STARTCHAR 0075
ENCODING 117
SWIDTH 480 0
DWIDTH 10 0
BBX 9 9 1 0
BITMAP
C300
4300
4300
4300
4300
4300
4300
6700
7B80
ENDCHAR
STARTCHAR 0076
ENCODING 118
SWIDTH 480 0
DWIDTH 10 0
BBX 9 9 1 0
BITMAP
E180
6100
6200
2200
3200
1400
1C00
1800
0800
ENDCHAR
STARTCHAR 0077
ENCODING 119
SWIDTH 720 0
DWIDTH 15 0
BBX 13 9 1 0
BITMAP
C708
4310
6310
6310
25A0
34A0
18E0
18C0
1040
ENDCHAR
STARTCHAR 0078
ENCODING 120
SWIDTH 480 0
DWIDTH 10 0
BBX 8 9 1 0
BITMAP
E3
64
38
18
18
2C
46
46
C7
ENDCHAR
STARTCHAR 0079
ENCODING 121
SWIDTH 480 0
DWIDTH 10 0
BBX 9 13 1 -4
BITMAP
E180
6100
6100
2200
3200
1400
1C00
0800
0800
0800
1000
9000
E000
ENDCHAR
STARTCHAR 007A
ENCODING 122
SWIDTH 432 0
DWIDTH 9 0
BBX 8 9 1 0
BITMAP
FF
86
0C
18
18
30
61
C1
FF
ENDCHAR
STARTCHAR 007B
ENCODING 123
SWIDTH 480 0
DWIDTH 10 0
BBX 5 18 3 -4
BITMAP
18
20
20
20
30
30
30
20
40
C0
20
30
30
30
20
20
20
18
ENDCHAR
STARTCHAR 007C
ENCODING 124
SWIDTH 192 0
DWIDTH 4 0
BBX 1 17 1 -4
BITMAP
80
80
80
80
80
80
80
80
80
80
80
80
80
80
80
80
80
ENDCHAR
STARTCHAR 007D
ENCODING 125
SWIDTH 480 0
DWIDTH 10 0
BBX 4 18 3 -4
BITMAP
80
40
40
60
60
40
40
40
20
30
40
40
40
60
60
60
40
80
ENDCHAR
STARTCHAR 007E
ENCODING 126
SWIDTH 528 0
DWIDTH 11 0
BBX 11 3 0 4
BITMAP
7000
8E20
81C0
ENDCHAR
STARTCHAR 00A0
ENCODING 160
SWIDTH 240 0
DWIDTH 5 0
BBX 0 0 0 0
BITMAP
ENDCHAR
STARTCHAR 00A1
ENCODING 161
SWIDTH 336 0
DWIDTH 7 0
BBX 3 14 2 -4
BITMAP
40
E0
00
00
40
40
40
40
40
40
40
C0
E0
E0
ENDCHAR
STARTCHAR 00A2
ENCODING 162
SWIDTH 480 0
DWIDTH 10 0
BBX 8 16 1 -4
BITMAP
02
02
04
0C
36
4B
48
C8
D0
D0
61
72
3C
40
40
40
ENDCHAR
STARTCHAR 00A3
ENCODING 163
SWIDTH 480 0
DWIDTH 10 0
BBX 9 14 1 0
BITMAP
0E00
1100
3100
3000
3000
3000
FC00
3000
3000
3000
2000
6080
BF80
CF00
ENDCHAR
STARTCHAR 00A4
ENCODING 164
SWIDTH 480 0
DWIDTH 10 0
BBX 10 10 0 2
BITMAP
0040
7F80
2080
4080
4040
4040
4080
4080
7180
8E40
ENDCHAR
STARTCHAR 00A5
ENCODING 165
SWIDTH 480 0
DWIDTH 10 0
BBX 10 14 0 0
BITMAP
F9C0
6080
3100
3100
1900
1A00
0A00
FFC0
0C00
0C00
7FC0
0C00
0C00
0E00
ENDCHAR
STARTCHAR 00A6
ENCODING 166
SWIDTH 192 0
DWIDTH 4 0
BBX 1 17 1 -4
BITMAP
80
80
80
80
80
80
80
00
00
00
00
80
80
80
80
80
80
ENDCHAR
STARTCHAR 00A7
ENCODING 167
SWIDTH 480 0
DWIDTH 10 0
BBX 7 18 2 -4
BITMAP
38
44
4C
40
60
38
DC
8C
86
82
C2
64
38
18
0C
C4
44
78
ENDCHAR
STARTCHAR 00A8
ENCODING 168
SWIDTH 336 0
DWIDTH 7 0
BBX 5 3 1 11
BITMAP
88
D8
88
ENDCHAR
STARTCHAR 00A9
ENCODING 169
SWIDTH 768 0
DWIDTH 16 0
BBX 14 14 1 0
BITMAP
0FC0
3020
4118
8EE8
9024
9004
B004
B004
B004
9024
8848
4788
2010
1FE0
ENDCHAR
STARTCHAR 00AA
ENCODING 170
SWIDTH 288 0
DWIDTH 6 0
BBX 5 6 0 8
BITMAP
70
98
38
58
98
E8
ENDCHAR
STARTCHAR 00AB
ENCODING 171
SWIDTH 480 0
DWIDTH 10 0
BBX 9 10 1 0
BITMAP
0080
1100
2300
6200
C600
CC00
4600
6200
2100
1100
ENDCHAR
STARTCHAR 00AC
ENCODING 172
SWIDTH 576 0
DWIDTH 12 0
BBX 11 4 0 5
BITMAP
FFE0
0020
0020
0020
ENDCHAR
STARTCHAR 00AD
ENCODING 173
SWIDTH 336 0
DWIDTH 7 0
BBX 5 1 1 4
BITMAP
F8
ENDCHAR
STARTCHAR 00AE
ENCODING 174
SWIDTH 768 0
DWIDTH 16 0
BBX 14 14 1 0
BITMAP
0FC0
3020
4018
8F88
88C4
88C4
8984
8F04
8984
8884
88C8
4408
2010
1FE0
ENDCHAR
STARTCHAR 00AF
ENCODING 175
SWIDTH 480 0
DWIDTH 10 0
BBX 11 1 0 14
BITMAP
FFE0
ENDCHAR
STARTCHAR 00B0
ENCODING 176
SWIDTH 384 0
DWIDTH 8 0
BBX 6 6 1 8
BITMAP
78
84
84
84
84
78
ENDCHAR
STARTCHAR 00B1
ENCODING 177
SWIDTH 528 0
DWIDTH 11 0
BBX 11 11 0 1
BITMAP
0400
0400
0400
0400
0400
FFE0
0400
0400
0400
0400
FFE0
ENDCHAR
STARTCHAR 00B2
ENCODING 178
SWIDTH 288 0
DWIDTH 6 0
BBX 6 7 0 7
BITMAP
78
88
08
08
10
20
7C
ENDCHAR
STARTCHAR 00B3
ENCODING 179
SWIDTH 288 0
DWIDTH 6 0
BBX 4 7 1 7
BITMAP
E0
10
20
70
10
10
F0
ENDCHAR
STARTCHAR 00B4
ENCODING 180
SWIDTH 336 0
DWIDTH 7 0
BBX 3 3 2 11
BITMAP
60
40
80
ENDCHAR
STARTCHAR 00B5
ENCODING 181
SWIDTH 576 0
DWIDTH 12 0
BBX 10 13 1 -4
BITMAP
6300
6300
6300
6300
6300
6300
6300
6500
79C0
4000
4000
C000
C000
ENDCHAR
STARTCHAR 00B6
ENCODING 182
SWIDTH 432 0
DWIDTH 9 0
BBX 9 18 0 -4
BITMAP
3F80
7900
F900
F900
F900
F900
7900
3900
0900
0900
0900
0900
0900
0900
0900
0900
0900
0100
ENDCHAR
STARTCHAR 00B7
ENCODING 183
SWIDTH 240 0
DWIDTH 5 0
BBX 2 2 2 6
BITMAP
C0
C0
ENDCHAR
STARTCHAR 00B8
ENCODING 184
SWIDTH 336 0
DWIDTH 7 0
BBX 2 4 3 -4
BITMAP
80
C0
40
80
ENDCHAR
STARTCHAR 00B9
ENCODING 185
SWIDTH 288 0
DWIDTH 6 0
BBX 2 7 2 7
BITMAP
C0
40
40
40
40
40
C0
ENDCHAR
STARTCHAR 00BA
ENCODING 186
SWIDTH 288 0
DWIDTH 6 0
BBX 6 6 0 8
BITMAP
78
4C
C4
C4
44
38
ENDCHAR
STARTCHAR 00BB
ENCODING 187
SWIDTH 480 0
DWIDTH 10 0
BBX 9 10 1 0
BITMAP
0800
8400
4400
6200
3300
3180
6300
4200
C400
8800
ENDCHAR
STARTCHAR 00BC
ENCODING 188
SWIDTH 768 0
DWIDTH 16 0
BBX 13 15 2 -1
BITMAP
C020
4040
4080
4080
4100
4100
4200
8410
0430
0850
1090
1090
21F8
4010
4000
ENDCHAR
STARTCHAR 00BD
ENCODING 189
SWIDTH 768 0
DWIDTH 16 0
BBX 13 14 2 -1
BITMAP
C020
4040
4080
4080
4100
4200
4200
8470
0898
0818
1010
2020
2040
40F8
ENDCHAR
STARTCHAR 00BE
ENCODING 190
SWIDTH 768 0
DWIDTH 16 0
BBX 14 15 1 -1
BITMAP
E010
1020
2040
7040
1080
1100
9100
6208
0418
0428
0848
1048
10FC
2008
2000
ENDCHAR
STARTCHAR 00BF
ENCODING 191
SWIDTH 432 0
DWIDTH 9 0
BBX 7 14 1 -4
BITMAP
10
18
00
00
10
10
20
20
40
C0
C6
C2
C2
7E
ENDCHAR
STARTCHAR 00C0
ENCODING 192
SWIDTH 720 0
DWIDTH 15 0
BBX 13 18 1 0
BITMAP
0600
0200
0200
0000
0200
0200
0700
0700
0980
0980
1180
10C0
10C0
2F60
2060
4060
4030
E078
ENDCHAR
STARTCHAR 00C1
ENCODING 193
SWIDTH 720 0
DWIDTH 15 0
BBX 13 18 1 0
BITMAP
0300
0200
0400
0000
0200
0200
0700
0700
0980
0980
1180
10C0
10C0
2F60
2060
4060
4030
E078
ENDCHAR
STARTCHAR 00C2
ENCODING 194
SWIDTH 720 0
DWIDTH 15 0
BBX 13 18 1 0
BITMAP
0700
0500
0880
0000
0200
0200
0700
0700
0980
0980
1180
10C0
10C0
2F60
2060
4060
4030
E078
ENDCHAR
STARTCHAR 00C3
ENCODING 195
SWIDTH 720 0
DWIDTH 15 0
BBX 13 18 1 0
BITMAP
0440
0E40
1380
0000
0200
0200
0700
0700
0980
0980
1180
10C0
10C0
2F60
2060
4060
4030
E078
ENDCHAR
STARTCHAR 00C4
ENCODING 196
SWIDTH 720 0
DWIDTH 15 0
BBX 13 17 1 0
BITMAP
0D80
0980
0000
0200
0200
0700
0700
0980
0980
1180
10C0
10C0
2F60
2060
4060
4030
E078
ENDCHAR
STARTCHAR 00C5
ENCODING 197
SWIDTH 720 0
DWIDTH 15 0
BBX 13 17 1 0
BITMAP
0700
0900
0500
0200
0200
0700
0700
0980
0980
1180
10C0
10C0
2F60
2060
4060
4030
E078
ENDCHAR
STARTCHAR 00C6
ENCODING 198
SWIDTH 912 0
DWIDTH 19 0
BBX 18 14 0 0
BITMAP
07FF80
01C080
01C080
02C000
02C100
04C100
04FF00
08C100
0FC100
10C000
20C000
20C040
60C080
E1FF80
ENDCHAR
STARTCHAR 00C7
ENCODING 199
SWIDTH 672 0
DWIDTH 14 0
BBX 12 18 1 -4
BITMAP
0F90
3070
6010
6010
C000
C000
C000
C000
C000
C000
E000
6010
3020
1FC0
0400
0600
0200
0E00
ENDCHAR
STARTCHAR 00C8
ENCODING 200
SWIDTH 624 0
DWIDTH 13 0
BBX 12 18 0 0
BITMAP
0600
0200
0200
0000
FFE0
3020
3020
3000
3000
3040
3FC0
3040
3040
3000
3000
3010
3030
7FE0
ENDCHAR
STARTCHAR 00C9
ENCODING 201
SWIDTH 624 0
DWIDTH 13 0
BBX 12 18 0 0
BITMAP
0300
0200
0400
0000
FFE0
3020
3020
3000
3000
3040
3FC0
3040
3040
3000
3000
3010
3030
7FE0
ENDCHAR
STARTCHAR 00CA
ENCODING 202
SWIDTH 624 0
DWIDTH 13 0
BBX 12 18 0 0
BITMAP
0700
0D00
0880
0000
FFE0
3020
3020
3000
3000
3040
3FC0
3040
3040
3000
3000
3010
3030
7FE0
ENDCHAR
STARTCHAR 00CB
ENCODING 203
SWIDTH 624 0
DWIDTH 13 0
BBX 12 17 0 0
BITMAP
0D80
0980
0000
FFE0
3020
3020
3000
3000
3040
3FC0
3040
3040
3000
3000
3010
3030
7FE0
ENDCHAR
STARTCHAR 00CC
ENCODING 204
SWIDTH 336 0
DWIDTH 7 0
BBX 5 18 1 0
BITMAP
60
20
20
00
F8
70
60
60
60
60
60
60
60
60
60
60
60
70
ENDCHAR
STARTCHAR 00CD
ENCODING 205
SWIDTH 336 0
DWIDTH 7 0
BBX 5 18 1 0
BITMAP
30
20
40
00
F8
70
60
60
60
60
60
60
60
60
60
60
60
70
ENDCHAR
STARTCHAR 00CE
ENCODING 206
SWIDTH 336 0
DWIDTH 7 0
BBX 5 18 1 0
BITMAP
70
50
88
00
F8
70
60
60
60
60
60
60
60
60
60
60
60
70
ENDCHAR
STARTCHAR 00CF
ENCODING 207
SWIDTH 336 0
DWIDTH 7 0
BBX 5 17 1 0
BITMAP
D8
98
00
F8
70
60
60
60
60
60
60
60
60
60
60
60
70
ENDCHAR
STARTCHAR 00D0
ENCODING 208
SWIDTH 720 0
DWIDTH 15 0
BBX 14 14 0 0
BITMAP
FF80
3070
3038
3018
300C
300C
FF0C
300C
300C
300C
3018
3038
3070
7FC0
ENDCHAR
STARTCHAR 00D1
ENCODING 209
SWIDTH 720 0
DWIDTH 15 0
BBX 15 18 0 0
BITMAP
0220
0720
09C0
0000
F03E
3808
3808
2C08
2E08
2708
2388
2188
20C8
2068
2078
2038
2018
7008
ENDCHAR
STARTCHAR 00D2
ENCODING 210
SWIDTH 720 0
DWIDTH 15 0
BBX 13 18 1 0
BITMAP
0600
0200
0200
0000
0F80
3060
6030
6030
C018
C018
C018
C018
C018
C018
E030
6030
3060
1FC0
ENDCHAR
STARTCHAR 00D3
ENCODING 211
SWIDTH 720 0
DWIDTH 15 0
BBX 13 18 1 0
BITMAP
0300
0200
0400
0000
0F80
3060
6030
6030
C018
C018
C018
C018
C018
C018
E030
6030
3060
1FC0
ENDCHAR
STARTCHAR 00D4
ENCODING 212
SWIDTH 720 0
DWIDTH 15 0
BBX 13 18 1 0
BITMAP
0700
0500
0880
0000
0F80
3060
6030
6030
C018
C018
C018
C018
C018
C018
E030
6030
3060
1FC0
ENDCHAR
STARTCHAR 00D5
ENCODING 213
SWIDTH 720 0
DWIDTH 15 0
BBX 13 18 1 0
BITMAP
0440
0E40
1380
0000
0F80
3060
6030
6030
C018
C018
C018
C018
C018
C018
E030
6030
3060
1FC0
ENDCHAR
STARTCHAR 00D6
ENCODING 214
SWIDTH 720 0
DWIDTH 15 0
BBX 13 17 1 0
BITMAP
0D80
0980
0000
0F80
3060
6030
6030
C018
C018
C018
C018
C018
C018
E030
6030
3060
1FC0
ENDCHAR
STARTCHAR 00D7
ENCODING 215
SWIDTH 576 0
DWIDTH 12 0
BBX 8 8 2 3
BITMAP
81
42
24
18
18
24
42
81
ENDCHAR
STARTCHAR 00D8
ENCODING 216
SWIDTH 720 0
DWIDTH 15 0
BBX 13 14 1 0
BITMAP
0F90
3070
6030
6070
C098
C118
C118
C218
C418
C818
F030
6030
3060
5FC0
ENDCHAR
STARTCHAR 00D9
ENCODING 217
SWIDTH 720 0
DWIDTH 15 0
BBX 15 18 0 0
BITMAP
0300
0180
0080
0000
FC3E
3008
3008
3008
3008
3008
3008
3008
3008
3008
3008
3010
1810
0FE0
ENDCHAR
STARTCHAR 00DA
ENCODING 218
SWIDTH 720 0
DWIDTH 15 0
BBX 15 18 0 0
BITMAP
0180
0100
0200
0000
FC3E
3008
3008
3008
3008
3008
3008
3008
3008
3008
3008
3010
1810
0FE0
ENDCHAR
STARTCHAR 00DB
ENCODING 219
SWIDTH 720 0
DWIDTH 15 0
BBX 15 18 0 0
BITMAP
0180
02C0
0440
0000
FC3E
3008
3008
3008
3008
3008
3008
3008
3008
3008
3008
3010
1810
0FE0
ENDCHAR
STARTCHAR 00DC
ENCODING 220
SWIDTH 720 0
DWIDTH 15 0
BBX 15 17 0 0
BITMAP
0660
0660
0000
FC3E
3008
3008
3008
3008
3008
3008
3008
3008
3008
3008
3010
1810
0FE0
ENDCHAR
STARTCHAR 00DD
ENCODING 221
SWIDTH 720 0
DWIDTH 15 0
BBX 15 18 0 0
BITMAP
00C0
0180
0100
0000
FC3E
3818
1810
1C20
0C20
0640
0780
0380
0300
0300
0300
0300
0300
0380
ENDCHAR
STARTCHAR 00DE
ENCODING 222
SWIDTH 576 0
DWIDTH 12 0
BBX 11 14 0 0
BITMAP
FC00
3000
3000
3E00
31C0
30C0
30E0
30E0
30C0
31C0
3F00
3000
3000
7800
ENDCHAR
STARTCHAR 00DF
ENCODING 223
SWIDTH 480 0
DWIDTH 10 0
BBX 9 14 1 0
BITMAP
3E00
6300
4300
4300
4200
4400
4700
4300
4180
4180
4180
4100
5900
CE00
ENDCHAR
STARTCHAR 00E0
ENCODING 224
SWIDTH 432 0
DWIDTH 9 0
BBX 8 14 1 0
BITMAP
30
10
08
00
38
4C
C6
C6
1E
66
C6
86
CE
F7
ENDCHAR
STARTCHAR 00E1
ENCODING 225
SWIDTH 432 0
DWIDTH 9 0
BBX 8 14 1 0
BITMAP
18
18
10
00
38
4C
C6
C6
1E
66
C6
86
CE
F7
ENDCHAR
STARTCHAR 00E2
ENCODING 226
SWIDTH 432 0
DWIDTH 9 0
BBX 8 14 1 0
BITMAP
38
2C
44
00
38
4C
C6
C6
1E
66
C6
86
CE
F7
ENDCHAR
STARTCHAR 00E3
ENCODING 227
SWIDTH 432 0
DWIDTH 9 0
BBX 8 14 1 0
BITMAP
60
BA
8C
00
38
4C
C6
C6
1E
66
C6
86
CE
F7
ENDCHAR
STARTCHAR 00E4
ENCODING 228
SWIDTH 432 0
DWIDTH 9 0
BBX 8 14 1 0
BITMAP
44
6E
44
00
38
4C
C6
C6
1E
66
C6
86
CE
F7
ENDCHAR
STARTCHAR 00E5
ENCODING 229
SWIDTH 432 0
DWIDTH 9 0
BBX 8 14 1 1
BITMAP
38
44
28
10
38
4C
C6
C6
1E
66
C6
86
CE
F7
ENDCHAR
STARTCHAR 00E6
ENCODING 230
SWIDTH 672 0
DWIDTH 14 0
BBX 12 10 1 0
BITMAP
38C0
4F20
C630
C430
1FC0
6400
C600
8610
C730
FBE0
ENDCHAR
STARTCHAR 00E7
ENCODING 231
SWIDTH 432 0
DWIDTH 9 0
BBX 8 14 1 -4
BITMAP
18
66
C6
80
80
80
C1
C2
66
7C
10
18
08
10
ENDCHAR
STARTCHAR 00E8
ENCODING 232
SWIDTH 432 0
DWIDTH 9 0
BBX 8 14 1 0
BITMAP
30
18
08
00
18
66
86
83
FC
80
C0
C2
76
3C
ENDCHAR
STARTCHAR 00E9
ENCODING 233
SWIDTH 432 0
DWIDTH 9 0
BBX 8 14 1 0
BITMAP
0C
18
10
00
18
66
86
83
FC
80
C0
C2
76
3C
ENDCHAR
STARTCHAR 00EA
ENCODING 234
SWIDTH 432 0
DWIDTH 9 0
BBX 8 14 1 0
BITMAP
18
2C
44
00
18
66
86
83
FC
80
C0
C2
76
3C
ENDCHAR
STARTCHAR 00EB
ENCODING 235
SWIDTH 432 0
DWIDTH 9 0
BBX 8 14 1 0
BITMAP
24
66
24
00
18
66
86
83
FC
80
C0
C2
76
3C
ENDCHAR
STARTCHAR 00EC
ENCODING 236
SWIDTH 288 0
DWIDTH 6 0
BBX 3 14 1 0
BITMAP
C0
60
20
00
20
E0
60
60
60
60
60
60
60
60
ENDCHAR
STARTCHAR 00ED
ENCODING 237
SWIDTH 288 0
DWIDTH 6 0
BBX 4 14 1 0
BITMAP
30
60
40
00
20
E0
60
60
60
60
60
60
60
60
ENDCHAR
STARTCHAR 00EE
ENCODING 238
SWIDTH 288 0
DWIDTH 6 0
BBX 5 14 0 0
BITMAP
30
58
88
00
10
70
30
30
30
30
30
30
30
30
ENDCHAR
STARTCHAR 00EF
ENCODING 239
SWIDTH 288 0
DWIDTH 6 0
BBX 6 14 0 0
BITMAP
48
CC
48
00
10
70
30
30
30
30
30
30
30
30
ENDCHAR
STARTCHAR 00F0
ENCODING 240
SWIDTH 480 0
DWIDTH 10 0
BBX 9 14 1 0
BITMAP
2600
1800
2C00
4600
0600
7F00
4300
C300
C180
C180
C180
C100
6300
3E00
ENDCHAR
STARTCHAR 00F1
ENCODING 241
SWIDTH 480 0
DWIDTH 10 0
BBX 9 14 0 0
BITMAP
1800
2F00
0700
0000
0200
EF00
3180
2180
2180
2180
2180
2180
2180
7180
ENDCHAR
STARTCHAR 00F2
ENCODING 242
SWIDTH 480 0
DWIDTH 10 0
BBX 9 14 1 0
BITMAP
1800
1800
0800
0000
1800
6600
4300
C300
C180
C180
C180
C100
6300
3E00
ENDCHAR
STARTCHAR 00F3
ENCODING 243
SWIDTH 480 0
DWIDTH 10 0
BBX 9 14 1 0
BITMAP
0C00
0800
1000
0000
1800
6600
4300
C300
C180
C180
C180
C100
6300
3E00
ENDCHAR
STARTCHAR 00F4
ENCODING 244
SWIDTH 480 0
DWIDTH 10 0
BBX 9 14 1 0
BITMAP
1C00
3400
2200
0000
1800
6600
4300
C300
C180
C180
C180
C100
6300
3E00
ENDCHAR
STARTCHAR 00F5
ENCODING 245
SWIDTH 480 0
DWIDTH 10 0
BBX 9 14 1 0
BITMAP
3000
5E00
0E00
0000
1800
6600
4300
C300
C180
C180
C180
C100
6300
3E00
ENDCHAR
STARTCHAR 00F6
ENCODING 246
SWIDTH 480 0
DWIDTH 10 0
BBX 9 14 1 0
BITMAP
2000
6600
2400
0000
1800
6600
4300
C300
C180
C180
C180
C100
6300
3E00
ENDCHAR
STARTCHAR 00F7
ENCODING 247
SWIDTH 528 0
DWIDTH 11 0
BBX 11 8 0 3
BITMAP
0400
0400
0000
0000
FFE0
0000
0400
0600
ENDCHAR
STARTCHAR 00F8
ENCODING 248
SWIDTH 480 0
DWIDTH 10 0
BBX 9 11 1 -1
BITMAP
1880
6700
4300
C700
C980
C980
D180
E100
6300
B600
0800
ENDCHAR
STARTCHAR 00F9
ENCODING 249
SWIDTH 480 0
DWIDTH 10 0
BBX 9 14 1 0
BITMAP
1800
0800
0800
0000
0000
C300
4300
4300
4300
4300
4300
4300
6700
7B80
ENDCHAR
STARTCHAR 00FA
ENCODING 250
SWIDTH 480 0
DWIDTH 10 0
BBX 9 14 1 0
BITMAP
0C00
1800
1000
0000
0000
C300
4300
4300
4300
4300
4300
4300
6700
7B80
ENDCHAR
STARTCHAR 00FB
ENCODING 251
SWIDTH 480 0
DWIDTH 10 0
BBX 9 14 1 0
BITMAP
1C00
3400
2200
0000
0000
C300
4300
4300
4300
4300
4300
4300
6700
7B80
ENDCHAR
STARTCHAR 00FC
ENCODING 252
SWIDTH 480 0
DWIDTH 10 0
BBX 9 14 1 0
BITMAP
2000
6600
2400
0000
0000
C300
4300
4300
4300
4300
4300
4300
6700
7B80
ENDCHAR
STARTCHAR 00FD
ENCODING 253
SWIDTH 480 0
DWIDTH 10 0
BBX 9 18 1 -4
BITMAP
0C00
0800
1000
0000
0000
E180
6100
6100
2200
3200
1400
1C00
0800
0800
0800
1000
9000
E000
ENDCHAR
STARTCHAR 00FE
ENCODING 254
SWIDTH 480 0
DWIDTH 10 0
BBX 10 18 0 -4
BITMAP
E000
6000
2000
2000
2200
2F80
3180
21C0
20C0
20C0
20C0
2080
2180
3300
2C00
2000
2000
7000
ENDCHAR
STARTCHAR 00FF
ENCODING 255
SWIDTH 480 0
DWIDTH 10 0
BBX 9 18 1 -4
BITMAP
2200
3600
2200
0000
0000
E180
6100
6100
2200
3200
1400
1C00
0800
0800
0800
1000
9000
E000
ENDCHAR
STARTCHAR 0100
ENCODING 256
SWIDTH 720 0
DWIDTH 15 0
BBX 13 17 1 0
BITMAP
1FC0
1FC0
0000
0200
0200
0700
0700
0980
0980
1180
10C0
10C0
2F60
2060
4060
4030
E078
ENDCHAR
STARTCHAR 0101
ENCODING 257
SWIDTH 432 0
DWIDTH 9 0
BBX 8 13 1 0
BITMAP
FE
FE
00
38
4C
C6
C6
1E
66
C6
86
CE
F7
ENDCHAR
STARTCHAR 0102
ENCODING 258
SWIDTH 720 0
DWIDTH 15 0
BBX 13 17 1 1
BITMAP
0F80
0700
0000
0200
0200
0700
0700
0980
0980
1180
10C0
10C0
2F60
2060
4060
4030
E078
ENDCHAR
STARTCHAR 0103
ENCODING 259
SWIDTH 432 0
DWIDTH 9 0
BBX 8 13 1 1
BITMAP
7C
38
00
38
4C
C6
C6
1E
66
C6
86
CE
F7
ENDCHAR
STARTCHAR 0104
ENCODING 260
SWIDTH 720 0
DWIDTH 15 0
BBX 14 18 1 -4
BITMAP
0200
0200
0700
0700
0980
0980
1180
10C0
10C0
2F60
2060
4060
4030
E078
0020
0060
0020
001C
ENDCHAR
STARTCHAR 0105
ENCODING 261
SWIDTH 432 0
DWIDTH 9 0
BBX 9 14 1 -4
BITMAP
3800
4C00
C600
C600
1E00
6600
C600
8600
CE00
F700
0400
0400
0600
0380
ENDCHAR
STARTCHAR 0106
ENCODING 262
SWIDTH 672 0
DWIDTH 14 0
BBX 12 18 1 0
BITMAP
0300
0200
0200
0000
0F90
3070
6010
6010
C000
C000
C000
C000
C000
C000
E000
6010
3020
1FC0
ENDCHAR
STARTCHAR 0107
ENCODING 263
SWIDTH 432 0
DWIDTH 9 0
BBX 8 14 1 0
BITMAP
0C
18
10
00
18
66
C6
80
80
80
C1
C2
66
7C
ENDCHAR
STARTCHAR 0108
ENCODING 264
SWIDTH 672 0
DWIDTH 14 0
BBX 12 19 1 0
BITMAP
0600
0700
0900
0080
0000
0F90
3070
6010
6010
C000
C000
C000
C000
C000
C000
E000
6010
3020
1FC0
ENDCHAR
STARTCHAR 0109
ENCODING 265
SWIDTH 432 0
DWIDTH 9 0
BBX 8 14 1 0
BITMAP
38
28
44
00
18
66
C6
80
80
80
C1
C2
66
7C
ENDCHAR
STARTCHAR 010A
ENCODING 266
SWIDTH 672 0
DWIDTH 14 0
BBX 12 17 1 0
BITMAP
0600
0200
0000
0F90
3070
6010
6010
C000
C000
C000
C000
C000
C000
E000
6010
3020
1FC0
ENDCHAR
STARTCHAR 010B
ENCODING 267
SWIDTH 432 0
DWIDTH 9 0
BBX 8 14 1 0
BITMAP
10
18
10
00
18
66
C6
80
80
80
C1
C2
66
7C
ENDCHAR
STARTCHAR 010C
ENCODING 268
SWIDTH 672 0
DWIDTH 14 0
BBX 12 18 1 0
BITMAP
0880
0580
0700
0000
0F90
3070
6010
6010
C000
C000
C000
C000
C000
C000
E000
6010
3020
1FC0
ENDCHAR
STARTCHAR 010D
ENCODING 269
SWIDTH 432 0
DWIDTH 9 0
BBX 8 14 1 0
BITMAP
42
34
18
00
18
66
C6
80
80
80
C1
C2
66
7C
ENDCHAR
STARTCHAR 010E
ENCODING 270
SWIDTH 720 0
DWIDTH 15 0
BBX 14 18 0 0
BITMAP
0880
0680
0300
0000
FF80
3070
3038
3018
300C
300C
300C
300C
300C
300C
3018
3018
3070
7FC0
ENDCHAR
STARTCHAR 010F
ENCODING 271
SWIDTH 624 0
DWIDTH 13 0
BBX 12 14 1 0
BITMAP
0770
0330
0310
0310
1B20
6700
4300
C300
C300
C300
C300
C300
E300
7F80
ENDCHAR
STARTCHAR 0110
ENCODING 272
SWIDTH 720 0
DWIDTH 15 0
BBX 14 14 0 0
BITMAP
FF80
3070
3038
3018
300C
300C
FF0C
300C
300C
300C
3018
3038
3070
7FC0
ENDCHAR
STARTCHAR 0111
ENCODING 273
SWIDTH 480 0
DWIDTH 10 0
BBX 10 14 0 0
BITMAP
0380
0180
0FC0
0180
0D80
3380
6180
4180
4180
C180
C180
6180
7180
3F80
ENDCHAR
STARTCHAR 0112
ENCODING 274
SWIDTH 624 0
DWIDTH 13 0
BBX 12 17 0 0
BITMAP
1FC0
1FC0
0000
FFE0
3020
3020
3000
3000
3040
3FC0
3040
3040
3000
3000
3010
3030
7FE0
ENDCHAR
STARTCHAR 0113
ENCODING 275
SWIDTH 432 0
DWIDTH 9 0
BBX 8 13 1 0
BITMAP
FE
FE
00
18
66
86
83
FC
80
C0
C2
76
3C
ENDCHAR
STARTCHAR 0114
ENCODING 276
SWIDTH 624 0
DWIDTH 13 0
BBX 12 18 0 0
BITMAP
1080
0F80
0700
0000
FFE0
3020
3020
3000
3000
3040
3FC0
3040
3040
3000
3000
3010
3030
7FE0
ENDCHAR
STARTCHAR 0115
ENCODING 277
SWIDTH 432 0
DWIDTH 9 0
BBX 8 14 1 0
BITMAP
02
7C
38
00
18
66
86
83
FC
80
C0
C2
76
3C
ENDCHAR
STARTCHAR 0116
ENCODING 278
SWIDTH 624 0
DWIDTH 13 0
BBX 12 17 0 0
BITMAP
0600
0200
0000
FFE0
3020
3020
3000
3000
3040
3FC0
3040
3040
3000
3000
3010
3030
7FE0
ENDCHAR
STARTCHAR 0117
ENCODING 279
SWIDTH 432 0
DWIDTH 9 0
BBX 8 14 1 0
BITMAP
10
18
10
00
18
66
86
83
FC
80
C0
C2
76
3C
ENDCHAR
STARTCHAR 0118
ENCODING 280
SWIDTH 624 0
DWIDTH 13 0
BBX 12 18 0 -4
BITMAP
FFE0
3020
3020
3000
3000
3040
3FC0
3040
3040
3000
3000
3010
3030
3FE0
4080
0180
0080
0070
ENDCHAR
STARTCHAR 0119
ENCODING 281
SWIDTH 432 0
DWIDTH 9 0
BBX 8 14 1 -4
BITMAP
18
66
86
83
FC
80
C0
C2
76
3C
08
08
0C
07
ENDCHAR
STARTCHAR 011A
ENCODING 282
SWIDTH 624 0
DWIDTH 13 0
BBX 12 18 0 0
BITMAP
0880
0D00
0700
0000
FFE0
3020
3020
3000
3000
3040
3FC0
3040
3040
3000
3000
3010
3030
7FE0
ENDCHAR
STARTCHAR 011B
ENCODING 283
SWIDTH 432 0
DWIDTH 9 0
BBX 8 14 1 0
BITMAP
44
24
18
00
18
66
86
83
FC
80
C0
C2
76
3C
ENDCHAR
STARTCHAR 011C
ENCODING 284
SWIDTH 720 0
DWIDTH 15 0
BBX 14 19 1 0
BITMAP
0300
0700
0480
0800
0000
0FD0
3030
6010
6010
C000
C000
C0FC
C030
C030
C030
E030
6030
3030
1FE0
ENDCHAR
STARTCHAR 011D
ENCODING 285
SWIDTH 480 0
DWIDTH 10 0
BBX 9 18 1 -4
BITMAP
1800
3C00
4200
0000
1800
6780
4200
C300
C300
6200
3C00
4000
4000
7F00
4080
8080
8100
FE00
ENDCHAR
STARTCHAR 011E
ENCODING 286
SWIDTH 720 0
DWIDTH 15 0
BBX 14 18 1 0
BITMAP
0800
07C0
0380
0000
0FD0
3030
6010
6010
C000
C000
C0FC
C030
C030
C030
E030
6030
3030
1FE0
ENDCHAR
STARTCHAR 011F
ENCODING 287
SWIDTH 480 0
DWIDTH 10 0
BBX 9 18 1 -4
BITMAP
4000
3E00
1C00
0000
1800
6780
4200
C300
C300
6200
3C00
4000
4000
7F00
4080
8080
8100
FE00
ENDCHAR
STARTCHAR 0120
ENCODING 288
SWIDTH 720 0
DWIDTH 15 0
BBX 14 17 1 0
BITMAP
0300
0200
0000
0FD0
3030
6010
6010
C000
C000
C0FC
C030
C030
C030
E030
6030
3030
1FE0
ENDCHAR
STARTCHAR 0121
ENCODING 289
SWIDTH 480 0
DWIDTH 10 0
BBX 9 18 1 -4
BITMAP
0800
1800
0800
0000
1800
6780
4200
C300
C300
6200
3C00
4000
4000
7F00
4080
8080
8100
FE00
ENDCHAR
STARTCHAR 0122
ENCODING 290
SWIDTH 720 0
DWIDTH 15 0
BBX 14 18 1 -4
BITMAP
0FD0
3030
6010
6010
C000
C000
C0FC
C030
C030
C030
E030
6030
3030
1C60
0380
0300
0100
0200
ENDCHAR
STARTCHAR 0123
ENCODING 291
SWIDTH 480 0
DWIDTH 10 0
BBX 9 19 1 -4
BITMAP
1000
1000
1800
0800
0000
1800
6780
4200
C300
C300
6200
3C00
4000
4000
7F00
4080
8080
8100
FE00
ENDCHAR
STARTCHAR 0124
ENCODING 292
SWIDTH 720 0
DWIDTH 15 0
BBX 15 19 0 0
BITMAP
0100
0380
04C0
0000
0000
FC7E
3018
3018
3018
3018
3018
3018
3FF8
3018
3018
3018
3018
3018
783C
ENDCHAR
STARTCHAR 0125
ENCODING 293
SWIDTH 480 0
DWIDTH 10 0
BBX 8 19 1 0
BITMAP
18
1C
24
02
00
C0
40
40
40
44
5E
63
43
43
43
43
43
43
E3
ENDCHAR
STARTCHAR 0126
ENCODING 294
SWIDTH 720 0
DWIDTH 15 0
BBX 15 14 0 0
BITMAP
FC7E
3018
FFFE
3018
3018
3018
3018
3FF8
3018
3018
3018
3018
3018
783C
ENDCHAR
STARTCHAR 0127
ENCODING 295
SWIDTH 480 0
DWIDTH 10 0
BBX 9 14 0 0
BITMAP
6000
2000
FC00
2000
2200
2F00
3180
2180
2180
2180
2180
2180
2180
7180
ENDCHAR
STARTCHAR 0128
ENCODING 296
SWIDTH 336 0
DWIDTH 7 0
BBX 7 18 0 0
BITMAP
62
BA
8C
00
7C
38
30
30
30
30
30
30
30
30
30
30
30
38
ENDCHAR
STARTCHAR 0129
ENCODING 297
SWIDTH 288 0
DWIDTH 6 0
BBX 6 14 0 0
BITMAP
60
F4
18
00
10
70
30
30
30
30
30
30
30
30
ENDCHAR
STARTCHAR 012A
ENCODING 298
SWIDTH 336 0
DWIDTH 7 0
BBX 7 17 0 0
BITMAP
FE
FE
00
7C
38
30
30
30
30
30
30
30
30
30
30
30
38
ENDCHAR
STARTCHAR 012B
ENCODING 299
SWIDTH 288 0
DWIDTH 6 0
BBX 6 13 0 0
BITMAP
FC
FC
00
10
70
30
30
30
30
30
30
30
30
ENDCHAR
STARTCHAR 012C
ENCODING 300
SWIDTH 336 0
DWIDTH 7 0
BBX 5 18 1 0
BITMAP
88
F8
70
00
F8
70
60
60
60
60
60
60
60
60
60
60
60
70
ENDCHAR
STARTCHAR 012D
ENCODING 301
SWIDTH 288 0
DWIDTH 6 0
BBX 6 14 0 0
BITMAP
04
F8
78
00
10
70
30
30
30
30
30
30
30
30
ENDCHAR
STARTCHAR 012E
ENCODING 302
SWIDTH 336 0
DWIDTH 7 0
BBX 5 18 1 -4
BITMAP
F8
70
60
60
60
60
60
60
60
60
60
60
60
70
40
40
60
38
ENDCHAR
STARTCHAR 012F
ENCODING 303
SWIDTH 288 0
DWIDTH 6 0
BBX 5 18 1 -4
BITMAP
60
00
00
00
20
E0
60
60
60
60
60
60
60
60
40
40
60
38
ENDCHAR
STARTCHAR 0130
ENCODING 304
SWIDTH 336 0
DWIDTH 7 0
BBX 5 17 1 0
BITMAP
70
20
00
F8
70
60
60
60
60
60
60
60
60
60
60
60
70
ENDCHAR
STARTCHAR 0131
ENCODING 305
SWIDTH 288 0
DWIDTH 6 0
BBX 3 10 1 0
BITMAP
20
E0
60
60
60
60
60
60
60
60
ENDCHAR
STARTCHAR 0132
ENCODING 306
SWIDTH 720 0
DWIDTH 15 0
BBX 14 14 1 0
BITMAP
F8FC
7030
6030
6030
6030
6030
6030
6030
6030
6030
6030
6030
6320
73C0
ENDCHAR
STARTCHAR 0133
ENCODING 307
SWIDTH 576 0
DWIDTH 12 0
BBX 9 18 1 -4
BITMAP
6180
0100
0000
0000
2080
E380
6180
6180
6180
6180
6180
6180
6180
6180
0180
0100
0100
1E00
ENDCHAR
STARTCHAR 0134
ENCODING 308
SWIDTH 384 0
DWIDTH 8 0
BBX 8 19 0 0
BITMAP
0C
1C
12
21
00
3F
0C
0C
0C
0C
0C
0C
0C
0C
0C
0C
0C
C8
78
ENDCHAR
STARTCHAR 0135
ENCODING 309
SWIDTH 288 0
DWIDTH 6 0
BBX 7 18 -2 -4
BITMAP
0C
16
22
00
04
1C
0C
0C
0C
0C
0C
0C
0C
0C
0C
0C
08
F8
ENDCHAR
STARTCHAR 0136
ENCODING 310
SWIDTH 720 0
DWIDTH 15 0
BBX 14 18 0 -4
BITMAP
FCF8
3020
3040
3080
3100
3200
3400
3E00
3300
3180
30C0
3060
3038
387C
4000
0180
0080
0100
ENDCHAR
STARTCHAR 0137
ENCODING 311
SWIDTH 480 0
DWIDTH 10 0
BBX 9 18 1 -4
BITMAP
C000
4000
4000
4000
4000
4300
4400
4800
5000
7800
4C00
4600
4600
E380
0000
1C00
0C00
1800
ENDCHAR
STARTCHAR 0138
ENCODING 312
SWIDTH 480 0
DWIDTH 10 0
BBX 9 9 1 0
BITMAP
E700
4400
4800
5000
7800
4C00
4600
4600
E380
ENDCHAR
STARTCHAR 0139
ENCODING 313
SWIDTH 624 0
DWIDTH 13 0
BBX 12 18 0 0
BITMAP
0600
0400
0800
0000
FE00
3000
3000
3000
3000
3000
3000
3000
3000
3000
3000
3010
3030
7FE0
ENDCHAR
STARTCHAR 013A
ENCODING 314
SWIDTH 288 0
DWIDTH 6 0
BBX 4 18 1 0
BITMAP
30
60
40
00
E0
60
60
60
60
60
60
60
60
60
60
60
60
60
ENDCHAR
STARTCHAR 013B
ENCODING 315
SWIDTH 624 0
DWIDTH 13 0
BBX 12 18 0 -4
BITMAP
FE00
3000
3000
3000
3000
3000
3000
3000
3000
3000
3000
3010
3030
3FE0
4000
0700
0100
0600
ENDCHAR
STARTCHAR 013C
ENCODING 316
SWIDTH 288 0
DWIDTH 6 0
BBX 3 18 1 -4
BITMAP
E0
60
60
60
60
60
60
60
60
60
60
60
60
60
00
60
20
E0
ENDCHAR
STARTCHAR 013D
ENCODING 317
SWIDTH 624 0
DWIDTH 13 0
BBX 12 14 0 0
BITMAP
FEE0
30E0
3020
3020
3040
3000
3000
3000
3000
3000
3000
3010
3030
7FE0
ENDCHAR
STARTCHAR 013E
ENCODING 318
SWIDTH 384 0
DWIDTH 8 0
BBX 7 14 1 0
BITMAP
EE
66
62
62
64
60
60
60
60
60
60
60
60
60
ENDCHAR
STARTCHAR 013F
ENCODING 319
SWIDTH 624 0
DWIDTH 13 0
BBX 12 14 0 0
BITMAP
FE00
3000
3000
3000
3000
3000
3180
3080
3000
3000
3000
3010
3030
7FE0
ENDCHAR
STARTCHAR 0140
ENCODING 320
SWIDTH 336 0
DWIDTH 7 0
BBX 6 14 1 0
BITMAP
E0
60
60
60
60
60
6C
6C
60
60
60
60
60
60
ENDCHAR
STARTCHAR 0141
ENCODING 321
SWIDTH 624 0
DWIDTH 13 0
BBX 12 14 0 0
BITMAP
FE00
3000
3000
3000
3200
3400
3800
3000
7000
B000
3000
3010
3030
7FE0
ENDCHAR
STARTCHAR 0142
ENCODING 322
SWIDTH 288 0
DWIDTH 6 0
BBX 6 14 0 0
BITMAP
70
30
30
30
34
38
30
30
F0
30
30
30
30
30
ENDCHAR
STARTCHAR 0143
ENCODING 323
SWIDTH 720 0
DWIDTH 15 0
BBX 15 18 0 0
BITMAP
0180
0100
0200
0000
F03E
3808
3808
2C08
2E08
2708
2388
2188
20C8
2068
2078
2038
2018
7008
ENDCHAR
STARTCHAR 0144
ENCODING 324
SWIDTH 480 0
DWIDTH 10 0
BBX 9 14 0 0
BITMAP
0600
0C00
0800
0000
0200
EF00
3180
2180
2180
2180
2180
2180
2180
7180
ENDCHAR
STARTCHAR 0145
ENCODING 325
SWIDTH 720 0
DWIDTH 15 0
BBX 15 18 0 -4
BITMAP
F03E
3808
3808
2C08
2E08
2708
2388
2188
20C8
2068
2078
2038
2018
3008
4000
0180
0080
0100
ENDCHAR
STARTCHAR 0146
ENCODING 326
SWIDTH 480 0
DWIDTH 10 0
BBX 9 14 0 -4
BITMAP
0200
EF00
3180
2180
2180
2180
2180
2180
2180
7180
0000
0E00
0600
0C00
ENDCHAR
STARTCHAR 0147
ENCODING 327
SWIDTH 720 0
DWIDTH 15 0
BBX 15 18 0 0
BITMAP
0440
0280
0380
0000
F03E
3808
3808
2C08
2E08
2708
2388
2188
20C8
2068
2078
2038
2018
7008
ENDCHAR
STARTCHAR 0148
ENCODING 328
SWIDTH 480 0
DWIDTH 10 0
BBX 9 14 0 0
BITMAP
2100
1200
0C00
0000
0200
EF00
3180
2180
2180
2180
2180
2180
2180
7180
ENDCHAR
STARTCHAR 0149
ENCODING 329
SWIDTH 624 0
DWIDTH 13 0
BBX 12 14 0 0
BITMAP
E000
E000
2000
2000
4480
3FE0
0C60
0C60
0C60
0C60
0C60
0C60
0C60
1C70
ENDCHAR
STARTCHAR 014A
ENCODING 330
SWIDTH 720 0
DWIDTH 15 0
BBX 13 14 1 0
BITMAP
E7C0
6860
7030
7030
6038
6038
6018
6018
6018
6030
6030
6230
6320
F3C0
ENDCHAR
STARTCHAR 014B
ENCODING 331
SWIDTH 480 0
DWIDTH 10 0
BBX 9 14 0 -4
BITMAP
0200
EF00
3180
2180
2180
2180
2180
2180
2180
7180
0180
0180
0100
1F00
ENDCHAR
STARTCHAR 014C
ENCODING 332
SWIDTH 720 0
DWIDTH 15 0
BBX 13 17 1 0
BITMAP
1FC0
1FC0
0000
0F80
3060
6030
6030
C018
C018
C018
C018
C018
C018
E030
6030
3060
1FC0
ENDCHAR
STARTCHAR 014D
ENCODING 333
SWIDTH 480 0
DWIDTH 10 0
BBX 9 13 1 0
BITMAP
7E00
7E00
0000
1800
6600
4300
C300
C180
C180
C180
C100
6300
3E00
ENDCHAR
STARTCHAR 014E
ENCODING 334
SWIDTH 720 0
DWIDTH 15 0
BBX 13 18 1 0
BITMAP
1080
0F80
0700
0000
0F80
3060
6030
6030
C018
C018
C018
C018
C018
C018
E030
6030
3060
1FC0
ENDCHAR
STARTCHAR 014F
ENCODING 335
SWIDTH 480 0
DWIDTH 10 0
BBX 9 14 1 0
BITMAP
4200
7E00
3C00
0000
1800
6600
4300
C300
C180
C180
C180
C100
6300
3E00
ENDCHAR
STARTCHAR 0150
ENCODING 336
SWIDTH 720 0
DWIDTH 15 0
BBX 13 18 1 0
BITMAP
04C0
0480
0900
0000
0F80
3060
6030
6030
C018
C018
C018
C018
C018
C018
E030
6030
3060
1FC0
ENDCHAR
STARTCHAR 0151
ENCODING 337
SWIDTH 480 0
DWIDTH 10 0
BBX 9 14 1 0
BITMAP
3200
2600
2400
0000
1800
6600
4300
C300
C180
C180
C180
C100
6300
3E00
ENDCHAR
STARTCHAR 0152
ENCODING 338
SWIDTH 912 0
DWIDTH 19 0
BBX 17 14 1 0
BITMAP
0FFF00
30C100
60C100
60C000
C0C200
C0C200
C0FE00
C0C200
C0C200
C0C000
E0C000
60C080
30C100
1FFF00
ENDCHAR
STARTCHAR 0153
ENCODING 339
SWIDTH 720 0
DWIDTH 15 0
BBX 13 10 1 0
BITMAP
1860
6698
C318
C318
C3E0
C300
C300
C388
63D8
7CF0
ENDCHAR
STARTCHAR 0154
ENCODING 340
SWIDTH 672 0
DWIDTH 14 0
BBX 13 18 0 0
BITMAP
0300
0600
0400
0000
FF80
30C0
3060
3060
3060
30E0
31C0
3F00
3380
3180
30C0
3060
3070
7838
ENDCHAR
STARTCHAR 0155
ENCODING 341
SWIDTH 336 0
DWIDTH 7 0
BBX 7 14 0 0
BITMAP
18
10
10
00
04
EE
30
20
20
20
20
20
20
70
ENDCHAR
STARTCHAR 0156
ENCODING 342
SWIDTH 672 0
DWIDTH 14 0
BBX 13 18 0 -4
BITMAP
FF80
30C0
3060
3060
3060
30E0
31C0
3F00
3380
3180
30C0
3060
3070
3838
4000
0380
0180
0700
ENDCHAR
STARTCHAR 0157
ENCODING 343
SWIDTH 336 0
DWIDTH 7 0
BBX 7 14 0 -4
BITMAP
04
EE
30
20
20
20
20
20
20
70
00
30
18
70
ENDCHAR
STARTCHAR 0158
ENCODING 344
SWIDTH 672 0
DWIDTH 14 0
BBX 13 18 0 0
BITMAP
0880
0D00
0600
0000
FF80
30C0
3060
3060
3060
30E0
31C0
3F00
3380
3180
30C0
3060
3070
7838
ENDCHAR
STARTCHAR 0159
ENCODING 345
SWIDTH 336 0
DWIDTH 7 0
BBX 7 14 0 0
BITMAP
44
2C
38
00
04
EE
30
20
20
20
20
20
20
70
ENDCHAR
STARTCHAR 015A
ENCODING 346
SWIDTH 576 0
DWIDTH 12 0
BBX 9 18 1 0
BITMAP
0C00
0800
1000
0000
3E80
4180
C080
C080
E080
7000
3C00
1F00
0780
0180
8180
8080
C180
FF00
ENDCHAR
STARTCHAR 015B
ENCODING 347
SWIDTH 384 0
DWIDTH 8 0
BBX 6 14 1 0
BITMAP
18
10
20
00
34
4C
84
C4
F0
38
0C
84
84
F8
ENDCHAR
STARTCHAR 015C
ENCODING 348
SWIDTH 576 0
DWIDTH 12 0
BBX 9 19 1 0
BITMAP
0C00
1C00
1200
2000
0000
3E80
4180
C080
C080
E080
7000
3C00
1F00
0780
0180
8180
8080
C180
FF00
ENDCHAR
STARTCHAR 015D
ENCODING 349
SWIDTH 384 0
DWIDTH 8 0
BBX 6 14 1 0
BITMAP
30
58
88
00
34
4C
84
C4
F0
38
0C
84
84
F8
ENDCHAR
STARTCHAR 015E
ENCODING 350
SWIDTH 576 0
DWIDTH 12 0
BBX 9 18 1 -4
BITMAP
3E80
4180
C080
C080
E080
7000
3C00
1F00
0780
0180
8180
8080
C180
F700
0800
0C00
0400
0800
ENDCHAR
STARTCHAR 015F
ENCODING 351
SWIDTH 384 0
DWIDTH 8 0
BBX 6 14 1 -4
BITMAP
34
4C
84
C4
F0
38
0C
84
84
C8
30
30
10
70
ENDCHAR
STARTCHAR 0160
ENCODING 352
SWIDTH 576 0
DWIDTH 12 0
BBX 9 18 1 0
BITMAP
2200
1600
1C00
0000
3E80
4180
C080
C080
E080
7000
3C00
1F00
0780
0180
8180
8080
C180
FF00
ENDCHAR
STARTCHAR 0161
ENCODING 353
SWIDTH 384 0
DWIDTH 8 0
BBX 6 14 1 0
BITMAP
84
68
30
00
34
4C
84
C4
F0
38
0C
84
84
F8
ENDCHAR
STARTCHAR 0162
ENCODING 354
SWIDTH 624 0
DWIDTH 13 0
BBX 11 19 1 -5
BITMAP
FFE0
8C20
8C20
0C00
0C00
0C00
0C00
0C00
0C00
0C00
0C00
0C00
0C00
0E00
1000
0C00
0E00
0400
0800
ENDCHAR
STARTCHAR 0163
ENCODING 355
SWIDTH 288 0
DWIDTH 6 0
BBX 5 17 1 -5
BITMAP
40
40
C0
70
40
40
40
40
40
40
68
70
00
60
60
20
40
ENDCHAR
STARTCHAR 0164
ENCODING 356
SWIDTH 624 0
DWIDTH 13 0
BBX 11 18 1 0
BITMAP
1100
0A00
0E00
0000
FFE0
8C20
8C20
0C00
0C00
0C00
0C00
0C00
0C00
0C00
0C00
0C00
0C00
1E00
ENDCHAR
STARTCHAR 0165
ENCODING 357
SWIDTH 432 0
DWIDTH 9 0
BBX 8 14 1 0
BITMAP
06
07
41
42
C4
70
40
40
40
40
40
40
48
70
ENDCHAR
STARTCHAR 0166
ENCODING 358
SWIDTH 624 0
DWIDTH 13 0
BBX 11 14 1 0
BITMAP
FFE0
8C20
8C20
0C00
0C00
0C00
7FC0
0C00
0C00
0C00
0C00
0C00
0C00
1E00
ENDCHAR
STARTCHAR 0167
ENCODING 359
SWIDTH 288 0
DWIDTH 6 0
BBX 6 12 0 0
BITMAP
20
20
60
38
20
20
F8
20
20
20
24
38
ENDCHAR
STARTCHAR 0168
ENCODING 360
SWIDTH 720 0
DWIDTH 15 0
BBX 15 18 0 0
BITMAP
0700
0BA0
00C0
0000
FC3E
3008
3008
3008
3008
3008
3008
3008
3008
3008
3008
3010
1810
0FE0
ENDCHAR
STARTCHAR 0169
ENCODING 361
SWIDTH 480 0
DWIDTH 10 0
BBX 9 14 1 0
BITMAP
3000
5E00
0E00
0000
0000
C300
4300
4300
4300
4300
4300
4300
6700
7B80
ENDCHAR
STARTCHAR 016A
ENCODING 362
SWIDTH 720 0
DWIDTH 15 0
BBX 15 17 0 0
BITMAP
07E0
07E0
0000
FC3E
3008
3008
3008
3008
3008
3008
3008
3008
3008
3008
3010
1810
0FE0
ENDCHAR
STARTCHAR 016B
ENCODING 363
SWIDTH 480 0
DWIDTH 10 0
BBX 9 13 1 0
BITMAP
7E00
7E00
0000
0000
C300
4300
4300
4300
4300
4300
4300
6700
7B80
ENDCHAR
STARTCHAR 016C
ENCODING 364
SWIDTH 720 0
DWIDTH 15 0
BBX 15 18 0 0
BITMAP
0840
07C0
0380
0000
FC3E
3008
3008
3008
3008
3008
3008
3008
3008
3008
3008
3010
1810
0FE0
ENDCHAR
STARTCHAR 016D
ENCODING 365
SWIDTH 480 0
DWIDTH 10 0
BBX 9 14 1 0
BITMAP
4000
3E00
1C00
0000
0000
C300
4300
4300
4300
4300
4300
4300
6700
7B80
ENDCHAR
STARTCHAR 016E
ENCODING 366
SWIDTH 720 0
DWIDTH 15 0
BBX 15 18 0 0
BITMAP
03C0
0240
0240
0180
FC3E
3008
3008
3008
3008
3008
3008
3008
3008
3008
3008
3010
1810
0FE0
ENDCHAR
STARTCHAR 016F
ENCODING 367
SWIDTH 480 0
DWIDTH 10 0
BBX 9 14 1 0
BITMAP
3C00
2400
2400
1800
0000
C300
4300
4300
4300
4300
4300
4300
6700
7B80
ENDCHAR
STARTCHAR 0170
ENCODING 368
SWIDTH 720 0
DWIDTH 15 0
BBX 15 18 0 0
BITMAP
0360
0240
0440
0000
FC3E
3008
3008
3008
3008
3008
3008
3008
3008
3008
3008
3010
1810
0FE0
ENDCHAR
STARTCHAR 0171
ENCODING 369
SWIDTH 480 0
DWIDTH 10 0
BBX 9 14 1 0
BITMAP
3600
2400
4400
0000
0000
C300
4300
4300
4300
4300
4300
4300
6700
7B80
ENDCHAR
STARTCHAR 0172
ENCODING 370
SWIDTH 720 0
DWIDTH 15 0
BBX 15 18 0 -4
BITMAP
FC3E
3008
3008
3008
3008
3008
3008
3008
3008
3008
3008
3010
1810
0FE0
0100
0100
0180
00E0
ENDCHAR
STARTCHAR 0173
ENCODING 371
SWIDTH 480 0
DWIDTH 10 0
BBX 10 13 1 -4
BITMAP
C300
4300
4300
4300
4300
4300
4300
6700
7B80
0200
0200
0300
01C0
ENDCHAR
STARTCHAR 0174
ENCODING 372
SWIDTH 960 0
DWIDTH 20 0
BBX 20 19 0 0
BITMAP
006000
00E000
009000
010800
000000
F9F1F0
30E040
306040
186080
187080
187080
0C7100
0C9900
0C9900
069A00
070E00
070C00
020C00
020400
ENDCHAR
STARTCHAR 0175
ENCODING 373
SWIDTH 720 0
DWIDTH 15 0
BBX 13 14 1 0
BITMAP
0700
0500
0880
0000
0000
C708
4310
6310
6310
25A0
34A0
18E0
18C0
1040
ENDCHAR
STARTCHAR 0176
ENCODING 374
SWIDTH 720 0
DWIDTH 15 0
BBX 15 19 0 0
BITMAP
0100
0380
04C0
0000
0000
FC3E
3818
1810
1C20
0C20
0640
0780
0380
0300
0300
0300
0300
0300
0380
ENDCHAR
STARTCHAR 0177
ENCODING 375
SWIDTH 480 0
DWIDTH 10 0
BBX 9 18 1 -4
BITMAP
1C00
1400
2200
0000
0000
E180
6100
6100
2200
3200
1400
1C00
0800
0800
0800
1000
9000
E000
ENDCHAR
STARTCHAR 0178
ENCODING 376
SWIDTH 720 0
DWIDTH 15 0
BBX 15 17 0 0
BITMAP
06E0
0640
0000
FC3E
3818
1810
1C20
0C20
0640
0780
0380
0300
0300
0300
0300
0300
0380
ENDCHAR
STARTCHAR 0179
ENCODING 377
SWIDTH 624 0
DWIDTH 13 0
BBX 12 18 0 0
BITMAP
0300
0200
0400
0000
3FF0
2060
40C0
41C0
0180
0300
0700
0600
0C00
1800
3800
3010
6010
FFF0
ENDCHAR
STARTCHAR 017A
ENCODING 378
SWIDTH 432 0
DWIDTH 9 0
BBX 8 14 1 0
BITMAP
18
10
10
00
00
FF
86
0C
18
18
30
61
C1
FF
ENDCHAR
STARTCHAR 017B
ENCODING 379
SWIDTH 624 0
DWIDTH 13 0
BBX 12 17 0 0
BITMAP
0700
0200
0000
3FF0
2060
40C0
41C0
0180
0300
0700
0600
0C00
1800
3800
3010
6010
FFF0
ENDCHAR
STARTCHAR 017C
ENCODING 380
SWIDTH 432 0
DWIDTH 9 0
BBX 8 14 1 0
BITMAP
10
18
10
00
00
FF
86
0C
18
18
30
61
C1
FF
ENDCHAR
STARTCHAR 017D
ENCODING 381
SWIDTH 624 0
DWIDTH 13 0
BBX 12 18 0 0
BITMAP
0880
0500
0700
0000
3FF0
2060
40C0
41C0
0180
0300
0700
0600
0C00
1800
3800
3010
6010
FFF0
ENDCHAR
STARTCHAR 017E
ENCODING 382
SWIDTH 432 0
DWIDTH 9 0
BBX 8 14 1 0
BITMAP
44
24
38
00
00
FF
86
0C
18
18
30
61
C1
FF
ENDCHAR
STARTCHAR 017F
ENCODING 383
SWIDTH 288 0
DWIDTH 6 0
BBX 7 14 1 0
BITMAP
3E
22
60
60
60
60
60
60
60
60
60
60
60
E0
ENDCHAR
STARTCHAR 018F
ENCODING 399
SWIDTH 720 0
DWIDTH 15 0
BBX 14 14 0 0
BITMAP
2FC0
1830
1018
2018
200C
000C
000C
FFFC
600C
600C
601C
3018
1830
0FE0
ENDCHAR
STARTCHAR 0192
ENCODING 402
SWIDTH 480 0
DWIDTH 10 0
BBX 10 18 0 -4
BITMAP
01C0
0140
0200
0200
0600
1F80
0600
0400
0400
0C00
0C00
0800
0800
1800
1800
1000
9000
E000
ENDCHAR
STARTCHAR 01A0
ENCODING 416
SWIDTH 720 0
DWIDTH 15 0
BBX 13 16 1 0
BITMAP
0010
0018
0FD0
3060
6030
6030
C018
C018
C018
C018
C018
C018
E030
6030
3060
1FC0
ENDCHAR
STARTCHAR 01A1
ENCODING 417
SWIDTH 528 0
DWIDTH 11 0
BBX 10 10 1 0
BITMAP
18C0
66C0
4380
C300
C180
C180
C180
C100
6300
3E00
ENDCHAR
STARTCHAR 01AF
ENCODING 431
SWIDTH 768 0
DWIDTH 16 0
BBX 17 16 0 0
BITMAP
000180
000180
FC3E00
300800
300800
300800
300800
300800
300800
300800
300800
300800
300800
301000
181000
0FE000
ENDCHAR
STARTCHAR 01B0
ENCODING 432
SWIDTH 528 0
DWIDTH 11 0
BBX 10 10 1 0
BITMAP
00C0
C3C0
4380
4300
4300
4300
4300
4300
6700
7B80
ENDCHAR
STARTCHAR 01CD
ENCODING 461
SWIDTH 720 0
DWIDTH 15 0
BBX 13 18 1 0
BITMAP
0880
0500
0700
0000
0200
0200
0700
0700
0980
0980
1180
10C0
10C0
2F60
2060
4060
4030
E078
ENDCHAR
STARTCHAR 01CE
ENCODING 462
SWIDTH 432 0
DWIDTH 9 0
BBX 8 14 1 0
BITMAP
44
2C
38
00
38
4C
C6
C6
1E
66
C6
86
CE
F7
ENDCHAR
STARTCHAR 01CF
ENCODING 463
SWIDTH 336 0
DWIDTH 7 0
BBX 5 18 1 0
BITMAP
88
50
70
00
F8
70
60
60
60
60
60
60
60
60
60
60
60
70
ENDCHAR
STARTCHAR 01D0
ENCODING 464
SWIDTH 288 0
DWIDTH 6 0
BBX 5 14 0 0
BITMAP
88
48
30
00
10
70
30
30
30
30
30
30
30
30
ENDCHAR
STARTCHAR 01D1
ENCODING 465
SWIDTH 720 0
DWIDTH 15 0
BBX 13 18 1 0
BITMAP
0880
0500
0700
0000
0F80
3060
6030
6030
C018
C018
C018
C018
C018
C018
E030
6030
3060
1FC0
ENDCHAR
STARTCHAR 01D2
ENCODING 466
SWIDTH 480 0
DWIDTH 10 0
BBX 9 14 1 0
BITMAP
4200
3400
1C00
0000
1800
6600
4300
C300
C180
C180
C180
C100
6300
3E00
ENDCHAR
STARTCHAR 01D3
ENCODING 467
SWIDTH 720 0
DWIDTH 15 0
BBX 15 18 0 0
BITMAP
0440
0280
0380
0000
FC3E
3008
3008
3008
3008
3008
3008
3008
3008
3008
3008
3010
1810
0FE0
ENDCHAR
STARTCHAR 01D4
ENCODING 468
SWIDTH 480 0
DWIDTH 10 0
BBX 9 14 1 0
BITMAP
4200
3400
1C00
0000
0000
C300
4300
4300
4300
4300
4300
4300
6700
7B80
ENDCHAR
STARTCHAR 01D5
ENCODING 469
SWIDTH 720 0
DWIDTH 15 0
BBX 15 19 0 0
BITMAP
07C0
07C0
0000
06C0
0000
FC3E
3008
3008
3008
3008
3008
3008
3008
3008
3008
3008
3010
1810
0FE0
ENDCHAR
STARTCHAR 01D6
ENCODING 470
SWIDTH 480 0
DWIDTH 10 0
BBX 9 16 1 0
BITMAP
7E00
7E00
0000
2600
6600
0000
0000
C300
4300
4300
4300
4300
4300
4300
6700
7B80
ENDCHAR
STARTCHAR 01D7
ENCODING 471
SWIDTH 720 0
DWIDTH 15 0
BBX 15 19 0 0
BITMAP
0180
0100
0000
06C0
0000
FC3E
3008
3008
3008
3008
3008
3008
3008
3008
3008
3008
3010
1810
0FE0
ENDCHAR
STARTCHAR 01D8
ENCODING 472
SWIDTH 480 0
DWIDTH 10 0
BBX 9 17 1 0
BITMAP
0C00
0800
1000
0000
2600
6600
0000
0000
C300
4300
4300
4300
4300
4300
4300
6700
7B80
ENDCHAR
STARTCHAR 01D9
ENCODING 473
SWIDTH 720 0
DWIDTH 15 0
BBX 15 19 0 0
BITMAP
0440
0380
0000
06C0
0000
FC3E
3008
3008
3008
3008
3008
3008
3008
3008
3008
3008
3010
1810
0FE0
ENDCHAR
STARTCHAR 01DA
ENCODING 474
SWIDTH 480 0
DWIDTH 10 0
BBX 9 17 1 0
BITMAP
4200
3400
1C00
0000
2600
6600
0000
0000
C300
4300
4300
4300
4300
4300
4300
6700
7B80
ENDCHAR
STARTCHAR 01DB
ENCODING 475
SWIDTH 720 0
DWIDTH 15 0
BBX 15 19 0 0
BITMAP
0300
0100
0000
06C0
0000
FC3E
3008
3008
3008
3008
3008
3008
3008
3008
3008
3008
3010
1810
0FE0
ENDCHAR
STARTCHAR 01DC
ENCODING 476
SWIDTH 480 0
DWIDTH 10 0
BBX 9 17 1 0
BITMAP
3000
1800
0800
0000
2600
6600
0000
0000
C300
4300
4300
4300
4300
4300
4300
6700
7B80
ENDCHAR
STARTCHAR 01FA
ENCODING 506
SWIDTH 720 0
DWIDTH 15 0
BBX 13 21 1 0
BITMAP
0300
0300
0200
0400
0700
0900
0500
0200
0200
0700
0700
0980
0980
1180
10C0
10C0
2F60
2060
4060
4030
E078
ENDCHAR
STARTCHAR 01FB
ENCODING 507
SWIDTH 432 0
DWIDTH 9 0
BBX 8 19 1 0
BITMAP
0C
18
10
00
00
38
44
28
10
38
4C
C6
C6
1E
66
C6
86
CE
F7
ENDCHAR
STARTCHAR 01FC
ENCODING 508
SWIDTH 912 0
DWIDTH 19 0
BBX 18 19 0 0
BITMAP
006000
006000
004000
008000
000000
07FF80
01C080
01C080
02C000
02C100
04C100
04FF00
08C100
0FC100
10C000
20C000
20C040
60C080
E1FF80
ENDCHAR
STARTCHAR 01FD
ENCODING 509
SWIDTH 672 0
DWIDTH 14 0
BBX 12 14 1 0
BITMAP
0300
0600
0400
0000
38C0
4F20
C630
C430
1FC0
6400
C600
8610
C730
FBE0
ENDCHAR
STARTCHAR 01FE
ENCODING 510
SWIDTH 720 0
DWIDTH 15 0
BBX 13 19 1 0
BITMAP
0380
0300
0200
0000
0000
0F90
3070
6030
6070
C098
C118
C118
C218
C418
C818
F030
6030
3060
5FC0
ENDCHAR
STARTCHAR 01FF
ENCODING 511
SWIDTH 480 0
DWIDTH 10 0
BBX 9 15 1 -1
BITMAP
0C00
0800
1000
0000
1880
6700
4300
C700
C980
C980
D180
E100
6300
B600
0800
ENDCHAR
STARTCHAR 0218
ENCODING 536
SWIDTH 576 0
DWIDTH 12 0
BBX 9 19 1 -5
BITMAP
3E80
4180
C080
C080
E080
7000
3C00
1F00
0780
0180
8180
8080
C180
F700
0800
0C00
0C00
0400
0800
ENDCHAR
STARTCHAR 0219
ENCODING 537
SWIDTH 384 0
DWIDTH 8 0
BBX 6 15 1 -5
BITMAP
34
4C
84
C4
F0
38
0C
84
84
C8
30
30
30
10
20
ENDCHAR
STARTCHAR 021A
ENCODING 538
SWIDTH 624 0
DWIDTH 13 0
BBX 11 19 1 -5
BITMAP
FFE0
8C20
8C20
0C00
0C00
0C00
0C00
0C00
0C00
0C00
0C00
0C00
0C00
0E00
1000
0C00
0E00
0400
0800
ENDCHAR
STARTCHAR 021B
ENCODING 539
SWIDTH 288 0
DWIDTH 6 0
BBX 5 17 1 -5
BITMAP
40
40
C0
70
40
40
40
40
40
40
68
70
00
60
60
20
40
ENDCHAR
STARTCHAR 0259
ENCODING 601
SWIDTH 432 0
DWIDTH 9 0
BBX 8 10 1 0
BITMAP
10
7C
8E
86
03
03
FF
C2
C2
7C
ENDCHAR
STARTCHAR 02C6
ENCODING 710
SWIDTH 336 0
DWIDTH 7 0
BBX 5 3 1 11
BITMAP
70
50
88
ENDCHAR
STARTCHAR 02C7
ENCODING 711
SWIDTH 336 0
DWIDTH 7 0
BBX 5 3 1 11
BITMAP
88
50
70
ENDCHAR
STARTCHAR 02C9
ENCODING 713
SWIDTH 336 0
DWIDTH 7 0
BBX 7 2 0 12
BITMAP
FE
FE
ENDCHAR
STARTCHAR 02D8
ENCODING 728
SWIDTH 336 0
DWIDTH 7 0
BBX 5 2 1 12
BITMAP
F8
70
ENDCHAR
STARTCHAR 02D9
ENCODING 729
SWIDTH 336 0
DWIDTH 7 0
BBX 3 3 2 11
BITMAP
40
E0
40
ENDCHAR
STARTCHAR 02DA
ENCODING 730
SWIDTH 336 0
DWIDTH 7 0
BBX 3 3 2 11
BITMAP
E0
A0
E0
ENDCHAR
STARTCHAR 02DB
ENCODING 731
SWIDTH 336 0
DWIDTH 7 0
BBX 4 4 2 -4
BITMAP
80
80
C0
70
ENDCHAR
STARTCHAR 02DC
ENCODING 732
SWIDTH 336 0
DWIDTH 7 0
BBX 7 3 0 11
BITMAP
62
BA
8C
ENDCHAR
STARTCHAR 02DD
ENCODING 733
SWIDTH 336 0
DWIDTH 7 0
BBX 5 3 1 11
BITMAP
C8
98
90
ENDCHAR
STARTCHAR 0300
ENCODING 768
SWIDTH 0 0
DWIDTH 0 0
BBX 3 3 -5 15
BITMAP
C0
60
20
ENDCHAR
STARTCHAR 0301
ENCODING 769
SWIDTH 0 0
DWIDTH 0 0
BBX 3 4 -4 15
BITMAP
60
40
80
80
ENDCHAR
STARTCHAR 0303
ENCODING 771
SWIDTH 0 0
DWIDTH 0 0
BBX 7 3 -8 15
BITMAP
62
BC
9C
ENDCHAR
STARTCHAR 0309
ENCODING 777
SWIDTH 0 0
DWIDTH 0 0
BBX 3 3 -4 15
BITMAP
40
A0
40
ENDCHAR
STARTCHAR 0323
ENCODING 803
SWIDTH 0 0
DWIDTH 0 0
BBX 2 2 -9 -3
BITMAP
C0
C0
ENDCHAR
STARTCHAR 037E
ENCODING 894
SWIDTH 288 0
DWIDTH 6 0
BBX 3 13 1 -3
BITMAP
40
60
40
00
00
00
00
00
60
E0
20
20
40
ENDCHAR
STARTCHAR 0384
ENCODING 900
SWIDTH 336 0
DWIDTH 7 0
BBX 3 3 2 11
BITMAP
60
40
80
ENDCHAR
STARTCHAR 0385
ENCODING 901
SWIDTH 336 0
DWIDTH 7 0
BBX 7 3 0 11
BITMAP
18
D6
E6
ENDCHAR
STARTCHAR 0386
ENCODING 902
SWIDTH 720 0
DWIDTH 15 0
BBX 13 14 1 0
BITMAP
3200
6200
4700
0700
0980
0980
1180
10C0
10C0
2F60
2060
4060
4030
E078
ENDCHAR
STARTCHAR 0387
ENCODING 903
SWIDTH 288 0
DWIDTH 6 0
BBX 2 3 2 7
BITMAP
80
C0
C0
ENDCHAR
STARTCHAR 0388
ENCODING 904
SWIDTH 672 0
DWIDTH 14 0
BBX 16 14 -2 0
BITMAP
6FFE
4302
8302
0300
0304
0304
03FC
0304
0304
0300
0300
0301
0302
07FE
ENDCHAR
STARTCHAR 0389
ENCODING 905
SWIDTH 816 0
DWIDTH 17 0
BBX 18 14 -2 0
BITMAP
6FCFC0
430380
830300
030300
030300
030300
030300
03FF00
030300
030300
030300
030300
030300
078780
ENDCHAR
STARTCHAR 038A
ENCODING 906
SWIDTH 432 0
DWIDTH 9 0
BBX 10 14 -2 0
BITMAP
6FC0
4300
8300
0300
0300
0300
0300
0300
0300
0300
0300
0300
0300
0780
ENDCHAR
STARTCHAR 038C
ENCODING 908
SWIDTH 720 0
DWIDTH 15 0
BBX 15 14 -1 0
BITMAP
63E0
4C18
980C
180C
3006
3006
3006
3006
3006
3006
380C
180C
0C18
07F0
ENDCHAR
STARTCHAR 038E
ENCODING 910
SWIDTH 816 0
DWIDTH 17 0
BBX 19 14 -2 0
BITMAP
6FC3E0
430180
818100
01C200
00C200
006400
006800
003800
003000
003000
003000
003000
003000
007800
ENDCHAR
STARTCHAR 038F
ENCODING 911
SWIDTH 720 0
DWIDTH 15 0
BBX 16 14 -1 0
BITMAP
63F0
4C18
980C
1806
3806
3806
3806
3806
1806
180C
0C18
4221
3E3F
3E3F
ENDCHAR
STARTCHAR 0390
ENCODING 912
SWIDTH 288 0
DWIDTH 6 0
BBX 8 14 -1 0
BITMAP
0C
5A
D7
00
08
78
18
18
18
18
18
18
1A
1C
ENDCHAR
STARTCHAR 0391
ENCODING 913
SWIDTH 720 0
DWIDTH 15 0
BBX 13 14 1 0
BITMAP
0200
0200
0700
0700
0980
0980
1180
10C0
10C0
2F60
2060
4060
4030
E078
ENDCHAR
STARTCHAR 0392
ENCODING 914
SWIDTH 672 0
DWIDTH 14 0
BBX 13 14 0 0
BITMAP
FF80
3060
3030
3030
3030
3070
39E0
36E0
3030
3038
3038
3030
3070
7FE0
ENDCHAR
STARTCHAR 0393
ENCODING 915
SWIDTH 576 0
DWIDTH 12 0
BBX 11 14 0 0
BITMAP
FFE0
3020
3020
3000
3000
3000
3000
3000
3000
3000
3000
3000
3000
7800
ENDCHAR
STARTCHAR 0394
ENCODING 916
SWIDTH 624 0
DWIDTH 13 0
BBX 12 14 1 0
BITMAP
0400
0600
0600
0B00
0B00
1300
1180
2180
20C0
40C0
40C0
4060
8060
FFF0
ENDCHAR
STARTCHAR 0395
ENCODING 917
SWIDTH 624 0
DWIDTH 13 0
BBX 12 14 0 0
BITMAP
FFE0
3020
3020
3000
3000
3040
3FC0
3040
3040
3000
3000
3010
3030
7FE0
ENDCHAR
STARTCHAR 0396
ENCODING 918
SWIDTH 624 0
DWIDTH 13 0
BBX 12 14 0 0
BITMAP
3FF0
2060
40C0
41C0
0180
0300
0700
0600
0C00
1800
3800
3010
6010
FFF0
ENDCHAR
STARTCHAR 0397
ENCODING 919
SWIDTH 720 0
DWIDTH 15 0
BBX 15 14 0 0
BITMAP
FC7E
3018
3018
3018
3018
3018
3018
3FF8
3018
3018
3018
3018
3018
783C
ENDCHAR
STARTCHAR 0398
ENCODING 920
SWIDTH 720 0
DWIDTH 15 0
BBX 13 14 1 0
BITMAP
0F80
3060
6030
6030
C018
C898
CF98
CF98
C898
C018
6018
6030
3060
1FC0
ENDCHAR
STARTCHAR 0399
ENCODING 921
SWIDTH 336 0
DWIDTH 7 0
BBX 5 14 1 0
BITMAP
F8
70
60
60
60
60
60
60
60
60
60
60
60
70
ENDCHAR
STARTCHAR 039A
ENCODING 922
SWIDTH 720 0
DWIDTH 15 0
BBX 14 14 0 0
BITMAP
FCF8
3020
3040
3080
3100
3200
3400
3E00
3300
3180
30C0
3060
3038
787C
ENDCHAR
STARTCHAR 039B
ENCODING 923
SWIDTH 720 0
DWIDTH 15 0
BBX 13 14 1 0
BITMAP
0200
0200
0700
0700
0B80
0980
1180
10C0
10C0
2060
2060
4070
4030
E078
ENDCHAR
STARTCHAR 039C
ENCODING 924
SWIDTH 912 0
DWIDTH 19 0
BBX 18 14 0 0
BITMAP
F003C0
380300
380700
2C0700
2C0B00
260B00
261300
231300
232300
23A300
21C300
21C300
20C300
708780
ENDCHAR
STARTCHAR 039D
ENCODING 925
SWIDTH 720 0
DWIDTH 15 0
BBX 15 14 0 0
BITMAP
F03E
3808
3808
2C08
2E08
2708
2388
2188
20C8
2068
2078
2038
2018
7008
ENDCHAR
STARTCHAR 039E
ENCODING 926
SWIDTH 624 0
DWIDTH 13 0
BBX 12 14 1 0
BITMAP
FFE0
FFE0
8020
8000
0000
2000
3F80
3F80
2080
0000
0010
8010
FFF0
FFF0
ENDCHAR
STARTCHAR 039F
ENCODING 927
SWIDTH 720 0
DWIDTH 15 0
BBX 13 14 1 0
BITMAP
0F80
3060
6030
6030
C018
C018
C018
C018
C018
C018
E030
6030
3060
1FC0
ENDCHAR
STARTCHAR 03A0
ENCODING 928
SWIDTH 720 0
DWIDTH 15 0
BBX 15 14 0 0
BITMAP
FFFE
3018
3018
3018
3018
3018
3018
3018
3018
3018
3018
3018
3018
783C
ENDCHAR
STARTCHAR 03A1
ENCODING 929
SWIDTH 576 0
DWIDTH 12 0
BBX 11 14 0 0
BITMAP
FF00
31C0
30E0
30E0
3060
30E0
30C0
3F80
3000
3000
3000
3000
3000
7800
ENDCHAR
STARTCHAR 03A3
ENCODING 931
SWIDTH 576 0
DWIDTH 12 0
BBX 11 14 0 0
BITMAP
FFE0
7020
3020
1800
1C00
0E00
0600
0200
0400
0800
1020
2020
7FE0
FFE0
ENDCHAR
STARTCHAR 03A4
ENCODING 932
SWIDTH 624 0
DWIDTH 13 0
BBX 11 14 1 0
BITMAP
FFE0
8C20
8C20
0C00
0C00
0C00
0C00
0C00
0C00
0C00
0C00
0C00
0C00
1E00
ENDCHAR
STARTCHAR 03A5
ENCODING 933
SWIDTH 720 0
DWIDTH 15 0
BBX 15 14 0 0
BITMAP
FC3E
3818
1810
1C20
0C20
0640
0780
0380
0300
0300
0300
0300
0300
0380
ENDCHAR
STARTCHAR 03A6
ENCODING 934
SWIDTH 720 0
DWIDTH 15 0
BBX 13 14 1 0
BITMAP
0FC0
0700
1FC0
6330
C318
C318
C318
C318
C318
C318
6330
1FE0
0300
0780
ENDCHAR
STARTCHAR 03A7
ENCODING 935
SWIDTH 720 0
DWIDTH 15 0
BBX 14 14 0 0
BITMAP
FE3C
1810
0C30
0E20
0640
0380
0380
0180
02C0
04E0
0860
1030
3038
703C
ENDCHAR
STARTCHAR 03A8
ENCODING 936
SWIDTH 720 0
DWIDTH 15 0
BBX 14 14 1 0
BITMAP
8FCC
C318
C318
C318
C318
6318
6330
1FE0
0300
0300
0300
0300
0300
0780
ENDCHAR
STARTCHAR 03A9
ENCODING 937
SWIDTH 720 0
DWIDTH 15 0
BBX 14 14 1 0
BITMAP
0FC0
3060
6030
6018
E018
E018
E018
E018
6018
6030
3060
8884
F8FC
F8FC
ENDCHAR
STARTCHAR 03AA
ENCODING 938
SWIDTH 336 0
DWIDTH 7 0
BBX 5 17 1 0
BITMAP
D8
98
00
F8
70
60
60
60
60
60
60
60
60
60
60
60
70
ENDCHAR
STARTCHAR 03AB
ENCODING 939
SWIDTH 720 0
DWIDTH 15 0
BBX 15 17 0 0
BITMAP
06E0
0640
0000
FC3E
3818
1810
1C20
0C20
0640
0780
0380
0300
0300
0300
0300
0300
0380
ENDCHAR
STARTCHAR 03AC
ENCODING 940
SWIDTH 528 0
DWIDTH 11 0
BBX 10 14 1 0
BITMAP
0C00
0800
1000
0000
1000
6980
C500
C300
C300
C300
C200
C600
4740
7D80
ENDCHAR
STARTCHAR 03AD
ENCODING 941
SWIDTH 432 0
DWIDTH 9 0
BBX 7 14 1 0
BITMAP
0C
18
10
00
18
66
C6
C0
40
78
C0
C2
C6
7E
ENDCHAR
STARTCHAR 03AE
ENCODING 942
SWIDTH 528 0
DWIDTH 11 0
BBX 10 18 0 -4
BITMAP
0600
0400
0800
0000
6300
B780
B880
3080
3080
3080
3080
3080
3080
3080
0080
0080
0080
00C0
ENDCHAR
STARTCHAR 03AF
ENCODING 943
SWIDTH 288 0
DWIDTH 6 0
BBX 6 14 0 0
BITMAP
18
30
20
00
10
F0
30
30
30
30
30
30
34
38
ENDCHAR
STARTCHAR 03B0
ENCODING 944
SWIDTH 480 0
DWIDTH 10 0
BBX 10 14 0 0
BITMAP
0600
2580
7980
0000
6000
B300
3180
3080
3080
30C0
3080
3180
3100
1E00
ENDCHAR
STARTCHAR 03B1
ENCODING 945
SWIDTH 528 0
DWIDTH 11 0
BBX 10 10 1 0
BITMAP
1000
6980
C500
C300
C300
C300
C200
C600
4740
7D80
ENDCHAR
STARTCHAR 03B2
ENCODING 946
SWIDTH 528 0
DWIDTH 11 0
BBX 9 18 1 -4
BITMAP
3E00
4300
4300
4300
C300
CA00
C600
C300
C180
C180
C180
C180
C300
F600
C800
C000
C000
C000
ENDCHAR
STARTCHAR 03B3
ENCODING 947
SWIDTH 432 0
DWIDTH 9 0
BBX 9 13 0 -4
BITMAP
F180
9300
1300
1200
0A00
0C00
0C00
0800
0800
0800
0800
1800
1800
ENDCHAR
STARTCHAR 03B4
ENCODING 948
SWIDTH 480 0
DWIDTH 10 0
BBX 8 14 1 0
BITMAP
7E
46
40
20
18
1C
66
C3
C3
C3
C3
C3
C2
7C
ENDCHAR
STARTCHAR 03B5
ENCODING 949
SWIDTH 432 0
DWIDTH 9 0
BBX 7 10 1 0
BITMAP
18
66
C6
C0
40
78
C0
C2
C6
7E
ENDCHAR
STARTCHAR 03B6
ENCODING 950
SWIDTH 432 0
DWIDTH 9 0
BBX 7 18 1 -4
BITMAP
66
4C
30
20
40
80
80
80
80
80
80
80
FC
7E
02
02
02
1E
ENDCHAR
STARTCHAR 03B7
ENCODING 951
SWIDTH 528 0
DWIDTH 11 0
BBX 10 14 0 -4
BITMAP
6300
B780
B880
3080
3080
3080
3080
3080
3080
3080
0080
0080
0080
00C0
ENDCHAR
STARTCHAR 03B8
ENCODING 952
SWIDTH 480 0
DWIDTH 10 0
BBX 8 14 1 0
BITMAP
3C
42
42
C3
C3
C3
C3
FF
C3
C3
C3
42
42
3C
ENDCHAR
STARTCHAR 03B9
ENCODING 953
SWIDTH 288 0
DWIDTH 6 0
BBX 6 10 0 0
BITMAP
10
F0
30
30
30
30
30
30
34
38
ENDCHAR
STARTCHAR 03BA
ENCODING 954
SWIDTH 528 0
DWIDTH 11 0
BBX 10 10 0 0
BITMAP
00C0
E1C0
2200
2400
2800
3C00
2600
2600
2300
21C0
ENDCHAR
STARTCHAR 03BB
ENCODING 955
SWIDTH 480 0
DWIDTH 10 0
BBX 10 14 0 0
BITMAP
7000
5800
0800
0800
0800
0C00
0C00
1C00
1C00
3200
3200
6200
6340
C1C0
ENDCHAR
STARTCHAR 03BC
ENCODING 956
SWIDTH 528 0
DWIDTH 11 0
BBX 10 13 1 -4
BITMAP
4300
4300
4300
4300
4300
4300
4300
6700
79C0
4000
4000
C000
C000
ENDCHAR
STARTCHAR 03BD
ENCODING 957
SWIDTH 432 0
DWIDTH 9 0
BBX 9 10 0 0
BITMAP
2080
E180
6180
3100
3100
1200
1A00
1C00
0C00
0800
ENDCHAR
STARTCHAR 03BE
ENCODING 958
SWIDTH 432 0
DWIDTH 9 0
BBX 8 18 1 -4
BITMAP
44
5C
20
40
40
2E
30
40
80
80
80
80
FE
7F
01
01
01
0E
ENDCHAR
STARTCHAR 03BF
ENCODING 959
SWIDTH 480 0
DWIDTH 10 0
BBX 9 10 1 0
BITMAP
1800
6600
4300
C300
C180
C180
C180
C100
6300
3E00
ENDCHAR
STARTCHAR 03C0
ENCODING 960
SWIDTH 528 0
DWIDTH 11 0
BBX 10 9 0 0
BITMAP
7FC0
9300
9300
1300
1300
3200
3300
7340
6380
ENDCHAR
STARTCHAR 03C1
ENCODING 961
SWIDTH 480 0
DWIDTH 10 0
BBX 9 14 1 -4
BITMAP
0C00
3E00
4300
C180
C180
C180
C100
C100
C200
E400
D800
C000
C000
C000
ENDCHAR
STARTCHAR 03C2
ENCODING 962
SWIDTH 384 0
DWIDTH 8 0
BBX 7 14 1 -4
BITMAP
0C
3E
40
80
80
80
80
80
FC
7E
02
02
02
1C
ENDCHAR
STARTCHAR 03C3
ENCODING 963
SWIDTH 528 0
DWIDTH 11 0
BBX 10 9 1 0
BITMAP
7FC0
6400
C300
C100
8180
C180
C180
6300
3E00
ENDCHAR
STARTCHAR 03C4
ENCODING 964
SWIDTH 384 0
DWIDTH 8 0
BBX 8 9 0 0
BITMAP
7F
88
98
18
18
18
18
1A
1E
ENDCHAR
STARTCHAR 03C5
ENCODING 965
SWIDTH 480 0
DWIDTH 10 0
BBX 10 10 0 0
BITMAP
6000
B300
3180
3080
3080
30C0
3080
3180
3100
1E00
ENDCHAR
STARTCHAR 03C6
ENCODING 966
SWIDTH 576 0
DWIDTH 12 0
BBX 10 14 1 -4
BITMAP
1200
6780
CCC0
C8C0
C840
C840
C840
C8C0
4880
3B00
0C00
0800
0800
0800
ENDCHAR
STARTCHAR 03C7
ENCODING 967
SWIDTH 432 0
DWIDTH 9 0
BBX 10 13 0 -4
BITMAP
7180
9300
9300
0E00
0E00
0C00
0C00
1C00
1C00
3400
3440
6240
6380
ENDCHAR
STARTCHAR 03C8
ENCODING 968
SWIDTH 624 0
DWIDTH 13 0
BBX 11 13 1 -4
BITMAP
C460
4460
6440
64C0
64C0
64C0
64C0
2480
1500
0E00
0400
0400
0400
ENDCHAR
STARTCHAR 03C9
ENCODING 969
SWIDTH 672 0
DWIDTH 14 0
BBX 12 10 1 0
BITMAP
0900
70C0
4420
C630
C630
C630
C430
C430
C620
79E0
ENDCHAR
STARTCHAR 03CA
ENCODING 970
SWIDTH 288 0
DWIDTH 6 0
BBX 6 13 0 0
BITMAP
C8
DC
00
10
F0
30
30
30
30
30
30
34
38
ENDCHAR
STARTCHAR 03CB
ENCODING 971
SWIDTH 480 0
DWIDTH 10 0
BBX 10 13 0 0
BITMAP
3300
3300
0000
6000
B300
3180
3080
3080
30C0
3080
3180
3100
1E00
ENDCHAR
STARTCHAR 03CC
ENCODING 972
SWIDTH 480 0
DWIDTH 10 0
BBX 9 14 1 0
BITMAP
0C00
0800
1000
0000
1800
6600
4300
C300
C180
C180
C180
C100
6300
3E00
ENDCHAR
STARTCHAR 03CD
ENCODING 973
SWIDTH 480 0
DWIDTH 10 0
BBX 10 14 0 0
BITMAP
0600
0400
0800
0000
6000
B300
3180
3080
3080
30C0
3080
3180
3100
1E00
ENDCHAR
STARTCHAR 03CE
ENCODING 974
SWIDTH 672 0
DWIDTH 14 0
BBX 12 14 1 0
BITMAP
0300
0600
0400
0000
0900
70C0
4420
C630
C630
C630
C430
C430
C620
79E0
ENDCHAR
STARTCHAR 0401
ENCODING 1025
SWIDTH 624 0
DWIDTH 13 0
BBX 12 17 0 0
BITMAP
0D80
0980
0000
FFE0
3020
3020
3000
3000
3040
3FC0
3040
3040
3000
3000
3010
3030
7FE0
ENDCHAR
STARTCHAR 0402
ENCODING 1026
SWIDTH 768 0
DWIDTH 16 0
BBX 14 14 1 0
BITMAP
FFC0
8C40
8C00
0C00
0C60
0DF8
0E18
0C1C
0C1C
0C0C
0C0C
0C0C
0C18
1E30
ENDCHAR
STARTCHAR 0403
ENCODING 1027
SWIDTH 576 0
DWIDTH 12 0
BBX 11 19 0 0
BITMAP
0300
0200
0400
0400
0000
FFE0
3020
3020
3000
3000
3000
3000
3000
3000
3000
3000
3000
3000
7800
ENDCHAR
STARTCHAR 0404
ENCODING 1028
SWIDTH 672 0
DWIDTH 14 0
BBX 12 14 1 0
BITMAP
0FE0
3060
6020
6010
C010
C000
C000
FE00
C000
C000
E000
6010
3020
1FC0
ENDCHAR
STARTCHAR 0405
ENCODING 1029
SWIDTH 576 0
DWIDTH 12 0
BBX 9 14 1 0
BITMAP
3E80
4180
C080
C080
E080
7000
3C00
1F00
0780
0180
8180
8080
C180
FF00
ENDCHAR
STARTCHAR 0406
ENCODING 1030
SWIDTH 336 0
DWIDTH 7 0
BBX 5 14 1 0
BITMAP
F8
70
60
60
60
60
60
60
60
60
60
60
60
70
ENDCHAR
STARTCHAR 0407
ENCODING 1031
SWIDTH 336 0
DWIDTH 7 0
BBX 5 17 1 0
BITMAP
D8
98
00
F8
70
60
60
60
60
60
60
60
60
60
60
60
70
ENDCHAR
STARTCHAR 0408
ENCODING 1032
SWIDTH 384 0
DWIDTH 8 0
BBX 8 14 0 0
BITMAP
3F
0C
0C
0C
0C
0C
0C
0C
0C
0C
0C
0C
C8
78
ENDCHAR
STARTCHAR 0409
ENCODING 1033
SWIDTH 864 0
DWIDTH 18 0
BBX 17 14 0 0
BITMAP
1FF800
086000
086000
086000
086000
086000
086000
087F00
086180
086180
086180
086180
D06380
F0FE00
ENDCHAR
STARTCHAR 040A
ENCODING 1034
SWIDTH 864 0
DWIDTH 18 0
BBX 17 14 0 0
BITMAP
FDF800
306000
306000
306000
306000
306000
306000
3FFF00
306180
306180
306180
306180
306380
78FE00
ENDCHAR
STARTCHAR 040B
ENCODING 1035
SWIDTH 720 0
DWIDTH 15 0
BBX 13 14 1 0
BITMAP
FFC0
8C40
8C40
0C00
0C40
0DF0
0E30
0C30
0C10
0C18
0C18
0C18
0C38
1E38
ENDCHAR
STARTCHAR 040C
ENCODING 1036
SWIDTH 672 0
DWIDTH 14 0
BBX 13 18 0 0
BITMAP
0180
0300
0200
0000
FC38
3058
3040
3080
3080
3100
3600
3F00
3380
3180
30C0
3060
3070
7838
ENDCHAR
STARTCHAR 040D
ENCODING 1037
SWIDTH 720 0
DWIDTH 15 0
BBX 15 18 0 0
BITMAP
0600
0300
0100
0000
FC7E
3018
3018
3038
3058
3098
3118
3118
3218
3418
3818
3818
3018
783C
ENDCHAR
STARTCHAR 040E
ENCODING 1038
SWIDTH 720 0
DWIDTH 15 0
BBX 14 18 0 0
BITMAP
0820
0C60
07C0
0000
FC3C
3018
1810
1810
0C20
0C20
0640
0740
0340
0180
0180
0100
1900
1E00
ENDCHAR
STARTCHAR 040F
ENCODING 1039
SWIDTH 720 0
DWIDTH 15 0
BBX 15 18 0 -4
BITMAP
FC7E
3018
3018
3018
3018
3018
3018
3018
3018
3018
3018
3018
3018
7FFC
0380
0100
0100
0100
ENDCHAR
STARTCHAR 0410
ENCODING 1040
SWIDTH 720 0
DWIDTH 15 0
BBX 13 14 1 0
BITMAP
0200
0200
0700
0700
0980
0980
1180
10C0
10C0
2F60
2060
4060
4030
E078
ENDCHAR
STARTCHAR 0411
ENCODING 1041
SWIDTH 576 0
DWIDTH 12 0
BBX 11 14 0 0
BITMAP
FFC0
3040
3040
3000
3000
3000
3E00
31C0
3060
3060
3060
3060
30C0
7F80
ENDCHAR
STARTCHAR 0412
ENCODING 1042
SWIDTH 672 0
DWIDTH 14 0
BBX 13 14 0 0
BITMAP
FF80
3060
3030
3030
3030
3070
39E0
36E0
3030
3038
3038
3030
3070
7FE0
ENDCHAR
STARTCHAR 0413
ENCODING 1043
SWIDTH 576 0
DWIDTH 12 0
BBX 11 14 0 0
BITMAP
FFE0
3020
3020
3000
3000
3000
3000
3000
3000
3000
3000
3000
3000
7800
ENDCHAR
STARTCHAR 0414
ENCODING 1044
SWIDTH 672 0
DWIDTH 14 0
BBX 14 18 0 -4
BITMAP
3FFC
0430
0430
0430
0430
0830
0830
0830
0830
0830
1030
1030
2030
7FF8
E01C
C00C
8004
8004
ENDCHAR
STARTCHAR 0415
ENCODING 1045
SWIDTH 624 0
DWIDTH 13 0
BBX 12 14 0 0
BITMAP
FFE0
3020
3020
3000
3000
3040
3FC0
3040
3040
3000
3000
3010
3030
7FE0
ENDCHAR
STARTCHAR 0416
ENCODING 1046
SWIDTH 912 0
DWIDTH 19 0
BBX 18 14 0 0
BITMAP
73F1C0
F0C3C0
08C200
08C400
04C400
04C400
02C800
03F800
06CC00
0CC400
0CC600
18C300
30C300
71E1C0
ENDCHAR
STARTCHAR 0417
ENCODING 1047
SWIDTH 480 0
DWIDTH 10 0
BBX 9 14 1 0
BITMAP
BE00
C300
8300
0300
0300
0600
3C00
0600
0300
0300
0380
0300
8300
7E00
ENDCHAR
STARTCHAR 0418
ENCODING 1048
SWIDTH 720 0
DWIDTH 15 0
BBX 15 14 0 0
BITMAP
FC7E
3018
3018
3038
3058
3098
3118
3118
3218
3418
3818
3818
3018
783C
ENDCHAR
STARTCHAR 0419
ENCODING 1049
SWIDTH 720 0
DWIDTH 15 0
BBX 15 18 0 0
BITMAP
0820
0C60
07C0
0000
FC7E
3018
3018
3038
3058
3098
3118
3118
3218
3418
3818
3818
3018
783C
ENDCHAR
STARTCHAR 041A
ENCODING 1050
SWIDTH 672 0
DWIDTH 14 0
BBX 13 14 0 0
BITMAP
FC38
3058
3040
3080
3080
3100
3600
3F00
3380
3180
30C0
3060
3070
7838
ENDCHAR
STARTCHAR 041B
ENCODING 1051
SWIDTH 672 0
DWIDTH 14 0
BBX 14 14 0 0
BITMAP
1FFC
0430
0430
0430
0430
0430
0430
0830
0830
0830
0830
0830
D030
F078
ENDCHAR
STARTCHAR 041C
ENCODING 1052
SWIDTH 912 0
DWIDTH 19 0
BBX 18 14 0 0
BITMAP
F003C0
380300
380700
2C0700
2C0B00
260B00
261300
231300
232300
23A300
21C300
21C300
20C300
708780
ENDCHAR
STARTCHAR 041D
ENCODING 1053
SWIDTH 720 0
DWIDTH 15 0
BBX 15 14 0 0
BITMAP
FC7E
3018
3018
3018
3018
3018
3018
3FF8
3018
3018
3018
3018
3018
783C
ENDCHAR
STARTCHAR 041E
ENCODING 1054
SWIDTH 720 0
DWIDTH 15 0
BBX 13 14 1 0
BITMAP
0F80
3060
6030
6030
C018
C018
C018
C018
C018
C018
E030
6030
3060
1FC0
ENDCHAR
STARTCHAR 041F
ENCODING 1055
SWIDTH 720 0
DWIDTH 15 0
BBX 15 14 0 0
BITMAP
FFFE
3018
3018
3018
3018
3018
3018
3018
3018
3018
3018
3018
3018
783C
ENDCHAR
STARTCHAR 0420
ENCODING 1056
SWIDTH 576 0
DWIDTH 12 0
BBX 11 14 0 0
BITMAP
FF00
31C0
30E0
30E0
3060
30E0
30C0
3F80
3000
3000
3000
3000
3000
7800
ENDCHAR
STARTCHAR 0421
ENCODING 1057
SWIDTH 672 0
DWIDTH 14 0
BBX 12 14 1 0
BITMAP
0F90
3070
6010
6010
C000
C000
C000
C000
C000
C000
E000
6010
3020
1FC0
ENDCHAR
STARTCHAR 0422
ENCODING 1058
SWIDTH 624 0
DWIDTH 13 0
BBX 11 14 1 0
BITMAP
FFE0
8C20
8C20
0C00
0C00
0C00
0C00
0C00
0C00
0C00
0C00
0C00
0C00
1E00
ENDCHAR
STARTCHAR 0423
ENCODING 1059
SWIDTH 720 0
DWIDTH 15 0
BBX 14 14 0 0
BITMAP
FC3C
3018
1810
1810
0C20
0C20
0640
0740
0340
0180
0180
0100
1900
1E00
ENDCHAR
STARTCHAR 0424
ENCODING 1060
SWIDTH 768 0
DWIDTH 16 0
BBX 15 14 1 0
BITMAP
0FC0
0300
1FE0
7318
C30C
C30C
C306
C306
C30E
C30C
6318
1FF0
0300
0780
ENDCHAR
STARTCHAR 0425
ENCODING 1061
SWIDTH 720 0
DWIDTH 15 0
BBX 14 14 0 0
BITMAP
FE3C
1810
0C30
0E20
0640
0380
0380
0180
02C0
04E0
0860
1030
3038
703C
ENDCHAR
STARTCHAR 0426
ENCODING 1062
SWIDTH 720 0
DWIDTH 15 0
BBX 15 18 0 -4
BITMAP
FC7E
3018
3018
3018
3018
3018
3018
3018
3018
3018
3018
3018
3018
7FF8
000E
0006
0002
0002
ENDCHAR
STARTCHAR 0427
ENCODING 1063
SWIDTH 672 0
DWIDTH 14 0
BBX 13 14 0 0
BITMAP
FDF8
3060
3060
3060
3060
3060
3060
38E0
1F60
0060
0060
0060
0060
00F0
ENDCHAR
STARTCHAR 0428
ENCODING 1064
SWIDTH 1008 0
DWIDTH 21 0
BBX 19 14 1 0
BITMAP
F9F3E0
60E0C0
6040C0
6040C0
6040C0
6040C0
6040C0
6040C0
6040C0
6040C0
6040C0
6040C0
60E0C0
FFFFC0
ENDCHAR
STARTCHAR 0429
ENCODING 1065
SWIDTH 1008 0
DWIDTH 21 0
BBX 19 17 1 -4
BITMAP
F9F3E0
60E0C0
6040C0
6040C0
6040C0
6040C0
6040C0
6040C0
6040C0
6040C0
6040C0
6040C0
60E0C0
FFFFC0
000060
000020
000020
ENDCHAR
STARTCHAR 042A
ENCODING 1066
SWIDTH 720 0
DWIDTH 15 0
BBX 13 14 1 0
BITMAP
FF00
8C00
0C00
0C00
0C00
0C00
0F80
0C70
0C38
0C18
0C18
0C38
0C30
1FE0
ENDCHAR
STARTCHAR 042B
ENCODING 1067
SWIDTH 864 0
DWIDTH 18 0
BBX 18 14 0 0
BITMAP
FC0FC0
300300
300300
300300
300300
300300
3E0300
31C300
306300
306300
306300
306300
30C300
7F8780
ENDCHAR
STARTCHAR 042C
ENCODING 1068
SWIDTH 576 0
DWIDTH 12 0
BBX 11 14 0 0
BITMAP
FC00
3000
3000
3000
3000
3000
3E00
31C0
3060
3060
3060
3060
30C0
7F80
ENDCHAR
STARTCHAR 042D
ENCODING 1069
SWIDTH 672 0
DWIDTH 14 0
BBX 12 14 1 0
BITMAP
BF00
C080
80C0
8060
8070
0030
0030
07F0
0030
0070
0060
80E0
80C0
7F00
ENDCHAR
STARTCHAR 042E
ENCODING 1070
SWIDTH 1008 0
DWIDTH 21 0
BBX 21 14 0 0
BITMAP
FC1F80
3020C0
306060
30C030
30C030
31C038
318038
3F8038
31C038
31C030
30C030
30C060
306040
781F80
ENDCHAR
STARTCHAR 042F
ENCODING 1071
SWIDTH 672 0
DWIDTH 14 0
BBX 13 14 1 0
BITMAP
0FF8
1860
3060
3060
3060
3860
1C60
07E0
0C60
0C60
1860
3060
7060
E0F0
ENDCHAR
STARTCHAR 0430
ENCODING 1072
SWIDTH 432 0
DWIDTH 9 0
BBX 8 10 1 0
BITMAP
38
4C
C6
C6
1E
66
C6
86
CE
F7
ENDCHAR
STARTCHAR 0431
ENCODING 1073
SWIDTH 528 0
DWIDTH 11 0
BBX 9 14 1 0
BITMAP
1F80
3E00
4000
8000
8800
B600
C300
C180
C180
C180
C180
C100
6300
3E00
ENDCHAR
STARTCHAR 0432
ENCODING 1074
SWIDTH 480 0
DWIDTH 10 0
BBX 8 9 1 0
BITMAP
FE
62
62
66
7E
63
63
63
FE
ENDCHAR
STARTCHAR 0433
ENCODING 1075
SWIDTH 432 0
DWIDTH 9 0
BBX 7 9 1 0
BITMAP
FE
62
60
60
60
60
60
60
E0
ENDCHAR
STARTCHAR 0434
ENCODING 1076
SWIDTH 528 0
DWIDTH 11 0
BBX 10 12 0 -3
BITMAP
1F80
1180
1180
1180
1180
1180
2180
2180
7F80
C040
8040
8000
ENDCHAR
STARTCHAR 0435
ENCODING 1077
SWIDTH 432 0
DWIDTH 9 0
BBX 8 10 1 0
BITMAP
18
66
86
83
FC
80
C0
C2
76
3C
ENDCHAR
STARTCHAR 0436
ENCODING 1078
SWIDTH 672 0
DWIDTH 14 0
BBX 13 9 1 0
BITMAP
CF38
2640
2640
1680
1FC0
3660
6660
6630
C738
ENDCHAR
STARTCHAR 0437
ENCODING 1079
SWIDTH 384 0
DWIDTH 8 0
BBX 8 10 0 0
BITMAP
18
66
46
06
0C
1C
06
03
86
7E
ENDCHAR
STARTCHAR 0438
ENCODING 1080
SWIDTH 528 0
DWIDTH 11 0
BBX 9 9 1 0
BITMAP
E380
6100
6300
6500
6900
7100
6100
6100
E380
ENDCHAR
STARTCHAR 0439
ENCODING 1081
SWIDTH 528 0
DWIDTH 11 0
BBX 9 14 1 0
BITMAP
6100
6300
3E00
0000
0000
E380
6100
6300
6500
6900
7100
6100
6100
E380
ENDCHAR
STARTCHAR 043A
ENCODING 1082
SWIDTH 480 0
DWIDTH 10 0
BBX 9 9 1 0
BITMAP
E380
6400
6800
6800
7800
6C00
6600
6600
E300
ENDCHAR
STARTCHAR 043B
ENCODING 1083
SWIDTH 480 0
DWIDTH 10 0
BBX 9 9 0 0
BITMAP
3F80
1180
1180
1180
1180
1180
1180
9180
E380
ENDCHAR
STARTCHAR 043C
ENCODING 1084
SWIDTH 624 0
DWIDTH 13 0
BBX 11 9 1 0
BITMAP
E0E0
70C0
7140
5140
5A40
5A40
4C40
4C40
C4E0
ENDCHAR
STARTCHAR 043D
ENCODING 1085
SWIDTH 528 0
DWIDTH 11 0
BBX 9 9 1 0
BITMAP
E380
6100
6100
6100
7F00
6100
6100
6100
E380
ENDCHAR
STARTCHAR 043E
ENCODING 1086
SWIDTH 480 0
DWIDTH 10 0
BBX 9 10 1 0
BITMAP
1800
6600
4300
C300
C180
C180
C180
C100
6300
3E00
ENDCHAR
STARTCHAR 043F
ENCODING 1087
SWIDTH 528 0
DWIDTH 11 0
BBX 9 9 1 0
BITMAP
FF80
6100
6100
6100
6100
6100
6100
6100
E380
ENDCHAR
STARTCHAR 0440
ENCODING 1088
SWIDTH 480 0
DWIDTH 10 0
BBX 10 14 0 -4
BITMAP
0200
EF80
3180
21C0
20C0
20C0
20C0
2080
2180
3300
2C00
2000
2000
7000
ENDCHAR
STARTCHAR 0441
ENCODING 1089
SWIDTH 432 0
DWIDTH 9 0
BBX 8 10 1 0
BITMAP
18
66
C6
80
80
80
C1
C2
66
7C
ENDCHAR
STARTCHAR 0442
ENCODING 1090
SWIDTH 432 0
DWIDTH 9 0
BBX 9 9 0 0
BITMAP
FF80
8880
0800
0800
0800
0800
0800
0800
1C00
ENDCHAR
STARTCHAR 0443
ENCODING 1091
SWIDTH 480 0
DWIDTH 10 0
BBX 9 13 1 -4
BITMAP
E180
6100
6100
2200
3200
1400
1C00
0800
0800
0800
1000
9000
E000
ENDCHAR
STARTCHAR 0444
ENCODING 1092
SWIDTH 672 0
DWIDTH 14 0
BBX 12 18 1 -4
BITMAP
0E00
0600
0600
0600
3680
6F40
C660
C620
C630
C630
C630
C620
4660
6FC0
1600
0600
0600
0E00
ENDCHAR
STARTCHAR 0445
ENCODING 1093
SWIDTH 480 0
DWIDTH 10 0
BBX 8 9 1 0
BITMAP
E3
64
38
18
18
2C
46
46
C7
ENDCHAR
STARTCHAR 0446
ENCODING 1094
SWIDTH 528 0
DWIDTH 11 0
BBX 10 12 1 -3
BITMAP
E380
6100
6100
6100
6100
6100
6100
6100
FF80
00C0
0040
0040
ENDCHAR
STARTCHAR 0447
ENCODING 1095
SWIDTH 480 0
DWIDTH 10 0
BBX 8 9 1 0
BITMAP
E7
43
43
43
7F
03
03
03
07
ENDCHAR
STARTCHAR 0448
ENCODING 1096
SWIDTH 768 0
DWIDTH 16 0
BBX 14 9 1 0
BITMAP
E31C
6318
6318
6318
6318
6318
6318
6318
FFFC
ENDCHAR
STARTCHAR 0449
ENCODING 1097
SWIDTH 768 0
DWIDTH 16 0
BBX 15 12 1 -3
BITMAP
E31C
6318
6318
6318
6318
6318
6318
6318
FFFC
0006
0002
0002
ENDCHAR
STARTCHAR 044A
ENCODING 1098
SWIDTH 528 0
DWIDTH 11 0
BBX 10 9 0 0
BITMAP
FC00
9800
1800
1800
1F80
18C0
18C0
18C0
1F80
ENDCHAR
STARTCHAR 044B
ENCODING 1099
SWIDTH 672 0
DWIDTH 14 0
BBX 12 9 1 0
BITMAP
E070
6060
6060
6060
7E60
6360
6360
6360
FE70
ENDCHAR
STARTCHAR 044C
ENCODING 1100
SWIDTH 480 0
DWIDTH 10 0
BBX 8 9 1 0
BITMAP
E0
60
60
60
7E
63
63
63
FE
ENDCHAR
STARTCHAR 044D
ENCODING 1101
SWIDTH 432 0
DWIDTH 9 0
BBX 8 10 0 0
BITMAP
18
66
43
03
03
0F
03
03
82
7C
ENDCHAR
STARTCHAR 044E
ENCODING 1102
SWIDTH 768 0
DWIDTH 16 0
BBX 14 10 1 0
BITMAP
00C0
E130
6218
660C
660C
7E0C
660C
6608
6318
E1F0
ENDCHAR
STARTCHAR 044F
ENCODING 1103
SWIDTH 480 0
DWIDTH 10 0
BBX 7 9 1 0
BITMAP
7E
C6
C6
66
1E
36
66
C6
CE
ENDCHAR
STARTCHAR 0451
ENCODING 1105
SWIDTH 432 0
DWIDTH 9 0
BBX 8 14 1 0
BITMAP
24
66
24
00
18
66
86
83
FC
80
C0
C2
76
3C
ENDCHAR
STARTCHAR 0452
ENCODING 1106
SWIDTH 480 0
DWIDTH 10 0
BBX 9 18 0 -4
BITMAP
6000
2000
FF00
2000
2600
2F00
3100
2180
2180
2180
2180
2180
2180
7180
0100
0300
0200
0400
ENDCHAR
STARTCHAR 0453
ENCODING 1107
SWIDTH 432 0
DWIDTH 9 0
BBX 7 14 1 0
BITMAP
18
10
20
00
00
FE
62
60
60
60
60
60
60
E0
ENDCHAR
STARTCHAR 0454
ENCODING 1108
SWIDTH 432 0
DWIDTH 9 0
BBX 7 10 1 0
BITMAP
18
66
C2
C0
C0
F0
C0
C0
40
3E
ENDCHAR
STARTCHAR 0455
ENCODING 1109
SWIDTH 384 0
DWIDTH 8 0
BBX 6 10 1 0
BITMAP
34
4C
84
C4
F0
38
0C
84
84
F8
ENDCHAR
STARTCHAR 0456
ENCODING 1110
SWIDTH 288 0
DWIDTH 6 0
BBX 3 14 1 0
BITMAP
60
00
00
00
20
E0
60
60
60
60
60
60
60
60
ENDCHAR
STARTCHAR 0457
ENCODING 1111
SWIDTH 288 0
DWIDTH 6 0
BBX 6 14 0 0
BITMAP
48
CC
48
00
10
70
30
30
30
30
30
30
30
30
ENDCHAR
STARTCHAR 0458
ENCODING 1112
SWIDTH 288 0
DWIDTH 6 0
BBX 6 18 -2 -4
BITMAP
0C
00
00
00
04
1C
0C
0C
0C
0C
0C
0C
0C
0C
0C
0C
08
F8
ENDCHAR
STARTCHAR 0459
ENCODING 1113
SWIDTH 720 0
DWIDTH 15 0
BBX 15 9 0 0
BITMAP
1FC0
1080
1080
1080
10FC
108C
1086
D18C
F1F8
ENDCHAR
STARTCHAR 045A
ENCODING 1114
SWIDTH 720 0
DWIDTH 15 0
BBX 13 9 1 0
BITMAP
E380
6300
6300
6300
7FF0
6318
6318
6318
E3F0
ENDCHAR
STARTCHAR 045B
ENCODING 1115
SWIDTH 480 0
DWIDTH 10 0
BBX 9 14 0 0
BITMAP
6000
2000
FF00
2000
2200
2F00
3180
2180
2180
2180
2180
2180
2180
7180
ENDCHAR
STARTCHAR 045C
ENCODING 1116
SWIDTH 480 0
DWIDTH 10 0
BBX 9 14 1 0
BITMAP
0C00
0800
1000
0000
0000
E380
6400
6800
6800
7800
6C00
6600
6600
E300
ENDCHAR
STARTCHAR 045D
ENCODING 1117
SWIDTH 528 0
DWIDTH 11 0
BBX 9 14 1 0
BITMAP
1000
1800
0800
0000
0000
E380
6100
6300
6500
6900
7100
6100
6100
E380
ENDCHAR
STARTCHAR 045E
ENCODING 1118
SWIDTH 480 0
DWIDTH 10 0
BBX 9 18 1 -4
BITMAP
4300
6300
3E00
0000
0000
E180
6100
6100
2200
3200
1400
1C00
0800
0800
0800
1000
9000
E000
ENDCHAR
STARTCHAR 045F
ENCODING 1119
SWIDTH 528 0
DWIDTH 11 0
BBX 9 12 1 -3
BITMAP
E380
6100
6100
6100
6100
6100
6100
6100
FF80
1C00
0800
0800
ENDCHAR
STARTCHAR 0490
ENCODING 1168
SWIDTH 432 0
DWIDTH 9 0
BBX 9 15 0 1
BITMAP
0080
FF80
3000
3000
3000
3000
3000
3000
3000
3000
3000
3000
3000
3000
7800
ENDCHAR
STARTCHAR 0491
ENCODING 1169
SWIDTH 336 0
DWIDTH 7 0
BBX 6 11 1 0
BITMAP
04
04
F8
60
60
60
60
60
60
60
E0
ENDCHAR
STARTCHAR 0492
ENCODING 1170
SWIDTH 576 0
DWIDTH 12 0
BBX 11 14 0 0
BITMAP
FFE0
3020
3020
3000
3000
3000
FF00
3000
3000
3000
3000
3000
3000
7800
ENDCHAR
STARTCHAR 0493
ENCODING 1171
SWIDTH 432 0
DWIDTH 9 0
BBX 8 9 0 0
BITMAP
7F
31
30
30
FC
30
30
30
70
ENDCHAR
STARTCHAR 0496
ENCODING 1174
SWIDTH 912 0
DWIDTH 19 0
BBX 18 17 0 -4
BITMAP
73F1C0
F0C3C0
08C200
08C400
04C400
04C400
02C800
03F800
06CC00
0CC400
0CC600
18C300
30C300
71E1C0
000040
000040
000040
ENDCHAR
STARTCHAR 0497
ENCODING 1175
SWIDTH 672 0
DWIDTH 14 0
BBX 13 11 1 -3
BITMAP
CF38
2640
2640
1680
1FC0
3660
6660
6630
C738
0008
0008
ENDCHAR
STARTCHAR 049A
ENCODING 1178
SWIDTH 672 0
DWIDTH 14 0
BBX 14 18 0 -4
BITMAP
FC38
3058
3040
3080
3080
3100
3600
3F00
3380
3180
30C0
3060
3070
7838
000C
0004
0004
0004
ENDCHAR
STARTCHAR 049B
ENCODING 1179
SWIDTH 480 0
DWIDTH 10 0
BBX 9 11 1 -3
BITMAP
E380
6400
6800
6800
7800
6C00
6600
6600
E300
0080
0080
ENDCHAR
STARTCHAR 049C
ENCODING 1180
SWIDTH 672 0
DWIDTH 14 0
BBX 13 14 0 0
BITMAP
FC38
3058
3040
3280
3280
3300
3600
3F00
3380
3380
32C0
3260
3070
7838
ENDCHAR
STARTCHAR 049D
ENCODING 1181
SWIDTH 480 0
DWIDTH 10 0
BBX 9 9 1 0
BITMAP
E380
6400
7800
6800
7800
6C00
7600
6600
E300
ENDCHAR
STARTCHAR 04A2
ENCODING 1186
SWIDTH 720 0
DWIDTH 15 0
BBX 15 18 0 -4
BITMAP
FC7E
3018
3018
3018
3018
3018
3018
3FF8
3018
3018
3018
3018
3018
3838
400E
0006
0002
0002
ENDCHAR
STARTCHAR 04A3
ENCODING 1187
SWIDTH 528 0
DWIDTH 11 0
BBX 10 12 1 -3
BITMAP
E380
6100
6100
6100
7F00
6100
6100
6100
E380
00C0
0040
0040
ENDCHAR
STARTCHAR 04AE
ENCODING 1198
SWIDTH 720 0
DWIDTH 15 0
BBX 15 14 0 0
BITMAP
FC3E
3818
1810
1C20
0C20
0640
0780
0380
0300
0300
0300
0300
0300
0380
ENDCHAR
STARTCHAR 04AF
ENCODING 1199
SWIDTH 480 0
DWIDTH 10 0
BBX 9 13 1 -4
BITMAP
E180
6100
6200
6200
3400
3400
1400
1800
1800
1800
1800
1800
1C00
ENDCHAR
STARTCHAR 04B0
ENCODING 1200
SWIDTH 720 0
DWIDTH 15 0
BBX 15 14 0 0
BITMAP
FC3E
3818
1810
1C20
0C20
0640
0780
0380
1FF0
0300
0300
0300
0300
0380
ENDCHAR
STARTCHAR 04B1
ENCODING 1201
SWIDTH 480 0
DWIDTH 10 0
BBX 10 13 0 -4
BITMAP
70C0
3080
3100
3100
1A00
1A00
0A00
0C00
FFC0
0C00
0C00
0C00
0E00
ENDCHAR
STARTCHAR 04B2
ENCODING 1202
SWIDTH 720 0
DWIDTH 15 0
BBX 15 18 0 -4
BITMAP
FE3C
1810
0C30
0E20
0640
0380
0380
0180
02C0
04E0
0860
1030
3038
703C
000E
0006
0002
0002
ENDCHAR
STARTCHAR 04B3
ENCODING 1203
SWIDTH 480 0
DWIDTH 10 0
BBX 9 11 1 -3
BITMAP
E300
6400
3800
1800
1800
2C00
4600
4600
C780
0080
0080
ENDCHAR
STARTCHAR 04B8
ENCODING 1208
SWIDTH 672 0
DWIDTH 14 0
BBX 13 14 0 0
BITMAP
FDF8
3060
3060
3260
3260
3260
3260
3AE0
1F60
0260
0260
0060
0060
00F0
ENDCHAR
STARTCHAR 04B9
ENCODING 1209
SWIDTH 480 0
DWIDTH 10 0
BBX 8 9 1 0
BITMAP
E7
43
4B
4B
7F
0B
0B
03
07
ENDCHAR
STARTCHAR 04BA
ENCODING 1210
SWIDTH 672 0
DWIDTH 14 0
BBX 13 14 0 0
BITMAP
FC00
3000
3000
3000
3000
31C0
3EE0
3070
3030
3030
3030
3030
3030
7878
ENDCHAR
STARTCHAR 04BB
ENCODING 1211
SWIDTH 480 0
DWIDTH 10 0
BBX 8 14 1 0
BITMAP
C0
40
40
40
44
5E
63
43
43
43
43
43
43
E3
ENDCHAR
STARTCHAR 04D8
ENCODING 1240
SWIDTH 720 0
DWIDTH 15 0
BBX 14 14 0 0
BITMAP
2FC0
1830
1018
2018
200C
000C
000C
FFFC
600C
600C
601C
3018
1830
0FE0
ENDCHAR
STARTCHAR 04D9
ENCODING 1241
SWIDTH 432 0
DWIDTH 9 0
BBX 8 10 1 0
BITMAP
10
7C
8E
86
03
03
FF
C2
C2
7C
ENDCHAR
STARTCHAR 04E8
ENCODING 1256
SWIDTH 720 0
DWIDTH 15 0
BBX 13 14 1 0
BITMAP
0F80
3060
6030
6030
C018
C018
C018
FFF8
C018
C018
E030
6030
3060
1FC0
ENDCHAR
STARTCHAR 04E9
ENCODING 1257
SWIDTH 480 0
DWIDTH 10 0
BBX 9 10 1 0
BITMAP
1800
6600
4300
C300
C180
FF80
C180
C100
6300
3E00
ENDCHAR
STARTCHAR 05B0
ENCODING 1456
SWIDTH 336 0
DWIDTH 7 0
BBX 1 3 3 -4
BITMAP
80
00
80
ENDCHAR
STARTCHAR 05B1
ENCODING 1457
SWIDTH 336 0
DWIDTH 7 0
BBX 7 3 0 -4
BITMAP
D6
00
66
ENDCHAR
STARTCHAR 05B2
ENCODING 1458
SWIDTH 336 0
DWIDTH 7 0
BBX 5 3 1 -4
BITMAP
E8
00
08
ENDCHAR
STARTCHAR 05B3
ENCODING 1459
SWIDTH 336 0
DWIDTH 7 0
BBX 7 3 0 -4
BITMAP
F6
20
66
ENDCHAR
STARTCHAR 05B4
ENCODING 1460
SWIDTH 336 0
DWIDTH 7 0
BBX 1 1 3 -2
BITMAP
80
ENDCHAR
STARTCHAR 05B5
ENCODING 1461
SWIDTH 336 0
DWIDTH 7 0
BBX 4 1 1 -2
BITMAP
D0
ENDCHAR
STARTCHAR 05B6
ENCODING 1462
SWIDTH 336 0
DWIDTH 7 0
BBX 4 3 1 -4
BITMAP
D0
00
20
ENDCHAR
STARTCHAR 05B7
ENCODING 1463
SWIDTH 336 0
DWIDTH 7 0
BBX 4 1 1 -3
BITMAP
F0
ENDCHAR
STARTCHAR 05B8
ENCODING 1464
SWIDTH 336 0
DWIDTH 7 0
BBX 4 3 1 -4
BITMAP
F0
20
20
ENDCHAR
STARTCHAR 05B9
ENCODING 1465
SWIDTH 336 0
DWIDTH 7 0
BBX 1 2 3 12
BITMAP
80
80
ENDCHAR
STARTCHAR 05BA
ENCODING 1466
SWIDTH 336 0
DWIDTH 7 0
BBX 1 2 3 12
BITMAP
80
80
ENDCHAR
STARTCHAR 05BB
ENCODING 1467
SWIDTH 336 0
DWIDTH 7 0
BBX 7 3 0 -4
BITMAP
C0
10
06
ENDCHAR
STARTCHAR 05BC
ENCODING 1468
SWIDTH 336 0
DWIDTH 7 0
BBX 1 2 3 4
BITMAP
80
80
ENDCHAR
STARTCHAR 05BD
ENCODING 1469
SWIDTH 336 0
DWIDTH 7 0
BBX 1 3 3 -4
BITMAP
80
80
80
ENDCHAR
STARTCHAR 05BE
ENCODING 1470
SWIDTH 336 0
DWIDTH 7 0
BBX 6 2 1 9
BITMAP
FC
FC
ENDCHAR
STARTCHAR 05BF
ENCODING 1471
SWIDTH 336 0
DWIDTH 7 0
BBX 4 1 1 12
BITMAP
F0
ENDCHAR
STARTCHAR 05C0
ENCODING 1472
SWIDTH 288 0
DWIDTH 6 0
BBX 2 13 2 -1
BITMAP
C0
C0
C0
C0
C0
C0
C0
C0
C0
C0
C0
C0
C0
ENDCHAR
STARTCHAR 05C1
ENCODING 1473
SWIDTH 336 0
DWIDTH 7 0
BBX 2 2 7 12
BITMAP
C0
80
ENDCHAR
STARTCHAR 05C2
ENCODING 1474
SWIDTH 336 0
DWIDTH 7 0
BBX 1 2 -1 12
BITMAP
80
80
ENDCHAR
STARTCHAR 05C3
ENCODING 1475
SWIDTH 288 0
DWIDTH 6 0
BBX 2 11 2 0
BITMAP
C0
C0
00
00
00
00
00
00
00
C0
C0
ENDCHAR
STARTCHAR 05D0
ENCODING 1488
SWIDTH 480 0
DWIDTH 10 0
BBX 8 11 1 1
BITMAP
86
C7
E3
72
3C
5C
8C
C6
C3
63
61
ENDCHAR
STARTCHAR 05D1
ENCODING 1489
SWIDTH 432 0
DWIDTH 9 0
BBX 8 11 1 0
BITMAP
FC
FE
0E
02
02
02
02
02
02
FF
FF
ENDCHAR
STARTCHAR 05D2
ENCODING 1490
SWIDTH 336 0
DWIDTH 7 0
BBX 7 11 0 1
BITMAP
70
78
38
08
08
08
08
0C
14
76
E4
ENDCHAR
STARTCHAR 05D3
ENCODING 1491
SWIDTH 432 0
DWIDTH 9 0
BBX 7 11 1 0
BITMAP
FE
FE
02
04
04
08
0C
0C
0C
0C
08
ENDCHAR
STARTCHAR 05D4
ENCODING 1492
SWIDTH 480 0
DWIDTH 10 0
BBX 8 11 1 0
BITMAP
FF
FF
01
02
02
02
42
82
83
C3
82
ENDCHAR
STARTCHAR 05D5
ENCODING 1493
SWIDTH 288 0
DWIDTH 6 0
BBX 4 12 1 0
BITMAP
80
E0
F0
70
10
10
10
10
10
10
10
10
ENDCHAR
STARTCHAR 05D6
ENCODING 1494
SWIDTH 288 0
DWIDTH 6 0
BBX 4 12 1 0
BITMAP
80
F0
F0
70
40
40
40
40
60
60
60
40
ENDCHAR
STARTCHAR 05D7
ENCODING 1495
SWIDTH 480 0
DWIDTH 10 0
BBX 8 11 1 0
BITMAP
FF
FF
41
42
82
82
82
C3
C3
C3
82
ENDCHAR
STARTCHAR 05D8
ENCODING 1496
SWIDTH 480 0
DWIDTH 10 0
BBX 8 11 1 1
BITMAP
C6
EF
4B
91
81
81
81
41
42
7E
7E
ENDCHAR
STARTCHAR 05D9
ENCODING 1497
SWIDTH 288 0
DWIDTH 6 0
BBX 4 6 1 6
BITMAP
E0
F0
30
10
20
20
ENDCHAR
STARTCHAR 05DA
ENCODING 1498
SWIDTH 432 0
DWIDTH 9 0
BBX 7 14 1 -4
BITMAP
FE
FE
02
02
02
02
02
02
02
02
02
02
02
02
ENDCHAR
STARTCHAR 05DB
ENCODING 1499
SWIDTH 432 0
DWIDTH 9 0
BBX 7 11 1 0
BITMAP
F8
FC
0E
02
02
02
02
02
06
FC
F8
ENDCHAR
STARTCHAR 05DC
ENCODING 1500
SWIDTH 432 0
DWIDTH 9 0
BBX 8 16 0 0
BITMAP
80
C0
40
40
40
7E
7F
07
01
01
01
02
04
08
08
08
ENDCHAR
STARTCHAR 05DD
ENCODING 1501
SWIDTH 528 0
DWIDTH 11 0
BBX 8 11 1 0
BITMAP
FE
FF
27
41
81
81
81
81
81
FF
FF
ENDCHAR
STARTCHAR 05DE
ENCODING 1502
SWIDTH 480 0
DWIDTH 10 0
BBX 8 11 1 1
BITMAP
E4
EE
7F
21
41
41
81
81
81
9F
BF
ENDCHAR
STARTCHAR 05DF
ENCODING 1503
SWIDTH 288 0
DWIDTH 6 0
BBX 4 16 1 -4
BITMAP
80
E0
F0
70
20
20
20
20
20
20
20
20
20
20
20
20
ENDCHAR
STARTCHAR 05E0
ENCODING 1504
SWIDTH 288 0
DWIDTH 6 0
BBX 5 11 0 1
BITMAP
78
78
08
08
08
08
08
08
08
78
F8
ENDCHAR
STARTCHAR 05E1
ENCODING 1505
SWIDTH 480 0
DWIDTH 10 0
BBX 8 11 1 0
BITMAP
FC
FE
47
81
81
81
81
81
C3
7E
3E
ENDCHAR
STARTCHAR 05E2
ENCODING 1506
SWIDTH 432 0
DWIDTH 9 0
BBX 8 11 1 1
BITMAP
C6
E7
43
42
42
64
24
24
24
FC
F8
ENDCHAR
STARTCHAR 05E3
ENCODING 1507
SWIDTH 432 0
DWIDTH 9 0
BBX 7 15 1 -4
BITMAP
FC
FE
8E
82
82
E2
E2
02
02
02
02
02
02
02
02
ENDCHAR
STARTCHAR 05E4
ENCODING 1508
SWIDTH 432 0
DWIDTH 9 0
BBX 7 11 1 0
BITMAP
F8
FC
4E
82
C2
E2
82
02
02
FE
F8
ENDCHAR
STARTCHAR 05E5
ENCODING 1509
SWIDTH 480 0
DWIDTH 10 0
BBX 8 15 1 -4
BITMAP
04
E7
E7
63
24
48
50
60
20
20
20
20
20
20
20
ENDCHAR
STARTCHAR 05E6
ENCODING 1510
SWIDTH 480 0
DWIDTH 10 0
BBX 8 11 1 1
BITMAP
C6
E7
62
24
28
38
18
0C
07
FE
FE
ENDCHAR
STARTCHAR 05E7
ENCODING 1511
SWIDTH 480 0
DWIDTH 10 0
BBX 8 15 1 -4
BITMAP
FE
FF
07
01
01
81
82
8C
90
90
90
80
80
80
80
ENDCHAR
STARTCHAR 05E8
ENCODING 1512
SWIDTH 480 0
DWIDTH 10 0
BBX 8 11 1 0
BITMAP
FC
FE
0F
03
01
01
01
01
01
01
01
ENDCHAR
STARTCHAR 05E9
ENCODING 1513
SWIDTH 624 0
DWIDTH 13 0
BBX 11 12 1 0
BITMAP
0800
CCC0
EEE0
4460
8840
8840
8880
8880
5100
5100
7F00
3E00
ENDCHAR
STARTCHAR 05EA
ENCODING 1514
SWIDTH 480 0
DWIDTH 10 0
BBX 9 11 0 0
BITMAP
7F00
7F80
1380
2080
2080
2080
2080
2080
2080
6080
E080
ENDCHAR
STARTCHAR 05F0
ENCODING 1520
SWIDTH 576 0
DWIDTH 12 0
BBX 9 12 1 0
BITMAP
8000
E380
F380
7180
1080
1080
1080
1080
1080
1080
1080
1080
ENDCHAR
STARTCHAR 05F1
ENCODING 1521
SWIDTH 528 0
DWIDTH 11 0
BBX 9 11 1 1
BITMAP
E700
F780
3180
1080
2080
2080
0080
0080
0080
0080
0080
ENDCHAR
STARTCHAR 05F2
ENCODING 1522
SWIDTH 528 0
DWIDTH 11 0
BBX 9 6 1 6
BITMAP
E780
F780
3180
1080
2080
2100
ENDCHAR
STARTCHAR 05F3
ENCODING 1523
SWIDTH 192 0
DWIDTH 4 0
BBX 2 5 1 6
BITMAP
C0
C0
C0
80
80
ENDCHAR
STARTCHAR 05F4
ENCODING 1524
SWIDTH 384 0
DWIDTH 8 0
BBX 6 5 1 6
BITMAP
CC
C8
C8
90
90
ENDCHAR
STARTCHAR 060C
ENCODING 1548
SWIDTH 336 0
DWIDTH 7 0
BBX 3 6 2 3
BITMAP
40
80
80
C0
E0
E0
ENDCHAR
STARTCHAR 061B
ENCODING 1563
SWIDTH 336 0
DWIDTH 7 0
BBX 3 9 2 4
BITMAP
40
80
80
E0
E0
40
00
E0
E0
ENDCHAR
STARTCHAR 061F
ENCODING 1567
SWIDTH 336 0
DWIDTH 7 0
BBX 6 12 1 3
BITMAP
70
C8
DC
DC
E0
60
20
20
00
00
70
30
ENDCHAR
STARTCHAR 0621
ENCODING 1569
SWIDTH 432 0
DWIDTH 9 0
BBX 6 6 1 1
BITMAP
38
48
40
EC
78
60
ENDCHAR
STARTCHAR 0622
ENCODING 1570
SWIDTH 192 0
DWIDTH 4 0
BBX 3 14 1 3
BITMAP
E0
00
40
C0
40
40
40
40
40
40
40
40
40
40
ENDCHAR
STARTCHAR 0623
ENCODING 1571
SWIDTH 192 0
DWIDTH 4 0
BBX 3 15 1 3
BITMAP
40
E0
80
40
C0
40
40
40
40
40
40
40
40
40
40
ENDCHAR
STARTCHAR 0624
ENCODING 1572
SWIDTH 432 0
DWIDTH 9 0
BBX 8 14 1 -2
BITMAP
08
10
18
00
06
07
09
07
07
01
03
06
9C
70
ENDCHAR
STARTCHAR 0625
ENCODING 1573
SWIDTH 192 0
DWIDTH 4 0
BBX 2 17 1 -2
BITMAP
40
C0
40
40
40
40
40
40
40
40
40
40
00
00
C0
80
C0
ENDCHAR
STARTCHAR 0626
ENCODING 1574
SWIDTH 624 0
DWIDTH 13 0
BBX 12 13 1 -1
BITMAP
4000
8000
4060
00F0
0110
8200
8200
83E0
81E0
8060
81C0
FF80
7E00
ENDCHAR
STARTCHAR 0627
ENCODING 1575
SWIDTH 192 0
DWIDTH 4 0
BBX 2 12 1 3
BITMAP
40
C0
40
40
40
40
40
40
40
40
40
40
ENDCHAR
STARTCHAR 0628
ENCODING 1576
SWIDTH 720 0
DWIDTH 15 0
BBX 14 11 1 -1
BITMAP
0008
8008
800C
8004
8004
FFFC
7FFC
0000
0000
0300
0200
ENDCHAR
STARTCHAR 0629
ENCODING 1577
SWIDTH 288 0
DWIDTH 6 0
BBX 6 10 0 3
BITMAP
18
D0
40
00
20
38
5C
44
48
78
ENDCHAR
STARTCHAR 062A
ENCODING 1578
SWIDTH 720 0
DWIDTH 15 0
BBX 14 10 1 3
BITMAP
0180
0580
0400
0008
8008
800C
8004
8004
FFFC
7FFC
ENDCHAR
STARTCHAR 062B
ENCODING 1579
SWIDTH 720 0
DWIDTH 15 0
BBX 14 12 1 3
BITMAP
0400
0600
0180
0580
0400
0008
8008
800C
8004
8004
FFFC
7FFC
ENDCHAR
STARTCHAR 062C
ENCODING 1580
SWIDTH 576 0
DWIDTH 12 0
BBX 9 13 1 -4
BITMAP
7F80
FF80
1C00
2000
4000
8000
8600
8400
8000
8000
C000
7800
3F80
ENDCHAR
STARTCHAR 062D
ENCODING 1581
SWIDTH 576 0
DWIDTH 12 0
BBX 9 13 1 -4
BITMAP
7F80
FF80
1C00
2000
4000
8000
8000
8000
8000
8000
C000
7800
3F80
ENDCHAR
STARTCHAR 062E
ENCODING 1582
SWIDTH 576 0
DWIDTH 12 0
BBX 9 17 1 -4
BITMAP
0C00
0800
0000
0000
7F80
FF80
1C00
2000
4000
8000
8000
8000
8000
8000
C000
7800
3F80
ENDCHAR
STARTCHAR 062F
ENCODING 1583
SWIDTH 336 0
DWIDTH 7 0
BBX 6 8 1 4
BITMAP
10
18
0C
04
04
04
FC
FC
ENDCHAR
STARTCHAR 0630
ENCODING 1584
SWIDTH 336 0
DWIDTH 7 0
BBX 6 13 1 3
BITMAP
40
60
20
00
00
10
18
0C
04
04
04
FC
FC
ENDCHAR
STARTCHAR 0631
ENCODING 1585
SWIDTH 480 0
DWIDTH 10 0
BBX 9 11 1 -2
BITMAP
0100
0180
0080
0080
0080
0080
0080
0180
0300
8E00
7C00
ENDCHAR
STARTCHAR 0632
ENCODING 1586
SWIDTH 480 0
DWIDTH 10 0
BBX 9 15 1 -2
BITMAP
0300
0200
0000
0000
0100
0180
0080
0080
0080
0080
0080
0180
0300
8E00
7C00
ENDCHAR
STARTCHAR 0633
ENCODING 1587
SWIDTH 816 0
DWIDTH 17 0
BBX 16 9 1 -1
BITMAP
00C1
40C9
8045
807F
807B
8040
80C0
C380
FF00
ENDCHAR
STARTCHAR 0634
ENCODING 1588
SWIDTH 816 0
DWIDTH 17 0
BBX 16 16 1 -2
BITMAP
0010
0018
0006
001E
0018
0000
0000
00C1
40C9
8045
807F
807B
8040
80C0
C380
FF00
ENDCHAR
STARTCHAR 0635
ENCODING 1589
SWIDTH 1104 0
DWIDTH 23 0
BBX 22 9 1 -1
BITMAP
00C0F8
40C19C
80460C
807FFC
807FFC
804000
808000
C38000
FF0000
ENDCHAR
STARTCHAR 0636
ENCODING 1590
SWIDTH 1104 0
DWIDTH 23 0
BBX 22 13 1 -2
BITMAP
000600
000600
000000
000000
00C0F8
40C19C
80460C
807FFC
807FFC
804000
808000
C38000
FF0000
ENDCHAR
STARTCHAR 0637
ENCODING 1591
SWIDTH 576 0
DWIDTH 12 0
BBX 13 13 -1 4
BITMAP
0C00
1C00
0C00
0800
0400
0400
0400
0400
05F8
07B8
0C18
FFF8
FFF8
ENDCHAR
STARTCHAR 0638
ENCODING 1592
SWIDTH 576 0
DWIDTH 12 0
BBX 13 13 -1 4
BITMAP
0C00
1C00
0C00
08C0
0440
0400
0400
0400
05F8
07B8
0C18
FFF8
FFF8
ENDCHAR
STARTCHAR 0639
ENCODING 1593
SWIDTH 528 0
DWIDTH 11 0
BBX 10 15 0 -4
BITMAP
3C00
6000
8000
4180
7780
3C00
3000
6000
4000
8000
8000
C000
6000
7C00
3FC0
ENDCHAR
STARTCHAR 063A
ENCODING 1594
SWIDTH 528 0
DWIDTH 11 0
BBX 10 19 0 -4
BITMAP
1800
1800
0000
0000
3C00
6000
8000
4180
7780
3C00
3000
6000
4000
8000
8000
C000
6000
7C00
3FC0
ENDCHAR
STARTCHAR 0640
ENCODING 1600
SWIDTH 192 0
DWIDTH 4 0
BBX 5 2 -1 3
BITMAP
F8
F8
ENDCHAR
STARTCHAR 0641
ENCODING 1601
SWIDTH 768 0
DWIDTH 16 0
BBX 16 11 0 3
BITMAP
000C
000C
0000
0000
4003
8007
800D
800D
4007
7FFF
1FFF
ENDCHAR
STARTCHAR 0642
ENCODING 1602
SWIDTH 576 0
DWIDTH 12 0
BBX 11 16 1 -2
BITMAP
00C0
0680
0200
0000
0000
01C0
01E0
0260
81E0
81E0
8020
8020
8060
C1E0
7F80
1C00
ENDCHAR
STARTCHAR 0643
ENCODING 1603
SWIDTH 624 0
DWIDTH 13 0
BBX 13 13 0 3
BITMAP
0020
0030
0030
0120
0230
0410
0390
4090
9F10
8010
C010
7FF8
3FF8
ENDCHAR
STARTCHAR 0644
ENCODING 1604
SWIDTH 528 0
DWIDTH 11 0
BBX 10 16 1 0
BITMAP
0100
0180
0180
0080
0080
0080
0080
0080
0080
8080
8080
8040
8040
8180
FF80
3E00
ENDCHAR
STARTCHAR 0645
ENCODING 1605
SWIDTH 336 0
DWIDTH 7 0
BBX 7 10 0 -4
BITMAP
3C
2E
1E
7E
40
80
80
40
40
40
ENDCHAR
STARTCHAR 0646
ENCODING 1606
SWIDTH 528 0
DWIDTH 11 0
BBX 10 14 1 -2
BITMAP
0800
0C00
0000
0000
0040
40C0
8040
8040
8040
8040
80C0
C380
FF00
0800
ENDCHAR
STARTCHAR 0647
ENCODING 1607
SWIDTH 288 0
DWIDTH 6 0
BBX 4 6 1 3
BITMAP
40
70
B0
90
90
F0
ENDCHAR
STARTCHAR 0648
ENCODING 1608
SWIDTH 432 0
DWIDTH 9 0
BBX 8 10 1 -2
BITMAP
06
07
09
07
07
01
03
06
9C
70
ENDCHAR
STARTCHAR 0649
ENCODING 1609
SWIDTH 624 0
DWIDTH 13 0
BBX 12 11 1 -1
BITMAP
0060
00F0
0110
8200
8200
83E0
81E0
8060
81C0
FF80
7E00
ENDCHAR
STARTCHAR 064A
ENCODING 1610
SWIDTH 624 0
DWIDTH 13 0
BBX 12 14 1 -4
BITMAP
0060
00F0
0110
8200
8200
83E0
81E0
8060
81C0
FF80
7E00
0200
0E00
1800
ENDCHAR
STARTCHAR 064B
ENCODING 1611
SWIDTH 192 0
DWIDTH 4 0
BBX 3 3 1 13
BITMAP
60
80
E0
ENDCHAR
STARTCHAR 064C
ENCODING 1612
SWIDTH 240 0
DWIDTH 5 0
BBX 4 3 1 14
BITMAP
30
A0
70
ENDCHAR
STARTCHAR 064D
ENCODING 1613
SWIDTH 192 0
DWIDTH 4 0
BBX 3 4 1 -3
BITMAP
20
C0
60
80
ENDCHAR
STARTCHAR 064E
ENCODING 1614
SWIDTH 192 0
DWIDTH 4 0
BBX 3 2 1 14
BITMAP
20
C0
ENDCHAR
STARTCHAR 064F
ENCODING 1615
SWIDTH 192 0
DWIDTH 4 0
BBX 2 4 2 13
BITMAP
40
C0
40
80
ENDCHAR
STARTCHAR 0650
ENCODING 1616
SWIDTH 192 0
DWIDTH 4 0
BBX 3 1 1 1
BITMAP
E0
ENDCHAR
STARTCHAR 0651
ENCODING 1617
SWIDTH 192 0
DWIDTH 4 0
BBX 3 2 1 14
BITMAP
60
E0
ENDCHAR
STARTCHAR 0652
ENCODING 1618
SWIDTH 144 0
DWIDTH 3 0
BBX 2 3 1 13
BITMAP
C0
C0
C0
ENDCHAR
STARTCHAR 0653
ENCODING 1619
SWIDTH 192 0
DWIDTH 4 0
BBX 3 1 1 15
BITMAP
E0
ENDCHAR
STARTCHAR 0654
ENCODING 1620
SWIDTH 192 0
DWIDTH 4 0
BBX 3 3 1 15
BITMAP
40
E0
80
ENDCHAR
STARTCHAR 0655
ENCODING 1621
SWIDTH 192 0
DWIDTH 4 0
BBX 3 2 1 -2
BITMAP
C0
E0
ENDCHAR
STARTCHAR 0660
ENCODING 1632
SWIDTH 528 0
DWIDTH 11 0
BBX 3 4 4 5
BITMAP
C0
E0
E0
60
ENDCHAR
STARTCHAR 0661
ENCODING 1633
SWIDTH 528 0
DWIDTH 11 0
BBX 4 10 3 4
BITMAP
C0
E0
60
20
30
30
10
10
10
10
ENDCHAR
STARTCHAR 0662
ENCODING 1634
SWIDTH 528 0
DWIDTH 11 0
BBX 6 11 2 3
BITMAP
80
C4
FC
7C
20
30
10
10
10
10
10
ENDCHAR
STARTCHAR 0663
ENCODING 1635
SWIDTH 528 0
DWIDTH 11 0
BBX 9 12 1 3
BITMAP
0480
4680
FF80
7A00
2000
3000
1000
1000
1000
1000
1000
1000
ENDCHAR
STARTCHAR 0664
ENCODING 1636
SWIDTH 528 0
DWIDTH 11 0
BBX 5 11 3 4
BITMAP
10
20
C0
E0
F0
30
20
40
E0
F8
78
ENDCHAR
STARTCHAR 0665
ENCODING 1637
SWIDTH 528 0
DWIDTH 11 0
BBX 7 8 2 5
BITMAP
38
7C
4E
82
82
82
FC
78
ENDCHAR
STARTCHAR 0666
ENCODING 1638
SWIDTH 528 0
DWIDTH 11 0
BBX 7 10 2 4
BITMAP
F8
F8
68
08
08
08
08
0C
0E
04
ENDCHAR
STARTCHAR 0667
ENCODING 1639
SWIDTH 528 0
DWIDTH 11 0
BBX 9 11 1 3
BITMAP
0080
4080
C180
E300
6200
3200
1400
1C00
0800
0800
0800
ENDCHAR
STARTCHAR 0668
ENCODING 1640
SWIDTH 528 0
DWIDTH 11 0
BBX 8 11 2 3
BITMAP
10
10
10
10
28
28
4C
46
C7
83
83
ENDCHAR
STARTCHAR 0669
ENCODING 1641
SWIDTH 528 0
DWIDTH 11 0
BBX 6 12 2 3
BITMAP
38
78
48
88
F8
78
08
0C
0C
04
04
04
ENDCHAR
STARTCHAR 066A
ENCODING 1642
SWIDTH 528 0
DWIDTH 11 0
BBX 7 14 2 2
BITMAP
C2
C2
04
04
08
08
10
10
20
20
40
40
86
86
ENDCHAR
STARTCHAR 066B
ENCODING 1643
SWIDTH 336 0
DWIDTH 7 0
BBX 3 6 2 0
BITMAP
40
E0
E0
40
40
80
ENDCHAR
STARTCHAR 066C
ENCODING 1644
SWIDTH 336 0
DWIDTH 7 0
BBX 3 6 2 3
BITMAP
40
80
80
C0
E0
E0
ENDCHAR
STARTCHAR 066D
ENCODING 1645
SWIDTH 528 0
DWIDTH 11 0
BBX 7 7 2 9
BITMAP
54
5C
B6
FE
7C
54
10
ENDCHAR
STARTCHAR 066E
ENCODING 1646
SWIDTH 720 0
DWIDTH 15 0
BBX 14 7 1 3
BITMAP
0008
8008
800C
8004
8004
FFFC
7FFC
ENDCHAR
STARTCHAR 066F
ENCODING 1647
SWIDTH 576 0
DWIDTH 12 0
BBX 11 11 1 -2
BITMAP
01C0
01E0
0260
81E0
81E0
8020
8020
8060
C1E0
7F80
1C00
ENDCHAR
STARTCHAR 0670
ENCODING 1648
SWIDTH 0 0
DWIDTH 0 0
BBX 1 4 0 12
BITMAP
80
80
80
80
ENDCHAR
STARTCHAR 0671
ENCODING 1649
SWIDTH 192 0
DWIDTH 4 0
BBX 4 16 0 3
BITMAP
10
70
F0
80
20
60
20
20
20
20
20
20
20
20
20
20
ENDCHAR
STARTCHAR 0672
ENCODING 1650
SWIDTH 192 0
DWIDTH 4 0
BBX 3 15 1 4
BITMAP
C0
60
80
40
C0
40
40
40
40
40
40
40
40
40
40
ENDCHAR
STARTCHAR 0673
ENCODING 1651
SWIDTH 192 0
DWIDTH 4 0
BBX 4 17 0 -2
BITMAP
20
60
20
20
20
20
20
20
20
20
20
20
00
00
30
20
C0
ENDCHAR
STARTCHAR 0674
ENCODING 1652
SWIDTH 192 0
DWIDTH 4 0
BBX 3 3 1 15
BITMAP
40
E0
80
ENDCHAR
STARTCHAR 0675
ENCODING 1653
SWIDTH 192 0
DWIDTH 4 0
BBX 5 12 1 3
BITMAP
58
D0
60
40
40
40
40
40
40
40
40
40
ENDCHAR
STARTCHAR 0676
ENCODING 1654
SWIDTH 432 0
DWIDTH 9 0
BBX 10 14 1 -2
BITMAP
0180
01C0
0000
0000
0600
0700
0900
0700
0700
0100
0300
0600
9C00
7000
ENDCHAR
STARTCHAR 0677
ENCODING 1655
SWIDTH 432 0
DWIDTH 9 0
BBX 10 15 1 -2
BITMAP
0800
1980
09C0
1000
2000
0600
0700
0900
0700
0700
0100
0300
0600
9C00
7000
ENDCHAR
STARTCHAR 0678
ENCODING 1656
SWIDTH 624 0
DWIDTH 13 0
BBX 12 15 1 -1
BITMAP
0010
0030
0020
0000
0060
00F0
0110
8200
8200
83E0
81E0
8060
81C0
FF80
7E00
ENDCHAR
STARTCHAR 0679
ENCODING 1657
SWIDTH 720 0
DWIDTH 15 0
BBX 14 14 1 3
BITMAP
0400
0400
0400
0400
03C0
0FC0
0000
0008
8008
800C
8004
8004
FFFC
7FFC
ENDCHAR
STARTCHAR 067A
ENCODING 1658
SWIDTH 720 0
DWIDTH 15 0
BBX 14 12 1 4
BITMAP
0600
0000
0300
0300
0000
0008
8008
800C
8004
8004
FFFC
7FFC
ENDCHAR
STARTCHAR 067B
ENCODING 1659
SWIDTH 720 0
DWIDTH 15 0
BBX 14 13 1 -3
BITMAP
0008
8008
800C
8004
8004
FFFC
7FFC
0000
0000
0300
0100
0100
0300
ENDCHAR
STARTCHAR 067C
ENCODING 1660
SWIDTH 720 0
DWIDTH 15 0
BBX 14 12 1 1
BITMAP
0180
0580
0400
0008
8008
800C
8004
8004
FFFC
7FFC
0480
0300
ENDCHAR
STARTCHAR 067D
ENCODING 1661
SWIDTH 720 0
DWIDTH 15 0
BBX 14 13 1 3
BITMAP
0100
0180
0C00
0100
0300
0000
0008
8008
800C
8004
8004
FFFC
7FFC
ENDCHAR
STARTCHAR 067E
ENCODING 1662
SWIDTH 720 0
DWIDTH 15 0
BBX 14 13 1 -4
BITMAP
0008
8008
800C
8004
8004
FFFC
7FFC
0000
0000
0180
0680
0100
0180
ENDCHAR
STARTCHAR 067F
ENCODING 1663
SWIDTH 720 0
DWIDTH 15 0
BBX 14 12 1 4
BITMAP
0180
0C00
0580
0780
0400
0008
8008
800C
8004
8004
FFFC
7FFC
ENDCHAR
STARTCHAR 0680
ENCODING 1664
SWIDTH 720 0
DWIDTH 15 0
BBX 14 14 1 -4
BITMAP
0008
8008
800C
8004
8004
FFFC
7FFC
0000
0000
0180
0680
0480
0580
0600
ENDCHAR
STARTCHAR 0681
ENCODING 1665
SWIDTH 576 0
DWIDTH 12 0
BBX 9 18 1 -4
BITMAP
0400
0C00
0800
0000
0000
7F80
FF80
1C00
2000
4000
8000
8000
8000
8000
8000
C000
7800
3F80
ENDCHAR
STARTCHAR 0682
ENCODING 1666
SWIDTH 576 0
DWIDTH 12 0
BBX 9 19 1 -3
BITMAP
1800
0800
0C00
0C00
0000
0000
7F80
FF80
1C00
2000
4000
8000
8000
8000
8000
8000
C000
7800
3F80
ENDCHAR
STARTCHAR 0683
ENCODING 1667
SWIDTH 576 0
DWIDTH 12 0
BBX 9 13 1 -4
BITMAP
7F80
FF80
1C00
2000
4000
8000
8300
9A00
8800
8000
C000
7800
3F80
ENDCHAR
STARTCHAR 0684
ENCODING 1668
SWIDTH 576 0
DWIDTH 12 0
BBX 9 13 1 -4
BITMAP
7F80
FF80
1C00
2000
4000
8C00
8C00
8000
8600
8400
C000
7800
3F80
ENDCHAR
STARTCHAR 0685
ENCODING 1669
SWIDTH 576 0
DWIDTH 12 0
BBX 9 19 1 -3
BITMAP
1800
0800
1600
1800
0000
0000
7F80
FF80
1C00
2000
4000
8000
8000
8000
8000
8000
C000
7800
3F80
ENDCHAR
STARTCHAR 0686
ENCODING 1670
SWIDTH 576 0
DWIDTH 12 0
BBX 9 13 1 -4
BITMAP
7F80
FF80
1C00
2000
4000
8300
9A00
8800
8600
8200
C000
7800
3F80
ENDCHAR
STARTCHAR 0687
ENCODING 1671
SWIDTH 576 0
DWIDTH 12 0
BBX 9 13 1 -4
BITMAP
7F80
FF80
1C00
2000
4200
8B00
9800
8300
8D00
8C00
C000
7800
3F80
ENDCHAR
STARTCHAR 0688
ENCODING 1672
SWIDTH 336 0
DWIDTH 7 0
BBX 6 15 1 4
BITMAP
40
40
40
58
24
FC
00
10
18
0C
04
04
04
FC
FC
ENDCHAR
STARTCHAR 0689
ENCODING 1673
SWIDTH 336 0
DWIDTH 7 0
BBX 6 10 1 2
BITMAP
10
18
0C
04
04
04
FC
FC
48
30
ENDCHAR
STARTCHAR 068A
ENCODING 1674
SWIDTH 336 0
DWIDTH 7 0
BBX 6 12 1 0
BITMAP
10
18
0C
04
04
04
FC
FC
00
00
30
10
ENDCHAR
STARTCHAR 068B
ENCODING 1675
SWIDTH 336 0
DWIDTH 7 0
BBX 6 19 1 0
BITMAP
40
40
40
58
24
FC
00
10
18
0C
04
04
04
FC
FC
00
00
30
10
ENDCHAR
STARTCHAR 068C
ENCODING 1676
SWIDTH 336 0
DWIDTH 7 0
BBX 6 12 1 4
BITMAP
38
C0
40
00
10
18
0C
04
04
04
FC
FC
ENDCHAR
STARTCHAR 068D
ENCODING 1677
SWIDTH 336 0
DWIDTH 7 0
BBX 6 12 1 -1
BITMAP
10
18
0C
04
04
04
FC
FC
00
00
18
68
ENDCHAR
STARTCHAR 068E
ENCODING 1678
SWIDTH 336 0
DWIDTH 7 0
BBX 6 15 1 3
BITMAP
40
60
10
58
C0
00
00
10
18
0C
04
04
04
FC
FC
ENDCHAR
STARTCHAR 068F
ENCODING 1679
SWIDTH 336 0
DWIDTH 7 0
BBX 6 14 1 4
BITMAP
B0
D0
20
30
00
00
10
18
0C
04
04
04
FC
FC
ENDCHAR
STARTCHAR 0690
ENCODING 1680
SWIDTH 336 0
DWIDTH 7 0
BBX 6 14 1 4
BITMAP
B0
D0
18
58
40
00
10
18
0C
04
04
04
FC
FC
ENDCHAR
STARTCHAR 0691
ENCODING 1681
SWIDTH 480 0
DWIDTH 10 0
BBX 9 19 1 -2
BITMAP
0800
0800
0800
0800
0780
1F80
0000
0000
0100
0180
0080
0080
0080
0080
0080
0180
0300
8E00
7C00
ENDCHAR
STARTCHAR 0692
ENCODING 1682
SWIDTH 480 0
DWIDTH 10 0
BBX 9 15 1 -2
BITMAP
0500
0200
0000
0000
0100
0180
0080
0080
0080
0080
0080
0180
0300
8E00
7C00
ENDCHAR
STARTCHAR 0693
ENCODING 1683
SWIDTH 480 0
DWIDTH 10 0
BBX 9 12 1 -3
BITMAP
0100
0180
0080
0080
0080
0080
0080
0180
0300
8E80
7E80
0100
ENDCHAR
STARTCHAR 0694
ENCODING 1684
SWIDTH 480 0
DWIDTH 10 0
BBX 10 12 1 -3
BITMAP
0100
0180
0080
0080
0080
0080
0080
0180
0300
8E00
7DC0
0080
ENDCHAR
STARTCHAR 0695
ENCODING 1685
SWIDTH 480 0
DWIDTH 10 0
BBX 9 13 1 -4
BITMAP
0100
0180
0080
0080
0080
0080
0080
0180
0300
8E00
7C00
0280
0100
ENDCHAR
STARTCHAR 0696
ENCODING 1686
SWIDTH 480 0
DWIDTH 10 0
BBX 10 12 1 -3
BITMAP
0100
0180
0080
0080
0080
1880
1880
0180
0300
8E00
7DC0
0080
ENDCHAR
STARTCHAR 0697
ENCODING 1687
SWIDTH 480 0
DWIDTH 10 0
BBX 9 15 1 -2
BITMAP
0300
0F00
0800
0000
0100
0180
0080
0080
0080
0080
0080
0180
0300
8E00
7C00
ENDCHAR
STARTCHAR 0698
ENCODING 1688
SWIDTH 480 0
DWIDTH 10 0
BBX 9 17 1 -2
BITMAP
0400
0600
0180
0F00
0400
0000
0100
0180
0080
0080
0080
0080
0080
0180
0300
8E00
7C00
ENDCHAR
STARTCHAR 0699
ENCODING 1689
SWIDTH 480 0
DWIDTH 10 0
BBX 9 17 1 -1
BITMAP
1600
1800
0300
0F00
0800
0000
0100
0180
0080
0080
0080
0080
0080
0180
0300
8E00
7C00
ENDCHAR
STARTCHAR 069A
ENCODING 1690
SWIDTH 816 0
DWIDTH 17 0
BBX 16 13 1 -2
BITMAP
0018
0018
0000
0000
00C1
40C9
8045
807F
807B
8040
80C0
C386
FF02
ENDCHAR
STARTCHAR 069B
ENCODING 1691
SWIDTH 816 0
DWIDTH 17 0
BBX 16 11 1 -3
BITMAP
00C1
40C9
8045
807F
807B
8040
80C0
C383
FF0D
000A
0003
ENDCHAR
STARTCHAR 069C
ENCODING 1692
SWIDTH 816 0
DWIDTH 17 0
BBX 16 18 1 -4
BITMAP
0030
0030
000C
003C
0020
0000
0000
00C1
40C9
8045
807F
807B
8040
80C0
C383
FF0D
000A
0003
ENDCHAR
STARTCHAR 069D
ENCODING 1693
SWIDTH 1104 0
DWIDTH 23 0
BBX 22 10 1 -1
BITMAP
00C0F8
40C19C
80460C
807FFC
807FFC
804000
808000
C380C0
FF0340
000200
ENDCHAR
STARTCHAR 069E
ENCODING 1694
SWIDTH 1104 0
DWIDTH 23 0
BBX 22 16 1 -2
BITMAP
000300
000300
0000C0
0003C0
000200
000000
000000
00C0F8
40C19C
80460C
807FFC
807FFC
804000
808000
C38000
FF0000
ENDCHAR
STARTCHAR 069F
ENCODING 1695
SWIDTH 576 0
DWIDTH 12 0
BBX 13 13 -1 4
BITMAP
0C00
1CC0
0CC0
0830
04F0
0480
0400
0400
05F8
07B8
0C18
FFF8
FFF8
ENDCHAR
STARTCHAR 06A0
ENCODING 1696
SWIDTH 528 0
DWIDTH 11 0
BBX 10 22 0 -4
BITMAP
2000
3000
0800
2C00
6000
0000
0000
3C00
6000
8000
4180
7780
3C00
3000
6000
4000
8000
8000
C000
6000
7C00
3FC0
ENDCHAR
STARTCHAR 06A1
ENCODING 1697
SWIDTH 768 0
DWIDTH 16 0
BBX 16 7 0 3
BITMAP
4003
8007
800D
800D
4007
7FFF
1FFF
ENDCHAR
STARTCHAR 06A2
ENCODING 1698
SWIDTH 768 0
DWIDTH 16 0
BBX 16 11 0 -1
BITMAP
4003
8007
800D
800D
4007
7FFF
1FFF
0000
0000
0003
0002
ENDCHAR
STARTCHAR 06A3
ENCODING 1699
SWIDTH 768 0
DWIDTH 16 0
BBX 16 14 0 -1
BITMAP
0006
0002
0000
4003
8007
800D
800D
4007
7FFF
1FFF
0000
0000
00C0
00C0
ENDCHAR
STARTCHAR 06A4
ENCODING 1700
SWIDTH 768 0
DWIDTH 16 0
BBX 16 13 0 3
BITMAP
000C
000C
0003
000F
0008
0000
4003
8007
800D
800D
4007
7FFF
1FFF
ENDCHAR
STARTCHAR 06A5
ENCODING 1701
SWIDTH 768 0
DWIDTH 16 0
BBX 17 13 0 -4
BITMAP
400300
800700
800D00
800D00
400700
7FFF00
1FFF00
000000
000000
000180
000680
000500
000180
ENDCHAR
STARTCHAR 06A6
ENCODING 1702
SWIDTH 768 0
DWIDTH 16 0
BBX 16 14 0 3
BITMAP
0002
0003
0018
0003
000F
000C
0000
4003
8007
800D
800D
4007
7FFF
1FFF
ENDCHAR
STARTCHAR 06A7
ENCODING 1703
SWIDTH 576 0
DWIDTH 12 0
BBX 11 15 1 -2
BITMAP
0100
0180
0000
0000
01C0
01E0
0260
81E0
81E0
8020
8020
8060
C1E0
7F80
1C00
ENDCHAR
STARTCHAR 06A8
ENCODING 1704
SWIDTH 576 0
DWIDTH 12 0
BBX 11 17 1 -2
BITMAP
0200
0600
0080
0680
0200
0000
01C0
01E0
0260
81E0
81E0
8020
8020
8060
C1E0
7F80
1C00
ENDCHAR
STARTCHAR 06A9
ENCODING 1705
SWIDTH 816 0
DWIDTH 17 0
BBX 17 12 0 3
BITMAP
000300
000F00
003800
002000
003000
003800
401C00
800600
800300
800180
FFFF80
7FFF80
ENDCHAR
STARTCHAR 06AA
ENCODING 1706
SWIDTH 816 0
DWIDTH 17 0
BBX 17 11 0 3
BITMAP
004000
03C000
070000
080000
180000
0F8000
03FC00
801F00
C00180
FFFF80
7FFF80
ENDCHAR
STARTCHAR 06AB
ENCODING 1707
SWIDTH 816 0
DWIDTH 17 0
BBX 17 12 0 3
BITMAP
000300
000F00
003D00
002700
003000
003800
401C00
800600
800300
800180
FFFF80
7FFF80
ENDCHAR
STARTCHAR 06AC
ENCODING 1708
SWIDTH 624 0
DWIDTH 13 0
BBX 13 13 0 3
BITMAP
0220
0230
0030
0120
0230
0410
0390
4090
9F10
8010
C010
7FF8
3FF8
ENDCHAR
STARTCHAR 06AD
ENCODING 1709
SWIDTH 624 0
DWIDTH 13 0
BBX 13 15 0 3
BITMAP
0600
0400
03A0
0D30
0430
0120
0230
0410
0390
4090
9F10
8010
C010
7FF8
3FF8
ENDCHAR
STARTCHAR 06AE
ENCODING 1710
SWIDTH 624 0
DWIDTH 13 0
BBX 13 19 0 -4
BITMAP
0020
0030
0030
0120
0230
0410
0390
4090
9F10
8010
C010
7FF8
3FF8
0000
0000
0180
0F00
0400
0300
ENDCHAR
STARTCHAR 06AF
ENCODING 1711
SWIDTH 816 0
DWIDTH 17 0
BBX 17 15 0 3
BITMAP
000100
000700
001C00
007300
004F00
003800
002000
003000
003800
401C00
800600
800300
800180
FFFF80
7FFF80
ENDCHAR
STARTCHAR 06B0
ENCODING 1712
SWIDTH 816 0
DWIDTH 17 0
BBX 17 15 0 3
BITMAP
000100
000700
001C00
007300
004F00
003D00
002700
003000
003800
401C00
800600
800300
800180
FFFF80
7FFF80
ENDCHAR
STARTCHAR 06B1
ENCODING 1713
SWIDTH 816 0
DWIDTH 17 0
BBX 17 15 0 4
BITMAP
000900
002700
001C00
007300
004F00
003800
002000
003000
003800
401C00
800600
800300
800180
FFFF80
7FFF80
ENDCHAR
STARTCHAR 06B2
ENCODING 1714
SWIDTH 816 0
DWIDTH 17 0
BBX 17 20 0 -2
BITMAP
000100
000700
001C00
007300
004F00
003800
002000
003000
003800
401C00
800600
800300
800180
FFFF80
7FFF80
000000
000000
003000
01A000
008000
ENDCHAR
STARTCHAR 06B3
ENCODING 1715
SWIDTH 816 0
DWIDTH 17 0
BBX 17 21 0 -3
BITMAP
000100
000700
001C00
007300
004F00
003800
002000
003000
003800
401C00
800600
800300
800180
FFFF80
7FFF80
000000
000000
00C000
004000
004000
00C000
ENDCHAR
STARTCHAR 06B4
ENCODING 1716
SWIDTH 816 0
DWIDTH 17 0
BBX 17 15 0 4
BITMAP
002900
006700
001C00
007300
004F00
003800
002000
003000
003800
401C00
800600
800300
800180
FFFF80
7FFF80
ENDCHAR
STARTCHAR 06B5
ENCODING 1717
SWIDTH 528 0
DWIDTH 11 0
BBX 10 19 1 0
BITMAP
0280
0300
0100
0100
0180
0180
0080
0080
0080
0080
0080
0080
8080
8080
8040
8040
8180
FF80
3E00
ENDCHAR
STARTCHAR 06B6
ENCODING 1718
SWIDTH 528 0
DWIDTH 11 0
BBX 10 18 1 1
BITMAP
0180
0000
0100
0180
0180
0080
0080
0080
0080
0080
0080
8080
8080
8040
8040
8180
FF80
3E00
ENDCHAR
STARTCHAR 06B7
ENCODING 1719
SWIDTH 528 0
DWIDTH 11 0
BBX 10 19 1 0
BITMAP
0200
0280
0600
0100
0180
0180
0080
0080
0080
0080
0080
0080
8080
8080
8040
8040
8180
FF80
3E00
ENDCHAR
STARTCHAR 06B8
ENCODING 1720
SWIDTH 528 0
DWIDTH 11 0
BBX 10 20 1 -4
BITMAP
0100
0180
0180
0080
0080
0080
0080
0080
0080
8080
8080
8040
8040
8180
FF80
3E00
0400
1600
3000
0C00
ENDCHAR
STARTCHAR 06B9
ENCODING 1721
SWIDTH 528 0
DWIDTH 11 0
BBX 10 16 1 -4
BITMAP
0800
0C00
0000
0000
0040
40C0
8040
8040
8040
8040
80C0
C380
FF00
0800
0800
0C00
ENDCHAR
STARTCHAR 06BA
ENCODING 1722
SWIDTH 528 0
DWIDTH 11 0
BBX 10 10 1 -1
BITMAP
0040
40C0
8040
8040
8040
8040
80C0
C380
FF00
0800
ENDCHAR
STARTCHAR 06BB
ENCODING 1723
SWIDTH 528 0
DWIDTH 11 0
BBX 10 18 1 -2
BITMAP
1800
1000
0800
0A00
0D00
3F00
0000
0000
0040
40C0
8040
8040
8040
8040
80C0
C380
FF00
0800
ENDCHAR
STARTCHAR 06BC
ENCODING 1724
SWIDTH 528 0
DWIDTH 11 0
BBX 10 16 1 -4
BITMAP
0800
0C00
0000
0000
0040
40C0
8040
8040
8040
8040
80C0
C380
FF00
1C00
1400
1800
ENDCHAR
STARTCHAR 06BD
ENCODING 1725
SWIDTH 528 0
DWIDTH 11 0
BBX 10 17 1 -2
BITMAP
1000
1800
0600
1E00
1000
0000
0000
0040
40C0
8040
8040
8040
8040
80C0
C380
FF00
0800
ENDCHAR
STARTCHAR 06BE
ENCODING 1726
SWIDTH 432 0
DWIDTH 9 0
BBX 9 8 -1 4
BITMAP
0800
0C00
0E00
1700
2500
3D80
FE80
E380
ENDCHAR
STARTCHAR 06BF
ENCODING 1727
SWIDTH 576 0
DWIDTH 12 0
BBX 9 17 1 -4
BITMAP
0C00
0800
0000
0000
7F80
FF80
1C00
2000
4000
8300
9A00
8800
8600
8200
C000
7800
3F80
ENDCHAR
STARTCHAR 06C0
ENCODING 1728
SWIDTH 288 0
DWIDTH 6 0
BBX 4 10 1 3
BITMAP
60
40
20
00
40
70
B0
90
90
F0
ENDCHAR
STARTCHAR 06C1
ENCODING 1729
SWIDTH 384 0
DWIDTH 8 0
BBX 8 5 0 1
BITMAP
18
3C
27
43
80
ENDCHAR
STARTCHAR 06C2
ENCODING 1730
SWIDTH 384 0
DWIDTH 8 0
BBX 8 9 0 1
BITMAP
18
10
20
00
18
3C
27
43
80
ENDCHAR
STARTCHAR 06C3
ENCODING 1731
SWIDTH 384 0
DWIDTH 8 0
BBX 8 9 0 2
BITMAP
0C
60
00
00
18
3C
27
43
80
ENDCHAR
STARTCHAR 06C4
ENCODING 1732
SWIDTH 432 0
DWIDTH 9 0
BBX 8 10 1 -2
BITMAP
06
07
09
07
07
01
1B
26
9C
70
ENDCHAR
STARTCHAR 06C5
ENCODING 1733
SWIDTH 432 0
DWIDTH 9 0
BBX 8 10 1 -2
BITMAP
06
07
09
07
07
19
07
06
9C
70
ENDCHAR
STARTCHAR 06C6
ENCODING 1734
SWIDTH 432 0
DWIDTH 9 0
BBX 8 14 1 -2
BITMAP
05
02
00
00
06
07
09
07
07
01
03
06
9C
70
ENDCHAR
STARTCHAR 06C7
ENCODING 1735
SWIDTH 432 0
DWIDTH 9 0
BBX 8 16 1 -2
BITMAP
02
06
02
05
08
00
06
07
09
07
07
01
03
06
9C
70
ENDCHAR
STARTCHAR 06C8
ENCODING 1736
SWIDTH 432 0
DWIDTH 9 0
BBX 8 17 1 -2
BITMAP
04
04
04
04
04
00
00
06
07
09
07
07
01
03
06
9C
70
ENDCHAR
STARTCHAR 06C9
ENCODING 1737
SWIDTH 432 0
DWIDTH 9 0
BBX 8 14 1 -2
BITMAP
02
05
00
00
06
07
09
07
07
01
03
06
9C
70
ENDCHAR
STARTCHAR 06CA
ENCODING 1738
SWIDTH 432 0
DWIDTH 9 0
BBX 8 15 1 -2
BITMAP
02
0B
18
00
00
06
07
09
07
07
01
03
06
9C
70
ENDCHAR
STARTCHAR 06CB
ENCODING 1739
SWIDTH 432 0
DWIDTH 9 0
BBX 8 17 1 -2
BITMAP
08
0C
02
0B
18
00
00
06
07
09
07
07
01
03
06
9C
70
ENDCHAR
STARTCHAR 06CC
ENCODING 1740
SWIDTH 624 0
DWIDTH 13 0
BBX 12 11 1 -1
BITMAP
0060
00F0
0110
8200
8200
83E0
81E0
8060
81C0
FF80
7E00
ENDCHAR
STARTCHAR 06CD
ENCODING 1741
SWIDTH 624 0
DWIDTH 13 0
BBX 14 11 -1 -1
BITMAP
0018
003C
0044
2080
E080
40F8
4078
4018
2070
3FE0
1F80
ENDCHAR
STARTCHAR 06CE
ENCODING 1742
SWIDTH 624 0
DWIDTH 13 0
BBX 12 12 1 -1
BITMAP
1400
0860
00F0
0110
8200
8200
83E0
81E0
8060
81C0
FF80
7E00
ENDCHAR
STARTCHAR 06CF
ENCODING 1743
SWIDTH 432 0
DWIDTH 9 0
BBX 8 14 1 -2
BITMAP
0C
04
00
00
06
07
09
07
07
01
03
06
9C
70
ENDCHAR
STARTCHAR 06D0
ENCODING 1744
SWIDTH 624 0
DWIDTH 13 0
BBX 12 14 1 -4
BITMAP
0060
00F0
0110
8200
8200
83E0
81E0
8060
81C0
FF80
7E00
0000
0800
0800
ENDCHAR
STARTCHAR 06D1
ENCODING 1745
SWIDTH 624 0
DWIDTH 13 0
BBX 12 14 1 -4
BITMAP
0060
00F0
0110
8200
8200
83E0
81E0
8060
81C0
FF80
7E00
0000
0800
0400
ENDCHAR
STARTCHAR 06D2
ENCODING 1746
SWIDTH 816 0
DWIDTH 17 0
BBX 15 9 1 -1
BITMAP
0100
0300
0500
1800
7000
C000
8000
FFFE
7FF8
ENDCHAR
STARTCHAR 06D3
ENCODING 1747
SWIDTH 816 0
DWIDTH 17 0
BBX 15 11 1 -1
BITMAP
0800
1800
1100
0300
0500
1800
7000
C000
8000
FFFE
7FF8
ENDCHAR
STARTCHAR 06D4
ENCODING 1748
SWIDTH 192 0
DWIDTH 4 0
BBX 4 2 0 3
BITMAP
F0
F0
ENDCHAR
STARTCHAR 06D5
ENCODING 1749
SWIDTH 288 0
DWIDTH 6 0
BBX 4 6 1 3
BITMAP
40
70
B0
90
90
F0
ENDCHAR
STARTCHAR 06D6
ENCODING 1750
SWIDTH 0 0
DWIDTH 0 0
BBX 10 7 -5 11
BITMAP
1000
1000
10C0
1B40
7FC0
8000
FF00
ENDCHAR
STARTCHAR 06D7
ENCODING 1751
SWIDTH 0 0
DWIDTH 0 0
BBX 8 7 -4 11
BITMAP
14
16
1A
16
3E
C0
FF
ENDCHAR
STARTCHAR 06D8
ENCODING 1752
SWIDTH 0 0
DWIDTH 0 0
BBX 4 2 -2 11
BITMAP
30
F0
ENDCHAR
STARTCHAR 06D9
ENCODING 1753
SWIDTH 0 0
DWIDTH 0 0
BBX 4 6 -2 11
BITMAP
90
90
50
20
20
60
ENDCHAR
STARTCHAR 06DA
ENCODING 1754
SWIDTH 0 0
DWIDTH 0 0
BBX 4 6 -2 11
BITMAP
F0
80
80
A0
80
F0
ENDCHAR
STARTCHAR 06DB
ENCODING 1755
SWIDTH 0 0
DWIDTH 0 0
BBX 2 2 -1 11
BITMAP
80
C0
ENDCHAR
STARTCHAR 06DC
ENCODING 1756
SWIDTH 0 0
DWIDTH 0 0
BBX 8 5 -4 11
BITMAP
08
0B
87
88
F0
ENDCHAR
STARTCHAR 06DD
ENCODING 1757
SWIDTH 1104 0
DWIDTH 23 0
BBX 22 22 1 -4
BITMAP
03FE00
1E01C0
17FF40
3800A0
600010
400018
C00008
800008
800004
800004
800004
800004
800004
80000C
800008
400008
400010
200030
1C00E0
13FF40
0F07C0
00FC00
ENDCHAR
STARTCHAR 06DE
ENCODING 1758
SWIDTH 1104 0
DWIDTH 23 0
BBX 21 21 1 -3
BITMAP
006000
009000
010800
3EF7C0
240240
280140
1000C0
200040
606060
A09050
A08848
609050
206060
100040
2800C0
240140
220240
1FFFC0
008800
005000
002000
ENDCHAR
STARTCHAR 06DF
ENCODING 1759
SWIDTH 0 0
DWIDTH 0 0
BBX 2 1 -1 11
BITMAP
C0
ENDCHAR
STARTCHAR 06E0
ENCODING 1760
SWIDTH 0 0
DWIDTH 0 0
BBX 2 1 -1 11
BITMAP
C0
ENDCHAR
STARTCHAR 06E1
ENCODING 1761
SWIDTH 0 0
DWIDTH 0 0
BBX 6 3 -3 11
BITMAP
20
10
FC
ENDCHAR
STARTCHAR 06E2
ENCODING 1762
SWIDTH 0 0
DWIDTH 0 0
BBX 4 4 -2 11
BITMAP
20
70
80
80
ENDCHAR
STARTCHAR 06E3
ENCODING 1763
SWIDTH 0 0
DWIDTH 0 0
BBX 8 5 -4 -4
BITMAP
0B
8B
85
88
70
ENDCHAR
STARTCHAR 06E4
ENCODING 1764
SWIDTH 0 0
DWIDTH 0 0
BBX 0 0 -1 10
BITMAP
ENDCHAR
STARTCHAR 06E5
ENCODING 1765
SWIDTH 192 0
DWIDTH 4 0
BBX 3 4 1 11
BITMAP
60
60
20
C0
ENDCHAR
STARTCHAR 06E6
ENCODING 1766
SWIDTH 384 0
DWIDTH 8 0
BBX 8 4 0 11
BITMAP
10
20
C0
FF
ENDCHAR
STARTCHAR 06E7
ENCODING 1767
SWIDTH 0 0
DWIDTH 0 0
BBX 8 4 -4 11
BITMAP
10
20
40
FF
ENDCHAR
STARTCHAR 06E8
ENCODING 1768
SWIDTH 0 0
DWIDTH 0 0
BBX 4 6 -2 11
BITMAP
20
00
10
90
90
F0
ENDCHAR
STARTCHAR 06E9
ENCODING 1769
SWIDTH 624 0
DWIDTH 13 0
BBX 11 17 1 0
BITMAP
0400
1A00
1500
3A80
6D40
D2A0
B340
7380
7380
7380
7380
7380
7380
7380
6D80
5F40
FFE0
ENDCHAR
STARTCHAR 06EA
ENCODING 1770
SWIDTH 0 0
DWIDTH 0 0
BBX 3 2 -2 -2
BITMAP
E0
60
ENDCHAR
STARTCHAR 06EB
ENCODING 1771
SWIDTH 0 0
DWIDTH 0 0
BBX 4 3 -2 11
BITMAP
60
90
60
ENDCHAR
STARTCHAR 06EC
ENCODING 1772
SWIDTH 0 0
DWIDTH 0 0
BBX 2 1 -1 11
BITMAP
C0
ENDCHAR
STARTCHAR 06ED
ENCODING 1773
SWIDTH 0 0
DWIDTH 0 0
BBX 4 5 -2 -4
BITMAP
60
30
C0
80
80
ENDCHAR
STARTCHAR 06F0
ENCODING 1776
SWIDTH 528 0
DWIDTH 11 0
BBX 3 4 4 5
BITMAP
C0
E0
E0
60
ENDCHAR
STARTCHAR 06F1
ENCODING 1777
SWIDTH 528 0
DWIDTH 11 0
BBX 4 10 3 4
BITMAP
C0
E0
60
20
30
30
10
10
10
10
ENDCHAR
STARTCHAR 06F2
ENCODING 1778
SWIDTH 528 0
DWIDTH 11 0
BBX 6 11 2 3
BITMAP
80
C4
FC
7C
20
30
10
10
10
10
10
ENDCHAR
STARTCHAR 06F3
ENCODING 1779
SWIDTH 528 0
DWIDTH 11 0
BBX 9 12 1 3
BITMAP
0480
4680
FF80
7A00
2000
3000
1000
1000
1000
1000
1000
1000
ENDCHAR
STARTCHAR 06F4
ENCODING 1780
SWIDTH 528 0
DWIDTH 11 0
BBX 7 12 2 3
BITMAP
8C
90
E0
F6
7E
60
20
20
20
20
20
20
ENDCHAR
STARTCHAR 06F5
ENCODING 1781
SWIDTH 528 0
DWIDTH 11 0
BBX 7 11 2 4
BITMAP
10
38
1C
2C
46
82
82
82
DE
FC
60
ENDCHAR
STARTCHAR 06F6
ENCODING 1782
SWIDTH 528 0
DWIDTH 11 0
BBX 7 11 2 3
BITMAP
18
3C
40
C2
FE
7C
10
30
20
40
40
ENDCHAR
STARTCHAR 06F7
ENCODING 1783
SWIDTH 528 0
DWIDTH 11 0
BBX 9 11 1 3
BITMAP
0080
4080
C180
E300
6200
3200
1400
1C00
0800
0800
0800
ENDCHAR
STARTCHAR 06F8
ENCODING 1784
SWIDTH 528 0
DWIDTH 11 0
BBX 8 11 2 3
BITMAP
10
10
10
10
28
28
4C
46
C7
83
83
ENDCHAR
STARTCHAR 06F9
ENCODING 1785
SWIDTH 528 0
DWIDTH 11 0
BBX 6 12 2 3
BITMAP
38
78
48
88
F8
78
08
0C
0C
04
04
04
ENDCHAR
STARTCHAR 06FA
ENCODING 1786
SWIDTH 816 0
DWIDTH 17 0
BBX 16 16 1 -2
BITMAP
0030
0030
000C
003C
0020
0000
0000
00C1
40C9
8045
807F
807B
8040
80C0
C386
FF02
ENDCHAR
STARTCHAR 06FB
ENCODING 1787
SWIDTH 1104 0
DWIDTH 23 0
BBX 22 13 1 -2
BITMAP
000600
000600
000000
000000
00C0F8
40C19C
80460C
807FFC
807FFC
804000
808000
C38180
FF0180
ENDCHAR
STARTCHAR 06FC
ENCODING 1788
SWIDTH 528 0
DWIDTH 11 0
BBX 10 19 0 -4
BITMAP
1800
1800
0000
0000
3C00
6000
8000
4180
7780
3C00
3000
6000
4000
8300
8300
C000
6000
7C00
3FC0
ENDCHAR
STARTCHAR 06FD
ENCODING 1789
SWIDTH 432 0
DWIDTH 9 0
BBX 6 11 1 -3
BITMAP
38
48
40
EC
78
60
00
28
28
28
28
ENDCHAR
STARTCHAR 06FE
ENCODING 1790
SWIDTH 336 0
DWIDTH 7 0
BBX 7 10 0 -4
BITMAP
3C
2E
1E
7E
40
80
94
54
54
54
ENDCHAR
STARTCHAR 1E80
ENCODING 7808
SWIDTH 960 0
DWIDTH 20 0
BBX 20 19 0 0
BITMAP
00C000
004000
004000
002000
000000
F9F1F0
30E040
306040
186080
187080
187080
0C7100
0C9900
0C9900
069A00
070E00
070C00
020C00
020400
ENDCHAR
STARTCHAR 1E81
ENCODING 7809
SWIDTH 720 0
DWIDTH 15 0
BBX 13 14 1 0
BITMAP
0600
0200
0200
0000
0000
C708
4310
6310
6310
25A0
34A0
18E0
18C0
1040
ENDCHAR
STARTCHAR 1E82
ENCODING 7810
SWIDTH 960 0
DWIDTH 20 0
BBX 20 19 0 0
BITMAP
003000
006000
004000
000000
000000
F9F1F0
30E040
306040
186080
187080
187080
0C7100
0C9900
0C9900
069A00
070E00
070C00
020C00
020400
ENDCHAR
STARTCHAR 1E83
ENCODING 7811
SWIDTH 720 0
DWIDTH 15 0
BBX 13 14 1 0
BITMAP
0300
0200
0200
0000
0000
C708
4310
6310
6310
25A0
34A0
18E0
18C0
1040
ENDCHAR
STARTCHAR 1E84
ENCODING 7812
SWIDTH 960 0
DWIDTH 20 0
BBX 20 17 0 0
BITMAP
019800
019000
000000
F9F1F0
30E040
306040
186080
187080
187080
0C7100
0C9900
0C9900
069A00
070E00
070C00
020C00
020400
ENDCHAR
STARTCHAR 1E85
ENCODING 7813
SWIDTH 720 0
DWIDTH 15 0
BBX 13 14 1 0
BITMAP
0880
0D80
0880
0000
0000
C708
4310
6310
6310
25A0
34A0
18E0
18C0
1040
ENDCHAR
STARTCHAR 1EA0
ENCODING 7840
SWIDTH 720 0
DWIDTH 15 0
BBX 13 17 1 -3
BITMAP
0200
0200
0700
0700
0980
0980
1180
10C0
10C0
2F60
2060
4060
4030
E078
0000
0600
0600
ENDCHAR
STARTCHAR 1EA1
ENCODING 7841
SWIDTH 432 0
DWIDTH 9 0
BBX 8 13 1 -3
BITMAP
38
4C
C6
C6
1E
66
C6
86
CE
F7
00
30
30
ENDCHAR
STARTCHAR 1EA2
ENCODING 7842
SWIDTH 720 0
DWIDTH 15 0
BBX 13 19 1 0
BITMAP
0200
0500
0100
0200
0000
0200
0200
0700
0700
0980
0980
1180
10C0
10C0
2F60
2060
4060
4030
E078
ENDCHAR
STARTCHAR 1EA3
ENCODING 7843
SWIDTH 432 0
DWIDTH 9 0
BBX 8 14 1 0
BITMAP
38
08
10
00
38
4C
C6
C6
1E
66
C6
86
CE
F7
ENDCHAR
STARTCHAR 1EA4
ENCODING 7844
SWIDTH 720 0
DWIDTH 15 0
BBX 13 19 1 0
BITMAP
0300
0200
0600
0980
0000
0200
0200
0700
0700
0980
0980
1180
10C0
10C0
2F60
2060
4060
4030
E078
ENDCHAR
STARTCHAR 1EA5
ENCODING 7845
SWIDTH 432 0
DWIDTH 9 0
BBX 8 19 1 0
BITMAP
0C
18
10
00
00
38
2C
44
00
38
4C
C6
C6
1E
66
C6
86
CE
F7
ENDCHAR
STARTCHAR 1EA6
ENCODING 7846
SWIDTH 720 0
DWIDTH 15 0
BBX 13 19 1 0
BITMAP
0C00
0200
0600
0980
0000
0200
0200
0700
0700
0980
0980
1180
10C0
10C0
2F60
2060
4060
4030
E078
ENDCHAR
STARTCHAR 1EA7
ENCODING 7847
SWIDTH 432 0
DWIDTH 9 0
BBX 8 19 1 0
BITMAP
70
30
10
00
00
38
2C
44
00
38
4C
C6
C6
1E
66
C6
86
CE
F7
ENDCHAR
STARTCHAR 1EA8
ENCODING 7848
SWIDTH 720 0
DWIDTH 15 0
BBX 13 19 1 0
BITMAP
0200
0200
0600
0980
0000
0200
0200
0700
0700
0980
0980
1180
10C0
10C0
2F60
2060
4060
4030
E078
ENDCHAR
STARTCHAR 1EA9
ENCODING 7849
SWIDTH 432 0
DWIDTH 9 0
BBX 8 19 1 0
BITMAP
10
08
08
00
00
38
2C
44
00
38
4C
C6
C6
1E
66
C6
86
CE
F7
ENDCHAR
STARTCHAR 1EAA
ENCODING 7850
SWIDTH 720 0
DWIDTH 15 0
BBX 13 19 1 0
BITMAP
0400
1B80
0600
0980
0000
0200
0200
0700
0700
0980
0980
1180
10C0
10C0
2F60
2060
4060
4030
E078
ENDCHAR
STARTCHAR 1EAB
ENCODING 7851
SWIDTH 432 0
DWIDTH 9 0
BBX 8 18 1 0
BITMAP
62
BA
8C
00
38
2C
44
00
38
4C
C6
C6
1E
66
C6
86
CE
F7
ENDCHAR
STARTCHAR 1EAC
ENCODING 7852
SWIDTH 720 0
DWIDTH 15 0
BBX 13 20 1 -3
BITMAP
0600
0980
0000
0200
0200
0700
0700
0980
0980
1180
10C0
10C0
2F60
2060
4060
4030
E078
0000
0600
0600
ENDCHAR
STARTCHAR 1EAD
ENCODING 7853
SWIDTH 432 0
DWIDTH 9 0
BBX 8 17 1 -3
BITMAP
38
2C
44
00
38
4C
C6
C6
1E
66
C6
86
CE
F7
00
30
30
ENDCHAR
STARTCHAR 1EAE
ENCODING 7854
SWIDTH 720 0
DWIDTH 15 0
BBX 13 19 1 0
BITMAP
0380
0200
0080
0F00
0000
0200
0200
0700
0700
0980
0980
1180
10C0
10C0
2F60
2060
4060
4030
E078
ENDCHAR
STARTCHAR 1EAF
ENCODING 7855
SWIDTH 432 0
DWIDTH 9 0
BBX 8 19 1 0
BITMAP
0C
18
10
00
00
00
7C
38
00
38
4C
C6
C6
1E
66
C6
86
CE
F7
ENDCHAR
STARTCHAR 1EB0
ENCODING 7856
SWIDTH 720 0
DWIDTH 15 0
BBX 13 19 1 0
BITMAP
0C00
0200
0080
0F00
0000
0200
0200
0700
0700
0980
0980
1180
10C0
10C0
2F60
2060
4060
4030
E078
ENDCHAR
STARTCHAR 1EB1
ENCODING 7857
SWIDTH 432 0
DWIDTH 9 0
BBX 8 19 1 0
BITMAP
70
30
10
08
00
00
7C
38
00
38
4C
C6
C6
1E
66
C6
86
CE
F7
ENDCHAR
STARTCHAR 1EB2
ENCODING 7858
SWIDTH 720 0
DWIDTH 15 0
BBX 13 19 1 0
BITMAP
0200
0200
0080
0F00
0000
0200
0200
0700
0700
0980
0980
1180
10C0
10C0
2F60
2060
4060
4030
E078
ENDCHAR
STARTCHAR 1EB3
ENCODING 7859
SWIDTH 432 0
DWIDTH 9 0
BBX 8 19 1 0
BITMAP
10
28
08
00
00
00
7C
38
00
38
4C
C6
C6
1E
66
C6
86
CE
F7
ENDCHAR
STARTCHAR 1EB4
ENCODING 7860
SWIDTH 720 0
DWIDTH 15 0
BBX 13 19 1 0
BITMAP
0400
1B80
0080
0F00
0000
0200
0200
0700
0700
0980
0980
1180
10C0
10C0
2F60
2060
4060
4030
E078
ENDCHAR
STARTCHAR 1EB5
ENCODING 7861
SWIDTH 432 0
DWIDTH 9 0
BBX 8 18 1 0
BITMAP
62
BA
8C
00
00
7C
38
00
38
4C
C6
C6
1E
66
C6
86
CE
F7
ENDCHAR
STARTCHAR 1EB6
ENCODING 7862
SWIDTH 720 0
DWIDTH 15 0
BBX 13 20 1 -3
BITMAP
0080
0F00
0000
0200
0200
0700
0700
0980
0980
1180
10C0
10C0
2F60
2060
4060
4030
E078
0000
0600
0600
ENDCHAR
STARTCHAR 1EB7
ENCODING 7863
SWIDTH 432 0
DWIDTH 9 0
BBX 8 16 1 -2
BITMAP
7C
38
00
38
4C
C6
C6
1E
66
C6
86
CE
F7
00
30
30
ENDCHAR
STARTCHAR 1EB8
ENCODING 7864
SWIDTH 624 0
DWIDTH 13 0
BBX 12 17 0 -3
BITMAP
FFE0
3020
3020
3000
3000
3040
3FC0
3040
3040
3000
3000
3010
3030
3FE0
4000
0200
0600
ENDCHAR
STARTCHAR 1EB9
ENCODING 7865
SWIDTH 432 0
DWIDTH 9 0
BBX 8 13 1 -3
BITMAP
18
66
86
83
FC
80
C0
C2
76
3C
00
10
18
ENDCHAR
STARTCHAR 1EBA
ENCODING 7866
SWIDTH 624 0
DWIDTH 13 0
BBX 12 19 0 0
BITMAP
0200
0500
0100
0000
0000
FFE0
3020
3020
3000
3000
3040
3FC0
3040
3040
3000
3000
3010
3030
7FE0
ENDCHAR
STARTCHAR 1EBB
ENCODING 7867
SWIDTH 432 0
DWIDTH 9 0
BBX 8 14 1 0
BITMAP
28
08
10
00
18
66
86
83
FC
80
C0
C2
76
3C
ENDCHAR
STARTCHAR 1EBC
ENCODING 7868
SWIDTH 624 0
DWIDTH 13 0
BBX 12 18 0 0
BITMAP
0400
0F40
0380
0000
FFE0
3020
3020
3000
3000
3040
3FC0
3040
3040
3000
3000
3010
3030
7FE0
ENDCHAR
STARTCHAR 1EBD
ENCODING 7869
SWIDTH 432 0
DWIDTH 9 0
BBX 8 14 1 0
BITMAP
30
7A
0C
00
18
66
86
83
FC
80
C0
C2
76
3C
ENDCHAR
STARTCHAR 1EBE
ENCODING 7870
SWIDTH 624 0
DWIDTH 13 0
BBX 12 19 0 0
BITMAP
0180
0000
0300
0480
0000
FFE0
3020
3020
3000
3000
3040
3FC0
3040
3040
3000
3000
3010
3030
7FE0
ENDCHAR
STARTCHAR 1EBF
ENCODING 7871
SWIDTH 432 0
DWIDTH 9 0
BBX 8 19 1 0
BITMAP
0C
0C
08
10
00
18
2C
44
00
18
66
86
83
FC
80
C0
C2
76
3C
ENDCHAR
STARTCHAR 1EC0
ENCODING 7872
SWIDTH 624 0
DWIDTH 13 0
BBX 12 19 0 0
BITMAP
0600
0200
0300
0480
0000
FFE0
3020
3020
3000
3000
3040
3FC0
3040
3040
3000
3000
3010
3030
7FE0
ENDCHAR
STARTCHAR 1EC1
ENCODING 7873
SWIDTH 432 0
DWIDTH 9 0
BBX 8 19 1 0
BITMAP
30
10
18
08
00
18
2C
44
00
18
66
86
83
FC
80
C0
C2
76
3C
ENDCHAR
STARTCHAR 1EC2
ENCODING 7874
SWIDTH 624 0
DWIDTH 13 0
BBX 12 19 0 0
BITMAP
0300
0100
0300
0480
0000
FFE0
3020
3020
3000
3000
3040
3FC0
3040
3040
3000
3000
3010
3030
7FE0
ENDCHAR
STARTCHAR 1EC3
ENCODING 7875
SWIDTH 432 0
DWIDTH 9 0
BBX 8 19 1 0
BITMAP
08
14
08
00
00
18
2C
44
00
18
66
86
83
FC
80
C0
C2
76
3C
ENDCHAR
STARTCHAR 1EC4
ENCODING 7876
SWIDTH 624 0
DWIDTH 13 0
BBX 12 19 0 0
BITMAP
0400
0BC0
0300
0480
0000
FFE0
3020
3020
3000
3000
3040
3FC0
3040
3040
3000
3000
3010
3030
7FE0
ENDCHAR
STARTCHAR 1EC5
ENCODING 7877
SWIDTH 432 0
DWIDTH 9 0
BBX 8 18 1 0
BITMAP
30
7E
0C
00
18
2C
44
00
18
66
86
83
FC
80
C0
C2
76
3C
ENDCHAR
STARTCHAR 1EC6
ENCODING 7878
SWIDTH 624 0
DWIDTH 13 0
BBX 12 20 0 -3
BITMAP
0300
0480
0000
FFE0
3020
3020
3000
3000
3040
3FC0
3040
3040
3000
3000
3010
3030
3FE0
4000
0200
0600
ENDCHAR
STARTCHAR 1EC7
ENCODING 7879
SWIDTH 432 0
DWIDTH 9 0
BBX 8 17 1 -3
BITMAP
18
2C
44
00
18
66
86
83
FC
80
C0
C2
76
3C
00
10
18
ENDCHAR
STARTCHAR 1EC8
ENCODING 7880
SWIDTH 336 0
DWIDTH 7 0
BBX 5 19 1 0
BITMAP
20
50
10
00
00
F8
70
60
60
60
60
60
60
60
60
60
60
60
70
ENDCHAR
STARTCHAR 1EC9
ENCODING 7881
SWIDTH 288 0
DWIDTH 6 0
BBX 3 14 1 0
BITMAP
E0
20
20
00
20
E0
60
60
60
60
60
60
60
60
ENDCHAR
STARTCHAR 1ECA
ENCODING 7882
SWIDTH 336 0
DWIDTH 7 0
BBX 5 17 1 -3
BITMAP
F8
70
60
60
60
60
60
60
60
60
60
60
60
70
00
20
70
ENDCHAR
STARTCHAR 1ECB
ENCODING 7883
SWIDTH 288 0
DWIDTH 6 0
BBX 3 17 1 -3
BITMAP
60
00
00
00
20
E0
60
60
60
60
60
60
60
60
00
60
60
ENDCHAR
STARTCHAR 1ECC
ENCODING 7884
SWIDTH 720 0
DWIDTH 15 0
BBX 13 17 1 -3
BITMAP
0F80
3060
6030
6030
C018
C018
C018
C018
C018
C018
E030
6030
3060
1DC0
0200
0200
0700
ENDCHAR
STARTCHAR 1ECD
ENCODING 7885
SWIDTH 480 0
DWIDTH 10 0
BBX 9 13 1 -3
BITMAP
1800
6600
4300
C300
C180
C180
C180
C100
6300
3600
0800
1800
1800
ENDCHAR
STARTCHAR 1ECE
ENCODING 7886
SWIDTH 720 0
DWIDTH 15 0
BBX 13 19 1 0
BITMAP
0200
0500
0100
0200
0000
0F80
3060
6030
6030
C018
C018
C018
C018
C018
C018
E030
6030
3060
1FC0
ENDCHAR
STARTCHAR 1ECF
ENCODING 7887
SWIDTH 480 0
DWIDTH 10 0
BBX 9 14 1 0
BITMAP
1C00
1400
0800
0000
1800
6600
4300
C300
C180
C180
C180
C100
6300
3E00
ENDCHAR
STARTCHAR 1ED0
ENCODING 7888
SWIDTH 720 0
DWIDTH 15 0
BBX 13 19 1 0
BITMAP
0180
0200
0300
0C80
0000
0F80
3060
6030
6030
C018
C018
C018
C018
C018
C018
E030
6030
3060
1FC0
ENDCHAR
STARTCHAR 1ED1
ENCODING 7889
SWIDTH 480 0
DWIDTH 10 0
BBX 9 19 1 0
BITMAP
0E00
0C00
0800
1000
0000
1C00
3400
2200
0000
1800
6600
4300
C300
C180
C180
C180
C100
6300
3E00
ENDCHAR
STARTCHAR 1ED2
ENCODING 7890
SWIDTH 720 0
DWIDTH 15 0
BBX 13 19 1 0
BITMAP
0600
0200
0300
0C80
0000
0F80
3060
6030
6030
C018
C018
C018
C018
C018
C018
E030
6030
3060
1FC0
ENDCHAR
STARTCHAR 1ED3
ENCODING 7891
SWIDTH 480 0
DWIDTH 10 0
BBX 9 19 1 0
BITMAP
3000
1800
0800
0000
0000
1C00
3400
2200
0000
1800
6600
4300
C300
C180
C180
C180
C100
6300
3E00
ENDCHAR
STARTCHAR 1ED4
ENCODING 7892
SWIDTH 720 0
DWIDTH 15 0
BBX 13 19 1 0
BITMAP
0200
0100
0300
0C80
0000
0F80
3060
6030
6030
C018
C018
C018
C018
C018
C018
E030
6030
3060
1FC0
ENDCHAR
STARTCHAR 1ED5
ENCODING 7893
SWIDTH 480 0
DWIDTH 10 0
BBX 9 19 1 0
BITMAP
0800
1400
0800
0800
0000
1C00
3400
2200
0000
1800
6600
4300
C300
C180
C180
C180
C100
6300
3E00
ENDCHAR
STARTCHAR 1ED6
ENCODING 7894
SWIDTH 720 0
DWIDTH 15 0
BBX 13 19 1 0
BITMAP
0440
0B80
0300
0C80
0000
0F80
3060
6030
6030
C018
C018
C018
C018
C018
C018
E030
6030
3060
1FC0
ENDCHAR
STARTCHAR 1ED7
ENCODING 7895
SWIDTH 480 0
DWIDTH 10 0
BBX 9 18 1 0
BITMAP
3100
5E00
4E00
0000
1C00
3400
2200
0000
1800
6600
4300
C300
C180
C180
C180
C100
6300
3E00
ENDCHAR
STARTCHAR 1ED8
ENCODING 7896
SWIDTH 720 0
DWIDTH 15 0
BBX 13 20 1 -3
BITMAP
0300
0C80
0000
0F80
3060
6030
6030
C018
C018
C018
C018
C018
C018
E030
6030
3060
1DC0
0200
0200
0700
ENDCHAR
STARTCHAR 1ED9
ENCODING 7897
SWIDTH 480 0
DWIDTH 10 0
BBX 9 17 1 -3
BITMAP
1C00
3400
2200
0000
1800
6600
4300
C300
C180
C180
C180
C100
6300
3600
0800
1800
1800
ENDCHAR
STARTCHAR 1EDA
ENCODING 7898
SWIDTH 720 0
DWIDTH 15 0
BBX 13 18 1 0
BITMAP
0180
0100
0210
0018
0FD0
3060
6030
6030
C018
C018
C018
C018
C018
C018
E030
6030
3060
1FC0
ENDCHAR
STARTCHAR 1EDB
ENCODING 7899
SWIDTH 528 0
DWIDTH 11 0
BBX 10 14 1 0
BITMAP
0C00
0800
0800
0000
18C0
66C0
4380
C300
C180
C180
C180
C100
6300
3E00
ENDCHAR
STARTCHAR 1EDC
ENCODING 7900
SWIDTH 720 0
DWIDTH 15 0
BBX 13 18 1 0
BITMAP
0600
0200
0110
0018
0FD0
3060
6030
6030
C018
C018
C018
C018
C018
C018
E030
6030
3060
1FC0
ENDCHAR
STARTCHAR 1EDD
ENCODING 7901
SWIDTH 528 0
DWIDTH 11 0
BBX 10 14 1 0
BITMAP
3000
1800
0800
0000
18C0
66C0
4380
C300
C180
C180
C180
C100
6300
3E00
ENDCHAR
STARTCHAR 1EDE
ENCODING 7902
SWIDTH 720 0
DWIDTH 15 0
BBX 13 19 1 0
BITMAP
0100
0280
0100
0110
0018
0FD0
3060
6030
6030
C018
C018
C018
C018
C018
C018
E030
6030
3060
1FC0
ENDCHAR
STARTCHAR 1EDF
ENCODING 7903
SWIDTH 528 0
DWIDTH 11 0
BBX 10 14 1 0
BITMAP
1C00
1400
0800
0000
18C0
66C0
4380
C300
C180
C180
C180
C100
6300
3E00
ENDCHAR
STARTCHAR 1EE0
ENCODING 7904
SWIDTH 720 0
DWIDTH 15 0
BBX 13 18 1 0
BITMAP
0400
0F40
01D0
0018
0FD0
3060
6030
6030
C018
C018
C018
C018
C018
C018
E030
6030
3060
1FC0
ENDCHAR
STARTCHAR 1EE1
ENCODING 7905
SWIDTH 528 0
DWIDTH 11 0
BBX 10 14 1 0
BITMAP
3100
5E00
0E00
0000
18C0
66C0
4380
C300
C180
C180
C180
C100
6300
3E00
ENDCHAR
STARTCHAR 1EE2
ENCODING 7906
SWIDTH 720 0
DWIDTH 15 0
BBX 13 19 1 -3
BITMAP
0010
0018
0FD0
3060
6030
6030
C018
C018
C018
C018
C018
C018
E030
6030
3060
1DC0
0200
0300
0300
ENDCHAR
STARTCHAR 1EE3
ENCODING 7907
SWIDTH 528 0
DWIDTH 11 0
BBX 10 13 1 -3
BITMAP
18C0
66C0
4380
C300
C180
C180
C180
C100
6300
3600
0800
1800
1800
ENDCHAR
STARTCHAR 1EE4
ENCODING 7908
SWIDTH 720 0
DWIDTH 15 0
BBX 15 17 0 -3
BITMAP
FC3E
3008
3008
3008
3008
3008
3008
3008
3008
3008
3008
3010
1810
0FE0
0000
0100
0300
ENDCHAR
STARTCHAR 1EE5
ENCODING 7909
SWIDTH 480 0
DWIDTH 10 0
BBX 9 12 1 -3
BITMAP
C300
4300
4300
4300
4300
4300
4300
6700
7B80
0000
1000
1800
ENDCHAR
STARTCHAR 1EE6
ENCODING 7910
SWIDTH 720 0
DWIDTH 15 0
BBX 15 19 0 0
BITMAP
0100
0280
0100
0100
0000
FC3E
3008
3008
3008
3008
3008
3008
3008
3008
3008
3008
3010
1810
0FE0
ENDCHAR
STARTCHAR 1EE7
ENCODING 7911
SWIDTH 480 0
DWIDTH 10 0
BBX 9 14 1 0
BITMAP
3800
0800
0800
0000
0000
C300
4300
4300
4300
4300
4300
4300
6700
7B80
ENDCHAR
STARTCHAR 1EE8
ENCODING 7912
SWIDTH 768 0
DWIDTH 16 0
BBX 17 18 0 0
BITMAP
018000
010000
020180
000180
FC3E00
300800
300800
300800
300800
300800
300800
300800
300800
300800
300800
301000
181000
0FE000
ENDCHAR
STARTCHAR 1EE9
ENCODING 7913
SWIDTH 528 0
DWIDTH 11 0
BBX 10 14 1 0
BITMAP
0C00
0800
1000
0000
00C0
C3C0
4380
4300
4300
4300
4300
4300
6700
7B80
ENDCHAR
STARTCHAR 1EEA
ENCODING 7914
SWIDTH 768 0
DWIDTH 16 0
BBX 17 18 0 0
BITMAP
030000
010000
008180
000180
FC3E00
300800
300800
300800
300800
300800
300800
300800
300800
300800
300800
301000
181000
0FE000
ENDCHAR
STARTCHAR 1EEB
ENCODING 7915
SWIDTH 528 0
DWIDTH 11 0
BBX 10 14 1 0
BITMAP
3000
1800
0800
0000
00C0
C3C0
4380
4300
4300
4300
4300
4300
6700
7B80
ENDCHAR
STARTCHAR 1EEC
ENCODING 7916
SWIDTH 768 0
DWIDTH 16 0
BBX 17 19 0 0
BITMAP
010000
028000
010000
010180
000180
FC3E00
300800
300800
300800
300800
300800
300800
300800
300800
300800
300800
301000
181000
0FE000
ENDCHAR
STARTCHAR 1EED
ENCODING 7917
SWIDTH 528 0
DWIDTH 11 0
BBX 10 14 1 0
BITMAP
3800
0800
0800
0000
00C0
C3C0
4380
4300
4300
4300
4300
4300
6700
7B80
ENDCHAR
STARTCHAR 1EEE
ENCODING 7918
SWIDTH 768 0
DWIDTH 16 0
BBX 17 18 0 0
BITMAP
020000
07A000
09C180
000180
FC3E00
300800
300800
300800
300800
300800
300800
300800
300800
300800
300800
301000
181000
0FE000
ENDCHAR
STARTCHAR 1EEF
ENCODING 7919
SWIDTH 528 0
DWIDTH 11 0
BBX 10 14 1 0
BITMAP
3100
5E00
0E00
0000
00C0
C3C0
4380
4300
4300
4300
4300
4300
6700
7B80
ENDCHAR
STARTCHAR 1EF0
ENCODING 7920
SWIDTH 768 0
DWIDTH 16 0
BBX 17 19 0 -3
BITMAP
000180
000180
FC3E00
300800
300800
300800
300800
300800
300800
300800
300800
300800
300800
301000
181000
0FE000
000000
010000
030000
ENDCHAR
STARTCHAR 1EF1
ENCODING 7921
SWIDTH 528 0
DWIDTH 11 0
BBX 10 13 1 -3
BITMAP
00C0
C3C0
4380
4300
4300
4300
4300
4300
6700
7B80
0000
1000
1800
ENDCHAR
STARTCHAR 1EF2
ENCODING 7922
SWIDTH 720 0
DWIDTH 15 0
BBX 15 19 0 0
BITMAP
0700
0300
0100
0080
0000
FC3E
3818
1810
1C20
0C20
0640
0780
0380
0300
0300
0300
0300
0300
0380
ENDCHAR
STARTCHAR 1EF3
ENCODING 7923
SWIDTH 480 0
DWIDTH 10 0
BBX 9 18 1 -4
BITMAP
3000
1800
0800
0000
0000
E180
6100
6100
2200
3200
1400
1C00
0800
0800
0800
1000
9000
E000
ENDCHAR
STARTCHAR 1EF4
ENCODING 7924
SWIDTH 720 0
DWIDTH 15 0
BBX 15 17 0 -3
BITMAP
FC3E
3818
1810
1C20
0C20
0640
0780
0380
0300
0300
0300
0300
0300
0380
0000
0100
0380
ENDCHAR
STARTCHAR 1EF5
ENCODING 7925
SWIDTH 480 0
DWIDTH 10 0
BBX 9 13 1 -4
BITMAP
E180
6100
6100
2200
3200
1400
1C00
0800
0800
0800
1200
9700
E000
ENDCHAR
STARTCHAR 1EF6
ENCODING 7926
SWIDTH 720 0
DWIDTH 15 0
BBX 15 19 0 0
BITMAP
0100
0280
0100
0100
0000
FC3E
3818
1810
1C20
0C20
0640
0780
0380
0300
0300
0300
0300
0300
0380
ENDCHAR
STARTCHAR 1EF7
ENCODING 7927
SWIDTH 480 0
DWIDTH 10 0
BBX 9 18 1 -4
BITMAP
1C00
0400
0800
0000
0000
E180
6100
6100
2200
3200
1400
1C00
0800
0800
0800
1000
9000
E000
ENDCHAR
STARTCHAR 1EF8
ENCODING 7928
SWIDTH 720 0
DWIDTH 15 0
BBX 15 18 0 0
BITMAP
0220
0720
09C0
0000
FC3E
3818
1810
1C20
0C20
0640
0780
0380
0300
0300
0300
0300
0300
0380
ENDCHAR
STARTCHAR 1EF9
ENCODING 7929
SWIDTH 480 0
DWIDTH 10 0
BBX 9 18 1 -4
BITMAP
3100
5E00
0E00
0000
0000
E180
6100
6100
2200
3200
1400
1C00
0800
0800
0800
1000
9000
E000
ENDCHAR
STARTCHAR 200C
ENCODING 8204
SWIDTH 0 0
DWIDTH 0 0
BBX 1 15 -1 -3
BITMAP
80
80
80
80
80
80
80
80
80
80
80
80
80
80
80
ENDCHAR
STARTCHAR 200D
ENCODING 8205
SWIDTH 0 0
DWIDTH 0 0
BBX 4 16 -2 -3
BITMAP
90
60
60
D0
40
40
40
40
40
40
40
40
40
40
40
40
ENDCHAR
STARTCHAR 200E
ENCODING 8206
SWIDTH 0 0
DWIDTH 0 0
BBX 4 16 0 -3
BITMAP
20
F0
90
A0
80
80
80
80
80
80
80
80
80
80
80
80
ENDCHAR
STARTCHAR 200F
ENCODING 8207
SWIDTH 0 0
DWIDTH 0 0
BBX 4 16 -4 -3
BITMAP
40
F0
90
50
10
10
10
10
10
10
10
10
10
10
10
10
ENDCHAR
STARTCHAR 2013
ENCODING 8211
SWIDTH 480 0
DWIDTH 10 0
BBX 10 1 0 5
BITMAP
FFC0
ENDCHAR
STARTCHAR 2014
ENCODING 8212
SWIDTH 1008 0
DWIDTH 21 0
BBX 21 1 0 5
BITMAP
FFFFF8
ENDCHAR
STARTCHAR 2015
ENCODING 8213
SWIDTH 1008 0
DWIDTH 21 0
BBX 19 1 1 5
BITMAP
FFFFE0
ENDCHAR
STARTCHAR 2017
ENCODING 8215
SWIDTH 480 0
DWIDTH 10 0
BBX 11 1 0 -4
BITMAP
FFE0
ENDCHAR
STARTCHAR 2018
ENCODING 8216
SWIDTH 336 0
DWIDTH 7 0
BBX 3 5 2 9
BITMAP
40
80
80
E0
E0
ENDCHAR
STARTCHAR 2019
ENCODING 8217
SWIDTH 336 0
DWIDTH 7 0
BBX 3 5 2 9
BITMAP
E0
E0
20
20
40
ENDCHAR
STARTCHAR 201A
ENCODING 8218
SWIDTH 336 0
DWIDTH 7 0
BBX 3 5 2 -3
BITMAP
E0
E0
20
20
40
ENDCHAR
STARTCHAR 201B
ENCODING 8219
SWIDTH 336 0
DWIDTH 7 0
BBX 3 5 2 9
BITMAP
E0
E0
80
80
40
ENDCHAR
STARTCHAR 201C
ENCODING 8220
SWIDTH 432 0
DWIDTH 9 0
BBX 8 5 1 9
BITMAP
42
84
88
E7
E6
ENDCHAR
STARTCHAR 201D
ENCODING 8221
SWIDTH 432 0
DWIDTH 9 0
BBX 8 5 1 9
BITMAP
C6
E7
21
42
84
ENDCHAR
STARTCHAR 201E
ENCODING 8222
SWIDTH 432 0
DWIDTH 9 0
BBX 8 5 1 -3
BITMAP
C6
E7
21
42
44
ENDCHAR
STARTCHAR 2020
ENCODING 8224
SWIDTH 480 0
DWIDTH 10 0
BBX 8 17 1 -4
BITMAP
18
18
18
08
F7
DB
08
18
18
18
08
08
08
10
10
10
10
ENDCHAR
STARTCHAR 2021
ENCODING 8225
SWIDTH 480 0
DWIDTH 10 0
BBX 8 18 1 -4
BITMAP
18
18
08
F7
5B
18
18
08
10
10
08
18
18
53
FF
08
18
18
ENDCHAR
STARTCHAR 2022
ENCODING 8226
SWIDTH 336 0
DWIDTH 7 0
BBX 5 5 1 4
BITMAP
78
F8
F8
78
30
ENDCHAR
STARTCHAR 2026
ENCODING 8230
SWIDTH 1008 0
DWIDTH 21 0
BBX 16 2 2 0
BITMAP
4183
E183
ENDCHAR
STARTCHAR 202A
ENCODING 8234
SWIDTH 768 0
DWIDTH 16 0
BBX 10 13 3 0
BITMAP
FFC0
8040
8040
8040
8040
8040
8040
8040
8040
8040
8040
8040
FFC0
ENDCHAR
STARTCHAR 202B
ENCODING 8235
SWIDTH 768 0
DWIDTH 16 0
BBX 10 13 3 0
BITMAP
FFC0
8040
8040
8040
8040
8040
8040
8040
8040
8040
8040
8040
FFC0
ENDCHAR
STARTCHAR 202C
ENCODING 8236
SWIDTH 768 0
DWIDTH 16 0
BBX 10 13 3 0
BITMAP
FFC0
8040
8040
8040
8040
8040
8040
8040
8040
8040
8040
8040
FFC0
ENDCHAR
STARTCHAR 202D
ENCODING 8237
SWIDTH 768 0
DWIDTH 16 0
BBX 10 13 3 0
BITMAP
FFC0
8040
8040
8040
8040
8040
8040
8040
8040
8040
8040
8040
FFC0
ENDCHAR
STARTCHAR 202E
ENCODING 8238
SWIDTH 768 0
DWIDTH 16 0
BBX 10 13 3 0
BITMAP
FFC0
8040
8040
8040
8040
8040
8040
8040
8040
8040
8040
8040
FFC0
ENDCHAR
STARTCHAR 2030
ENCODING 8240
SWIDTH 1008 0
DWIDTH 21 0
BBX 19 15 1 -1
BITMAP
702000
C84000
884000
8C8000
890000
890000
520000
24E180
053260
091660
111620
111620
211260
41B240
404180
ENDCHAR
STARTCHAR 2032
ENCODING 8242
SWIDTH 240 0
DWIDTH 5 0
BBX 3 6 1 8
BITMAP
60
60
40
40
80
80
ENDCHAR
STARTCHAR 2033
ENCODING 8243
SWIDTH 432 0
DWIDTH 9 0
BBX 6 6 2 8
BITMAP
CC
CC
D8
98
90
10
ENDCHAR
STARTCHAR 2039
ENCODING 8249
SWIDTH 336 0
DWIDTH 7 0
BBX 5 10 1 0
BITMAP
08
10
30
20
60
C0
60
20
10
10
ENDCHAR
STARTCHAR 203A
ENCODING 8250
SWIDTH 336 0
DWIDTH 7 0
BBX 5 10 1 0
BITMAP
80
40
40
20
30
18
30
20
40
80
ENDCHAR
STARTCHAR 203C
ENCODING 8252
SWIDTH 576 0
DWIDTH 12 0
BBX 8 14 2 0
BITMAP
C6
E7
E7
42
42
42
42
42
42
42
00
00
42
E7
ENDCHAR
STARTCHAR 203E
ENCODING 8254
SWIDTH 336 0
DWIDTH 7 0
BBX 7 2 0 11
BITMAP
FE
FE
ENDCHAR
STARTCHAR 2044
ENCODING 8260
SWIDTH 144 0
DWIDTH 3 0
BBX 10 14 -3 -1
BITMAP
0040
0080
0100
0100
0200
0400
0400
0800
1000
1000
2000
4000
4000
8000
ENDCHAR
STARTCHAR 206A
ENCODING 8298
SWIDTH 768 0
DWIDTH 16 0
BBX 10 13 3 0
BITMAP
FFC0
8040
8040
8040
8040
8040
8040
8040
8040
8040
8040
8040
FFC0
ENDCHAR
STARTCHAR 206B
ENCODING 8299
SWIDTH 768 0
DWIDTH 16 0
BBX 10 13 3 0
BITMAP
FFC0
8040
8040
8040
8040
8040
8040
8040
8040
8040
8040
8040
FFC0
ENDCHAR
STARTCHAR 206C
ENCODING 8300
SWIDTH 768 0
DWIDTH 16 0
BBX 10 13 3 0
BITMAP
FFC0
8040
8040
8040
8040
8040
8040
8040
8040
8040
8040
8040
FFC0
ENDCHAR
STARTCHAR 206D
ENCODING 8301
SWIDTH 768 0
DWIDTH 16 0
BBX 10 13 3 0
BITMAP
FFC0
8040
8040
8040
8040
8040
8040
8040
8040
8040
8040
8040
FFC0
ENDCHAR
STARTCHAR 206E
ENCODING 8302
SWIDTH 768 0
DWIDTH 16 0
BBX 10 13 3 0
BITMAP
FFC0
8040
8040
8040
8040
8040
8040
8040
8040
8040
8040
8040
FFC0
ENDCHAR
STARTCHAR 206F
ENCODING 8303
SWIDTH 768 0
DWIDTH 16 0
BBX 10 13 3 0
BITMAP
FFC0
8040
8040
8040
8040
8040
8040
8040
8040
8040
8040
8040
FFC0
ENDCHAR
STARTCHAR 207F
ENCODING 8319
SWIDTH 336 0
DWIDTH 7 0
BBX 5 6 1 6
BITMAP
10
F8
88
88
88
98
ENDCHAR
STARTCHAR 20A3
ENCODING 8355
SWIDTH 480 0
DWIDTH 10 0
BBX 10 14 0 0
BITMAP
FFC0
30C0
3040
3000
3000
3100
3F00
3100
3000
3000
FE00
3000
3000
7800
ENDCHAR
STARTCHAR 20A4
ENCODING 8356
SWIDTH 480 0
DWIDTH 10 0
BBX 9 14 1 0
BITMAP
0E00
1100
3100
2000
3000
FC00
3000
FC00
3000
3000
2000
6080
BF80
CF00
ENDCHAR
STARTCHAR 20A7
ENCODING 8359
SWIDTH 960 0
DWIDTH 20 0
BBX 20 14 0 0
BITMAP
FF0000
31C000
30D000
30F000
30F080
30DD60
31D220
3F1300
301180
3010E0
301070
301230
301230
781FE0
ENDCHAR
STARTCHAR 20AA
ENCODING 8362
SWIDTH 768 0
DWIDTH 16 0
BBX 13 11 2 0
BITMAP
FE18
8198
8198
8198
9998
9998
9998
9818
9818
9810
9FE0
ENDCHAR
STARTCHAR 20AB
ENCODING 8363
SWIDTH 528 0
DWIDTH 11 0
BBX 7 11 2 3
BITMAP
1C
3E
0C
7C
4C
8C
8C
8C
CC
7C
FE
ENDCHAR
STARTCHAR 20AC
ENCODING 8364
SWIDTH 480 0
DWIDTH 10 0
BBX 10 14 0 0
BITMAP
0F80
1040
3040
6040
6000
6000
FF80
FF00
6000
6000
6000
2040
3080
1F00
ENDCHAR
STARTCHAR 2105
ENCODING 8453
SWIDTH 816 0
DWIDTH 17 0
BBX 16 15 1 -1
BITMAP
7810
8810
8020
8040
8040
C880
7100
023E
0222
0463
0863
0863
1022
2034
2008
ENDCHAR
STARTCHAR 2113
ENCODING 8467
SWIDTH 480 0
DWIDTH 10 0
BBX 8 14 1 0
BITMAP
1C
32
32
32
34
38
38
30
30
70
B0
30
31
1E
ENDCHAR
STARTCHAR 2116
ENCODING 8470
SWIDTH 960 0
DWIDTH 20 0
BBX 19 14 0 0
BITMAP
381C00
1C1E00
0C2000
162000
172180
132240
13A660
11A620
11E620
10E220
1061C0
106000
D02000
F027E0
ENDCHAR
STARTCHAR 2122
ENCODING 8482
SWIDTH 960 0
DWIDTH 20 0
BBX 20 8 0 6
BITMAP
FF7070
993060
1838E0
183960
182D60
182E60
182660
182660
ENDCHAR
STARTCHAR 2126
ENCODING 8486
SWIDTH 768 0
DWIDTH 16 0
BBX 14 14 1 0
BITMAP
0FC0
3030
6018
6018
E01C
E01C
E01C
E01C
6018
7038
3030
8CC4
FCFC
FCFC
ENDCHAR
STARTCHAR 212E
ENCODING 8494
SWIDTH 624 0
DWIDTH 13 0
BBX 11 11 1 0
BITMAP
1F00
6080
40C0
C0C0
C0E0
FFE0
C000
C000
4040
4080
3F00
ENDCHAR
STARTCHAR 2153
ENCODING 8531
SWIDTH 768 0
DWIDTH 16 0
BBX 13 15 2 -1
BITMAP
C020
4040
4080
4080
4100
4200
4200
8470
0890
0810
1030
2018
2008
4090
0060
ENDCHAR
STARTCHAR 2154
ENCODING 8532
SWIDTH 768 0
DWIDTH 16 0
BBX 15 15 0 -1
BITMAP
7808
8810
0820
0820
1040
2080
7C80
011C
0224
0204
040C
0806
0802
1024
0018
ENDCHAR
STARTCHAR 215B
ENCODING 8539
SWIDTH 768 0
DWIDTH 16 0
BBX 13 15 2 -1
BITMAP
C020
4040
4080
4080
4100
4100
4200
8470
0488
08D0
1060
1050
2088
4088
4070
ENDCHAR
STARTCHAR 215C
ENCODING 8540
SWIDTH 768 0
DWIDTH 16 0
BBX 14 15 1 -1
BITMAP
E020
1020
2040
7040
1080
1100
9100
6238
0444
0468
0830
1028
1044
2044
4038
ENDCHAR
STARTCHAR 215D
ENCODING 8541
SWIDTH 768 0
DWIDTH 16 0
BBX 14 15 1 -1
BITMAP
7020
8020
E040
3080
1080
1100
A100
4238
0444
0468
0830
1028
1044
2044
4038
ENDCHAR
STARTCHAR 215E
ENCODING 8542
SWIDTH 768 0
DWIDTH 16 0
BBX 15 15 0 -1
BITMAP
7C10
8810
0820
0840
1040
1080
2080
011C
0222
0234
0418
0814
0822
1022
201C
ENDCHAR
STARTCHAR 2190
ENCODING 8592
SWIDTH 1008 0
DWIDTH 21 0
BBX 19 7 1 2
BITMAP
080000
100000
600000
FFFFE0
600000
300000
100000
ENDCHAR
STARTCHAR 2191
ENCODING 8593
SWIDTH 480 0
DWIDTH 10 0
BBX 7 17 2 -3
BITMAP
30
38
7C
96
10
10
10
10
10
10
10
10
10
10
10
10
10
ENDCHAR
STARTCHAR 2192
ENCODING 8594
SWIDTH 1008 0
DWIDTH 21 0
BBX 19 7 1 2
BITMAP
000200
000100
000180
FFFFE0
0000C0
000180
000300
ENDCHAR
STARTCHAR 2193
ENCODING 8595
SWIDTH 480 0
DWIDTH 10 0
BBX 6 18 2 -4
BITMAP
10
10
10
10
10
10
10
10
10
10
10
10
10
10
D4
78
38
30
ENDCHAR
STARTCHAR 2194
ENCODING 8596
SWIDTH 1008 0
DWIDTH 21 0
BBX 19 7 1 2
BITMAP
080200
100100
600180
FFFFE0
6000C0
300180
100300
ENDCHAR
STARTCHAR 2195
ENCODING 8597
SWIDTH 480 0
DWIDTH 10 0
BBX 7 19 2 -4
BITMAP
10
30
78
DC
92
10
10
10
10
10
10
10
10
10
10
D6
78
38
10
ENDCHAR
STARTCHAR 21A8
ENCODING 8616
SWIDTH 480 0
DWIDTH 10 0
BBX 7 21 2 -6
BITMAP
10
30
78
DC
92
10
10
10
10
10
10
10
10
10
10
D6
78
38
10
00
FE
ENDCHAR
STARTCHAR 2202
ENCODING 8706
SWIDTH 480 0
DWIDTH 10 0
BBX 9 14 1 0
BITMAP
1F00
2180
0080
0080
0080
1E80
6180
4080
C080
C100
8100
8200
C200
7C00
ENDCHAR
STARTCHAR 2206
ENCODING 8710
SWIDTH 624 0
DWIDTH 13 0
BBX 12 14 0 0
BITMAP
0200
0200
0700
0700
0B80
0980
0980
10C0
10C0
2060
2060
4060
4030
FFF0
ENDCHAR
STARTCHAR 220F
ENCODING 8719
SWIDTH 816 0
DWIDTH 17 0
BBX 15 18 1 -4
BITMAP
FFFE
700C
700C
700C
700C
700C
700C
700C
700C
700C
700C
700C
700C
700C
700C
700C
700C
701C
ENDCHAR
STARTCHAR 2211
ENCODING 8721
SWIDTH 720 0
DWIDTH 15 0
BBX 13 18 1 -4
BITMAP
FFF8
6008
7008
3800
1800
0C00
0E00
0700
0300
0200
0400
0800
0800
1000
2000
4008
4018
FFF8
ENDCHAR
STARTCHAR 2212
ENCODING 8722
SWIDTH 576 0
DWIDTH 12 0
BBX 11 1 0 7
BITMAP
FFE0
ENDCHAR
STARTCHAR 2215
ENCODING 8725
SWIDTH 144 0
DWIDTH 3 0
BBX 10 14 -3 -1
BITMAP
0040
0080
0100
0100
0200
0400
0400
0800
1000
1000
2000
4000
4000
8000
ENDCHAR
STARTCHAR 2219
ENCODING 8729
SWIDTH 240 0
DWIDTH 5 0
BBX 2 2 2 6
BITMAP
C0
C0
ENDCHAR
STARTCHAR 221A
ENCODING 8730
SWIDTH 528 0
DWIDTH 11 0
BBX 10 19 1 -1
BITMAP
0040
0040
0040
0040
0040
0040
0080
0080
2080
F080
1080
1880
0900
0D00
0500
0700
0300
0300
0200
ENDCHAR
STARTCHAR 221E
ENCODING 8734
SWIDTH 720 0
DWIDTH 15 0
BBX 13 9 1 1
BITMAP
00C0
71B0
8B08
8608
8608
8608
8E08
5910
20E0
ENDCHAR
STARTCHAR 221F
ENCODING 8735
SWIDTH 960 0
DWIDTH 20 0
BBX 13 13 4 0
BITMAP
8000
8000
8000
8000
8000
8000
8000
8000
8000
8000
8000
8000
FFF8
ENDCHAR
STARTCHAR 2229
ENCODING 8745
SWIDTH 720 0
DWIDTH 15 0
BBX 11 14 2 0
BITMAP
1F00
2080
4040
C060
8020
8020
8020
8020
8020
8020
8020
8020
8020
8020
ENDCHAR
STARTCHAR 222B
ENCODING 8747
SWIDTH 288 0
DWIDTH 6 0
BBX 6 21 0 -2
BITMAP
18
1C
20
20
20
20
20
30
30
30
30
30
30
30
30
30
20
20
20
E0
E0
ENDCHAR
STARTCHAR 2248
ENCODING 8776
SWIDTH 528 0
DWIDTH 11 0
BBX 11 8 0 3
BITMAP
2000
5C20
83C0
0000
0000
2000
5C20
83C0
ENDCHAR
STARTCHAR 2260
ENCODING 8800
SWIDTH 528 0
DWIDTH 11 0
BBX 11 17 0 -3
BITMAP
0080
0080
0100
0100
0100
0200
FFE0
0200
0400
0400
FFE0
0800
0800
1000
1000
2000
2000
ENDCHAR
STARTCHAR 2261
ENCODING 8801
SWIDTH 576 0
DWIDTH 12 0
BBX 11 8 0 3
BITMAP
FFE0
0000
0000
0000
FFE0
0000
0000
FFE0
ENDCHAR
STARTCHAR 2264
ENCODING 8804
SWIDTH 528 0
DWIDTH 11 0
BBX 11 14 0 -1
BITMAP
0060
0380
0C00
7000
C000
3000
0C00
0380
0060
0000
0000
0000
0000
FFE0
ENDCHAR
STARTCHAR 2265
ENCODING 8805
SWIDTH 528 0
DWIDTH 11 0
BBX 11 15 0 -2
BITMAP
8000
E000
1800
0700
00C0
0020
01C0
0600
1800
E000
0000
0000
0000
0000
FFE0
ENDCHAR
STARTCHAR 2302
ENCODING 8962
SWIDTH 624 0
DWIDTH 13 0
BBX 9 11 2 1
BITMAP
1800
2400
6200
C100
8080
8080
8080
8080
8080
8080
FF80
ENDCHAR
STARTCHAR 2310
ENCODING 8976
SWIDTH 576 0
DWIDTH 12 0
BBX 11 4 0 5
BITMAP
FFE0
8000
8000
8000
ENDCHAR
STARTCHAR 2320
ENCODING 8992
SWIDTH 624 0
DWIDTH 13 0
BBX 4 23 6 -5
BITMAP
20
F0
80
80
80
80
80
80
80
80
80
80
80
80
80
80
80
80
80
80
80
80
80
ENDCHAR
STARTCHAR 2321
ENCODING 8993
SWIDTH 624 0
DWIDTH 13 0
BBX 4 23 3 -5
BITMAP
10
10
10
10
10
10
10
10
10
10
10
10
10
10
10
10
10
10
10
10
10
90
E0
ENDCHAR
STARTCHAR 2500
ENCODING 9472
SWIDTH 720 0
DWIDTH 15 0
BBX 15 2 0 5
BITMAP
FFFE
FFFE
ENDCHAR
STARTCHAR 2502
ENCODING 9474
SWIDTH 720 0
DWIDTH 15 0
BBX 2 25 6 -6
BITMAP
C0
C0
C0
C0
C0
C0
C0
C0
C0
C0
C0
C0
C0
C0
C0
C0
C0
C0
C0
C0
C0
C0
C0
C0
C0
ENDCHAR
STARTCHAR 250C
ENCODING 9484
SWIDTH 720 0
DWIDTH 15 0
BBX 9 13 6 -6
BITMAP
FF80
FF80
C000
C000
C000
C000
C000
C000
C000
C000
C000
C000
C000
ENDCHAR
STARTCHAR 2510
ENCODING 9488
SWIDTH 720 0
DWIDTH 15 0
BBX 8 13 0 -6
BITMAP
FF
FF
03
03
03
03
03
03
03
03
03
03
03
ENDCHAR
STARTCHAR 2514
ENCODING 9492
SWIDTH 720 0
DWIDTH 15 0
BBX 9 14 6 5
BITMAP
C000
C000
C000
C000
C000
C000
C000
C000
C000
C000
C000
C000
FF80
FF80
ENDCHAR
STARTCHAR 2518
ENCODING 9496
SWIDTH 720 0
DWIDTH 15 0
BBX 8 14 0 5
BITMAP
03
03
03
03
03
03
03
03
03
03
03
03
FF
FF
ENDCHAR
STARTCHAR 251C
ENCODING 9500
SWIDTH 720 0
DWIDTH 15 0
BBX 9 25 6 -6
BITMAP
C000
C000
C000
C000
C000
C000
C000
C000
C000
C000
C000
C000
FF80
FF80
C000
C000
C000
C000
C000
C000
C000
C000
C000
C000
C000
ENDCHAR
STARTCHAR 2524
ENCODING 9508
SWIDTH 720 0
DWIDTH 15 0
BBX 8 25 0 -6
BITMAP
03
03
03
03
03
03
03
03
03
03
03
03
FF
FF
03
03
03
03
03
03
03
03
03
03
03
ENDCHAR
STARTCHAR 252C
ENCODING 9516
SWIDTH 720 0
DWIDTH 15 0
BBX 15 13 0 -6
BITMAP
FFFE
FFFE
0300
0300
0300
0300
0300
0300
0300
0300
0300
0300
0300
ENDCHAR
STARTCHAR 2534
ENCODING 9524
SWIDTH 720 0
DWIDTH 15 0
BBX 15 14 0 5
BITMAP
0300
0300
0300
0300
0300
0300
0300
0300
0300
0300
0300
0300
FFFE
FFFE
ENDCHAR
STARTCHAR 253C
ENCODING 9532
SWIDTH 720 0
DWIDTH 15 0
BBX 15 25 0 -6
BITMAP
0300
0300
0300
0300
0300
0300
0300
0300
0300
0300
0300
0300
FFFE
FFFE
0300
0300
0300
0300
0300
0300
0300
0300
0300
0300
0300
ENDCHAR
STARTCHAR 2550
ENCODING 9552
SWIDTH 720 0
DWIDTH 15 0
BBX 15 5 0 4
BITMAP
FFFE
FFFE
0000
0000
FFFE
ENDCHAR
STARTCHAR 2551
ENCODING 9553
SWIDTH 720 0
DWIDTH 15 0
BBX 5 25 5 -6
BITMAP
98
98
98
98
98
98
98
98
98
98
98
98
98
98
98
98
98
98
98
98
98
98
98
98
98
ENDCHAR
STARTCHAR 2552
ENCODING 9554
SWIDTH 720 0
DWIDTH 15 0
BBX 9 15 6 -6
BITMAP
FF80
FF80
C000
C000
FF80
FF80
C000
C000
C000
C000
C000
C000
C000
C000
C000
ENDCHAR
STARTCHAR 2553
ENCODING 9555
SWIDTH 720 0
DWIDTH 15 0
BBX 10 13 5 -6
BITMAP
FFC0
FFC0
9800
9800
9800
9800
9800
9800
9800
9800
9800
9800
9800
ENDCHAR
STARTCHAR 2554
ENCODING 9556
SWIDTH 720 0
DWIDTH 15 0
BBX 10 15 5 -6
BITMAP
FFC0
FFC0
8000
8000
9FC0
9FC0
9800
9800
9800
9800
9800
9800
9800
9800
9800
ENDCHAR
STARTCHAR 2555
ENCODING 9557
SWIDTH 720 0
DWIDTH 15 0
BBX 8 15 0 -6
BITMAP
FF
FF
03
03
FF
03
03
03
03
03
03
03
03
03
03
ENDCHAR
STARTCHAR 2556
ENCODING 9558
SWIDTH 720 0
DWIDTH 15 0
BBX 10 13 0 -6
BITMAP
FFC0
FFC0
04C0
04C0
04C0
04C0
04C0
04C0
04C0
04C0
04C0
04C0
04C0
ENDCHAR
STARTCHAR 2557
ENCODING 9559
SWIDTH 720 0
DWIDTH 15 0
BBX 10 15 0 -6
BITMAP
FFC0
FFC0
00C0
00C0
FCC0
04C0
04C0
04C0
04C0
04C0
04C0
04C0
04C0
04C0
04C0
ENDCHAR
STARTCHAR 2558
ENCODING 9560
SWIDTH 720 0
DWIDTH 15 0
BBX 9 15 6 4
BITMAP
C000
C000
C000
C000
C000
C000
C000
C000
C000
C000
FF80
FF80
C000
C000
FF80
ENDCHAR
STARTCHAR 2559
ENCODING 9561
SWIDTH 720 0
DWIDTH 15 0
BBX 10 14 5 5
BITMAP
9800
9800
9800
9800
9800
9800
9800
9800
9800
9800
9800
9800
FFC0
FFC0
ENDCHAR
STARTCHAR 255A
ENCODING 9562
SWIDTH 720 0
DWIDTH 15 0
BBX 10 15 5 4
BITMAP
9800
9800
9800
9800
9800
9800
9800
9800
9800
9800
9FC0
9FC0
8000
8000
FFC0
ENDCHAR
STARTCHAR 255B
ENCODING 9563
SWIDTH 720 0
DWIDTH 15 0
BBX 8 15 0 4
BITMAP
03
03
03
03
03
03
03
03
03
03
FF
FF
03
03
FF
ENDCHAR
STARTCHAR 255C
ENCODING 9564
SWIDTH 720 0
DWIDTH 15 0
BBX 10 14 0 5
BITMAP
04C0
04C0
04C0
04C0
04C0
04C0
04C0
04C0
04C0
04C0
04C0
04C0
FFC0
FFC0
ENDCHAR
STARTCHAR 255D
ENCODING 9565
SWIDTH 720 0
DWIDTH 15 0
BBX 10 15 0 4
BITMAP
04C0
04C0
04C0
04C0
04C0
04C0
04C0
04C0
04C0
04C0
FCC0
FCC0
00C0
00C0
FFC0
ENDCHAR
STARTCHAR 255E
ENCODING 9566
SWIDTH 720 0
DWIDTH 15 0
BBX 9 25 6 -6
BITMAP
C000
C000
C000
C000
C000
C000
C000
C000
C000
C000
FF80
FF80
C000
C000
FF80
FF80
C000
C000
C000
C000
C000
C000
C000
C000
C000
ENDCHAR
STARTCHAR 255F
ENCODING 9567
SWIDTH 720 0
DWIDTH 15 0
BBX 10 25 5 -6
BITMAP
9800
9800
9800
9800
9800
9800
9800
9800
9800
9800
9800
9800
9FC0
9FC0
9800
9800
9800
9800
9800
9800
9800
9800
9800
9800
9800
ENDCHAR
STARTCHAR 2560
ENCODING 9568
SWIDTH 720 0
DWIDTH 15 0
BBX 10 25 5 -6
BITMAP
9800
9800
9800
9800
9800
9800
9800
9800
9800
9800
9FC0
9FC0
8000
8000
9FC0
9FC0
9800
9800
9800
9800
9800
9800
9800
9800
9800
ENDCHAR
STARTCHAR 2561
ENCODING 9569
SWIDTH 720 0
DWIDTH 15 0
BBX 8 25 0 -6
BITMAP
03
03
03
03
03
03
03
03
03
03
FF
FF
03
03
FF
03
03
03
03
03
03
03
03
03
03
ENDCHAR
STARTCHAR 2562
ENCODING 9570
SWIDTH 720 0
DWIDTH 15 0
BBX 10 25 0 -6
BITMAP
04C0
04C0
04C0
04C0
04C0
04C0
04C0
04C0
04C0
04C0
04C0
04C0
FCC0
FCC0
04C0
04C0
04C0
04C0
04C0
04C0
04C0
04C0
04C0
04C0
04C0
ENDCHAR
STARTCHAR 2563
ENCODING 9571
SWIDTH 720 0
DWIDTH 15 0
BBX 10 25 0 -6
BITMAP
04C0
04C0
04C0
04C0
04C0
04C0
04C0
04C0
04C0
04C0
FCC0
FCC0
00C0
00C0
FCC0
04C0
04C0
04C0
04C0
04C0
04C0
04C0
04C0
04C0
04C0
ENDCHAR
STARTCHAR 2564
ENCODING 9572
SWIDTH 720 0
DWIDTH 15 0
BBX 15 15 0 -6
BITMAP
FFFE
FFFE
0000
0000
FFFE
03FE
0300
0300
0300
0300
0300
0300
0300
0300
0300
ENDCHAR
STARTCHAR 2565
ENCODING 9573
SWIDTH 720 0
DWIDTH 15 0
BBX 15 13 0 -6
BITMAP
FFFE
FFFE
04C0
04C0
04C0
04C0
04C0
04C0
04C0
04C0
04C0
04C0
04C0
ENDCHAR
STARTCHAR 2566
ENCODING 9574
SWIDTH 720 0
DWIDTH 15 0
BBX 15 15 0 -6
BITMAP
FFFE
FFFE
0000
0000
FCFE
04FE
04C0
04C0
04C0
04C0
04C0
04C0
04C0
04C0
04C0
ENDCHAR
STARTCHAR 2567
ENCODING 9575
SWIDTH 720 0
DWIDTH 15 0
BBX 15 15 0 4
BITMAP
0300
0300
0300
0300
0300
0300
0300
0300
0300
0300
FFFE
FFFE
0000
0000
FFFE
ENDCHAR
STARTCHAR 2568
ENCODING 9576
SWIDTH 720 0
DWIDTH 15 0
BBX 15 14 0 5
BITMAP
04C0
04C0
04C0
04C0
04C0
04C0
04C0
04C0
04C0
04C0
04C0
04C0
FFFE
FFFE
ENDCHAR
STARTCHAR 2569
ENCODING 9577
SWIDTH 720 0
DWIDTH 15 0
BBX 15 15 0 4
BITMAP
04C0
04C0
04C0
04C0
04C0
04C0
04C0
04C0
04C0
04C0
FCFE
FCFE
0000
0000
FFFE
ENDCHAR
STARTCHAR 256A
ENCODING 9578
SWIDTH 720 0
DWIDTH 15 0
BBX 15 25 0 -6
BITMAP
0300
0300
0300
0300
0300
0300
0300
0300
0300
0300
FFFE
FFFE
0300
0300
FFFE
03FE
0300
0300
0300
0300
0300
0300
0300
0300
0300
ENDCHAR
STARTCHAR 256B
ENCODING 9579
SWIDTH 720 0
DWIDTH 15 0
BBX 15 25 0 -6
BITMAP
04C0
04C0
04C0
04C0
04C0
04C0
04C0
04C0
04C0
04C0
04C0
04C0
FFFE
FFFE
04C0
04C0
04C0
04C0
04C0
04C0
04C0
04C0
04C0
04C0
04C0
ENDCHAR
STARTCHAR 256C
ENCODING 9580
SWIDTH 720 0
DWIDTH 15 0
BBX 15 25 0 -6
BITMAP
04C0
04C0
04C0
04C0
04C0
04C0
04C0
04C0
04C0
04C0
FCFE
FCFE
0000
0000
FCFE
04FE
04C0
04C0
04C0
04C0
04C0
04C0
04C0
04C0
04C0
ENDCHAR
STARTCHAR 2580
ENCODING 9600
SWIDTH 720 0
DWIDTH 15 0
BBX 15 13 0 6
BITMAP
FFFE
FFFE
FFFE
FFFE
FFFE
FFFE
FFFE
FFFE
FFFE
FFFE
FFFE
FFFE
FFFE
ENDCHAR
STARTCHAR 2584
ENCODING 9604
SWIDTH 720 0
DWIDTH 15 0
BBX 15 12 0 -6
BITMAP
FFFE
FFFE
FFFE
FFFE
FFFE
FFFE
FFFE
FFFE
FFFE
FFFE
FFFE
FFFE
ENDCHAR
STARTCHAR 2588
ENCODING 9608
SWIDTH 720 0
DWIDTH 15 0
BBX 15 25 0 -6
BITMAP
FFFE
FFFE
FFFE
FFFE
FFFE
FFFE
FFFE
FFFE
FFFE
FFFE
FFFE
FFFE
FFFE
FFFE
FFFE
FFFE
FFFE
FFFE
FFFE
FFFE
FFFE
FFFE
FFFE
FFFE
FFFE
ENDCHAR
STARTCHAR 258C
ENCODING 9612
SWIDTH 720 0
DWIDTH 15 0
BBX 7 25 0 -6
BITMAP
FE
FE
FE
FE
FE
FE
FE
FE
FE
FE
FE
FE
FE
FE
FE
FE
FE
FE
FE
FE
FE
FE
FE
FE
FE
ENDCHAR
STARTCHAR 2590
ENCODING 9616
SWIDTH 720 0
DWIDTH 15 0
BBX 8 25 7 -6
BITMAP
FF
FF
FF
FF
FF
FF
FF
FF
FF
FF
FF
FF
FF
FF
FF
FF
FF
FF
FF
FF
FF
FF
FF
FF
FF
ENDCHAR
STARTCHAR 2591
ENCODING 9617
SWIDTH 720 0
DWIDTH 15 0
BBX 14 24 1 -5
BITMAP
8420
0000
0000
1084
0000
8420
0000
0000
1084
0000
8420
0000
0000
1084
0000
8420
8420
0000
1084
0000
8420
8420
0000
1084
ENDCHAR
STARTCHAR 2592
ENCODING 9618
SWIDTH 720 0
DWIDTH 15 0
BBX 15 24 0 -5
BITMAP
4A52
0000
0000
B5AC
0000
4A52
0000
0000
B5AC
0000
4A52
0000
0000
B5AC
0000
4A52
4A52
0000
B5AC
0000
4A52
4A52
0000
B5AC
ENDCHAR
STARTCHAR 2593
ENCODING 9619
SWIDTH 720 0
DWIDTH 15 0
BBX 15 25 0 -6
BITMAP
6B5A
FFFE
FFFE
94A4
FFFE
6B5A
FFFE
FFFE
94A4
FFFE
6B5A
FFFE
FFFE
94A4
FFFE
6B5A
6B5A
FFFE
94A4
FFFE
6B5A
6B5A
FFFE
94A4
FFFE
ENDCHAR
STARTCHAR 25A0
ENCODING 9632
SWIDTH 624 0
DWIDTH 13 0
BBX 10 10 1 0
BITMAP
FFC0
FFC0
FFC0
FFC0
FFC0
FFC0
FFC0
FFC0
FFC0
FFC0
ENDCHAR
STARTCHAR 25A1
ENCODING 9633
SWIDTH 624 0
DWIDTH 13 0
BBX 10 10 1 0
BITMAP
FFC0
8040
8040
8040
8040
8040
8040
8040
8040
FFC0
ENDCHAR
STARTCHAR 25AA
ENCODING 9642
SWIDTH 336 0
DWIDTH 7 0
BBX 5 4 1 5
BITMAP
F8
F8
F8
F8
ENDCHAR
STARTCHAR 25AB
ENCODING 9643
SWIDTH 336 0
DWIDTH 7 0
BBX 5 4 1 5
BITMAP
F8
88
88
F8
ENDCHAR
STARTCHAR 25AC
ENCODING 9644
SWIDTH 1008 0
DWIDTH 21 0
BBX 21 4 0 3
BITMAP
FFFFF8
FFFFF8
FFFFF8
FFFFF8
ENDCHAR
STARTCHAR 25B2
ENCODING 9650
SWIDTH 1008 0
DWIDTH 21 0
BBX 14 14 3 0
BITMAP
0100
0300
0380
0780
07C0
0FC0
0FE0
1FE0
1FF0
3FF0
3FF8
7FF8
7FFC
FFFC
ENDCHAR
STARTCHAR 25BA
ENCODING 9658
SWIDTH 1008 0
DWIDTH 21 0
BBX 14 14 3 0
BITMAP
C000
F000
FC00
FF00
FFC0
FFF0
FFFC
FFFC
FFF0
FFC0
FF00
FC00
F000
C000
ENDCHAR
STARTCHAR 25BC
ENCODING 9660
SWIDTH 1008 0
DWIDTH 21 0
BBX 14 14 3 0
BITMAP
FFFC
7FFC
7FF8
3FF8
3FF0
1FF0
1FE0
0FE0
0FC0
07C0
0780
0380
0300
0100
ENDCHAR
STARTCHAR 25C4
ENCODING 9668
SWIDTH 1008 0
DWIDTH 21 0
BBX 15 14 3 0
BITMAP
0006
001E
007E
01FE
07FE
1FFE
7FFE
FFFE
1FFE
07FE
01FE
007E
001E
0006
ENDCHAR
STARTCHAR 25CA
ENCODING 9674
SWIDTH 480 0
DWIDTH 10 0
BBX 9 14 1 0
BITMAP
1800
2400
2400
4200
4200
8100
8080
8100
C100
4200
2200
2400
1800
1800
ENDCHAR
STARTCHAR 25CB
ENCODING 9675
SWIDTH 624 0
DWIDTH 13 0
BBX 9 9 2 1
BITMAP
3E00
4100
8100
8080
8080
8080
8100
6200
1C00
ENDCHAR
STARTCHAR 25CF
ENCODING 9679
SWIDTH 624 0
DWIDTH 13 0
BBX 9 9 2 1
BITMAP
3E00
7F00
FF00
FF80
FF80
FF80
FF00
7E00
1800
ENDCHAR
STARTCHAR 25D8
ENCODING 9688
SWIDTH 624 0
DWIDTH 13 0
BBX 10 10 1 0
BITMAP
FFC0
FFC0
FFC0
F1C0
E1C0
E1C0
F1C0
FFC0
FFC0
FFC0
ENDCHAR
STARTCHAR 25D9
ENCODING 9689
SWIDTH 624 0
DWIDTH 13 0
BBX 12 12 0 0
BITMAP
FFF0
FFF0
F270
EFB0
DFF0
DFD0
DFD0
DFD0
DFB0
E770
F9F0
FFF0
ENDCHAR
STARTCHAR 25E6
ENCODING 9702
SWIDTH 336 0
DWIDTH 7 0
BBX 5 5 1 4
BITMAP
78
88
88
48
30
ENDCHAR
STARTCHAR 263A
ENCODING 9786
SWIDTH 1008 0
DWIDTH 21 0
BBX 13 13 4 -1
BITMAP
0700
18E0
2030
4010
4008
98C8
8008
8008
8008
4890
6710
3060
0FC0
ENDCHAR
STARTCHAR 263B
ENCODING 9787
SWIDTH 1056 0
DWIDTH 22 0
BBX 13 13 4 -1
BITMAP
0780
1FE0
3FF0
7FF8
7FF8
77B8
FFF8
7FF8
7FF8
7338
3CF0
1FE0
0FC0
ENDCHAR
STARTCHAR 263C
ENCODING 9788
SWIDTH 912 0
DWIDTH 19 0
BBX 17 18 1 -2
BITMAP
008000
008000
208300
13E600
0C1C00
080800
100400
100400
200200
E00380
100400
100400
080800
1C1400
33E200
408100
008000
008000
ENDCHAR
STARTCHAR 2640
ENCODING 9792
SWIDTH 768 0
DWIDTH 16 0
BBX 11 19 2 -4
BITMAP
1F80
2040
4040
8020
8020
8020
8020
4020
2040
1180
0E00
0400
0400
0400
7FE0
0400
0400
0400
0400
ENDCHAR
STARTCHAR 2642
ENCODING 9794
SWIDTH 768 0
DWIDTH 16 0
BBX 13 19 1 -3
BITMAP
0070
01B0
0630
0048
0048
0088
0080
0100
1F00
2080
4040
8040
8020
8020
8020
8040
4040
2080
1F00
ENDCHAR
STARTCHAR 2660
ENCODING 9824
SWIDTH 528 0
DWIDTH 11 0
BBX 9 12 1 1
BITMAP
0800
0800
1C00
3E00
7F00
FF80
FF80
FF80
FB80
0800
0C00
3F00
ENDCHAR
STARTCHAR 2663
ENCODING 9827
SWIDTH 672 0
DWIDTH 14 0
BBX 12 12 1 1
BITMAP
0F00
1F80
1F80
1F00
FFE0
FFF0
FFF0
FBF0
F5E0
0400
0E00
3F80
ENDCHAR
STARTCHAR 2665
ENCODING 9829
SWIDTH 576 0
DWIDTH 12 0
BBX 11 11 1 1
BITMAP
F3C0
FFE0
FFE0
FFC0
FFC0
7F80
3F80
1F00
1E00
0C00
0400
ENDCHAR
STARTCHAR 2666
ENCODING 9830
SWIDTH 528 0
DWIDTH 11 0
BBX 9 12 1 1
BITMAP
0800
1C00
3C00
3E00
7F00
FF80
FF00
7F00
3E00
3C00
1800
0800
ENDCHAR
STARTCHAR 266A
ENCODING 9834
SWIDTH 480 0
DWIDTH 10 0
BBX 10 14 0 0
BITMAP
0700
0780
05C0
0440
0440
0400
0400
0400
0400
0400
7C00
FC00
FC00
7800
ENDCHAR
STARTCHAR 266B
ENCODING 9835
SWIDTH 768 0
DWIDTH 16 0
BBX 13 16 1 -1
BITMAP
0078
03F8
0FF8
0F18
0818
0818
0818
0818
0818
0858
09F8
09F8
F9F0
F8F0
F800
F800
ENDCHAR
STARTCHAR E801
ENCODING 59393
SWIDTH 288 0
DWIDTH 6 0
BBX 6 14 -1 0
BITMAP
C0
80
20
38
3C
1C
04
04
04
04
04
04
04
04
ENDCHAR
STARTCHAR E802
ENCODING 59394
SWIDTH 432 0
DWIDTH 9 0
BBX 7 14 1 -4
BITMAP
FE
FE
02
02
02
22
32
02
32
02
02
02
02
02
ENDCHAR
STARTCHAR E803
ENCODING 59395
SWIDTH 432 0
DWIDTH 9 0
BBX 7 14 1 -4
BITMAP
FE
FE
02
02
02
02
7A
22
32
22
02
02
02
02
ENDCHAR
STARTCHAR E804
ENCODING 59396
SWIDTH 432 0
DWIDTH 9 0
BBX 10 16 -2 0
BITMAP
2000
3000
D000
5000
1000
1F80
1FC0
01C0
0040
0040
0040
0080
0100
0200
0200
0200
ENDCHAR
STARTCHAR E805
ENCODING 59397
SWIDTH 432 0
DWIDTH 9 0
BBX 10 16 -2 0
BITMAP
2000
3000
D000
5000
1000
1F80
1FC0
01C0
0040
0040
0640
0480
0100
0200
0200
0200
ENDCHAR
STARTCHAR E818
ENCODING 59416
SWIDTH 192 0
DWIDTH 4 0
BBX 3 6 1 13
BITMAP
20
C0
60
80
60
E0
ENDCHAR
STARTCHAR E83A
ENCODING 59450
SWIDTH 624 0
DWIDTH 13 0
BBX 14 2 -1 3
BITMAP
FFFC
FFFC
ENDCHAR
STARTCHAR F001
ENCODING 61441
SWIDTH 576 0
DWIDTH 12 0
BBX 9 14 1 0
BITMAP
1F00
2300
6000
6000
6000
FF80
6180
6180
6180
6180
6180
6180
6180
E380
ENDCHAR
STARTCHAR F002
ENCODING 61442
SWIDTH 576 0
DWIDTH 12 0
BBX 9 14 1 0
BITMAP
3F80
2780
6180
6180
6180
FF80
6180
6180
6180
6180
6180
6180
6180
E380
ENDCHAR
STARTCHAR F004
ENCODING 61444
SWIDTH 336 0
DWIDTH 7 0
BBX 2 4 2 -5
BITMAP
C0
C0
40
80
ENDCHAR
STARTCHAR F005
ENCODING 61445
SWIDTH 336 0
DWIDTH 7 0
BBX 2 3 3 -4
BITMAP
C0
40
80
ENDCHAR
STARTCHAR F006
ENCODING 61446
SWIDTH 0 0
DWIDTH 0 0
BBX 2 2 -4 17
BITMAP
C0
80
ENDCHAR
STARTCHAR F007
ENCODING 61447
SWIDTH 0 0
DWIDTH 0 0
BBX 3 2 -8 17
BITMAP
60
80
ENDCHAR
STARTCHAR F008
ENCODING 61448
SWIDTH 0 0
DWIDTH 0 0
BBX 3 3 -4 11
BITMAP
60
40
80
ENDCHAR
STARTCHAR F009
ENCODING 61449
SWIDTH 0 0
DWIDTH 0 0
BBX 4 4 -6 15
BITMAP
70
60
40
80
ENDCHAR
STARTCHAR F00A
ENCODING 61450
SWIDTH 768 0
DWIDTH 16 0
BBX 10 13 3 0
BITMAP
FFC0
8040
8040
8040
8040
8040
8040
8040
8040
8040
8040
8040
FFC0
ENDCHAR
STARTCHAR F00B
ENCODING 61451
SWIDTH 768 0
DWIDTH 16 0
BBX 10 13 3 0
BITMAP
FFC0
8040
8040
8040
8040
8040
8040
8040
8040
8040
8040
8040
FFC0
ENDCHAR
STARTCHAR F00C
ENCODING 61452
SWIDTH 768 0
DWIDTH 16 0
BBX 10 13 3 0
BITMAP
FFC0
8040
8040
8040
8040
8040
8040
8040
8040
8040
8040
8040
FFC0
ENDCHAR
STARTCHAR F00D
ENCODING 61453
SWIDTH 768 0
DWIDTH 16 0
BBX 10 13 3 0
BITMAP
FFC0
8040
8040
8040
8040
8040
8040
8040
8040
8040
8040
8040
FFC0
ENDCHAR
STARTCHAR F00E
ENCODING 61454
SWIDTH 768 0
DWIDTH 16 0
BBX 10 13 3 0
BITMAP
FFC0
8040
8040
8040
8040
8040
8040
8040
8040
8040
8040
8040
FFC0
ENDCHAR
STARTCHAR F00F
ENCODING 61455
SWIDTH 0 0
DWIDTH 0 0
BBX 2 3 -6 11
BITMAP
C0
40
40
ENDCHAR
STARTCHAR F010
ENCODING 61456
SWIDTH 0 0
DWIDTH 0 0
BBX 1 2 -4 17
BITMAP
80
80
ENDCHAR
STARTCHAR F011
ENCODING 61457
SWIDTH 0 0
DWIDTH 0 0
BBX 1 2 -8 17
BITMAP
80
80
ENDCHAR
STARTCHAR F012
ENCODING 61458
SWIDTH 0 0
DWIDTH 0 0
BBX 3 3 -4 11
BITMAP
C0
20
40
ENDCHAR
STARTCHAR F013
ENCODING 61459
SWIDTH 0 0
DWIDTH 0 0
BBX 3 4 -6 15
BITMAP
40
A0
40
40
ENDCHAR
STARTCHAR F014
ENCODING 61460
SWIDTH 0 0
DWIDTH 0 0
BBX 3 3 -6 11
BITMAP
E0
A0
40
ENDCHAR
STARTCHAR F015
ENCODING 61461
SWIDTH 0 0
DWIDTH 0 0
BBX 6 2 -10 17
BITMAP
44
B8
ENDCHAR
STARTCHAR F016
ENCODING 61462
SWIDTH 0 0
DWIDTH 0 0
BBX 7 2 -11 16
BITMAP
72
9C
ENDCHAR
STARTCHAR F017
ENCODING 61463
SWIDTH 0 0
DWIDTH 0 0
BBX 7 2 -11 16
BITMAP
72
9C
ENDCHAR
STARTCHAR F018
ENCODING 61464
SWIDTH 0 0
DWIDTH 0 0
BBX 7 2 -12 16
BITMAP
72
9C
ENDCHAR
STARTCHAR F019
ENCODING 61465
SWIDTH 0 0
DWIDTH 0 0
BBX 7 3 -8 11
BITMAP
62
BC
9C
ENDCHAR
STARTCHAR F01A
ENCODING 61466
SWIDTH 0 0
DWIDTH 0 0
BBX 6 3 -9 11
BITMAP
60
BC
1C
ENDCHAR
STARTCHAR F01B
ENCODING 61467
SWIDTH 0 0
DWIDTH 0 0
BBX 7 3 -10 11
BITMAP
62
BA
8C
ENDCHAR
STARTCHAR F01C
ENCODING 61468
SWIDTH 0 0
DWIDTH 0 0
BBX 6 2 -6 16
BITMAP
F4
3C
ENDCHAR
STARTCHAR F01D
ENCODING 61469
SWIDTH 0 0
DWIDTH 0 0
BBX 6 3 -6 11
BITMAP
60
F4
18
ENDCHAR
STARTCHAR F01E
ENCODING 61470
SWIDTH 0 0
DWIDTH 0 0
BBX 2 2 -7 -3
BITMAP
80
C0
ENDCHAR
STARTCHAR F01F
ENCODING 61471
SWIDTH 0 0
DWIDTH 0 0
BBX 3 2 -9 -3
BITMAP
40
E0
ENDCHAR
STARTCHAR F020
ENCODING 61472
SWIDTH 0 0
DWIDTH 0 0
BBX 3 2 -9 -3
BITMAP
40
E0
ENDCHAR
STARTCHAR F021
ENCODING 61473
SWIDTH 0 0
DWIDTH 0 0
BBX 3 2 -9 -3
BITMAP
40
E0
ENDCHAR
STARTCHAR F022
ENCODING 61474
SWIDTH 0 0
DWIDTH 0 0
BBX 3 2 -10 -3
BITMAP
40
E0
ENDCHAR
STARTCHAR F023
ENCODING 61475
SWIDTH 0 0
DWIDTH 0 0
BBX 2 2 -6 -3
BITMAP
40
C0
ENDCHAR
STARTCHAR F024
ENCODING 61476
SWIDTH 0 0
DWIDTH 0 0
BBX 3 2 -6 -3
BITMAP
40
E0
ENDCHAR
STARTCHAR F025
ENCODING 61477
SWIDTH 0 0
DWIDTH 0 0
BBX 2 2 -6 -3
BITMAP
80
C0
ENDCHAR
STARTCHAR F026
ENCODING 61478
SWIDTH 0 0
DWIDTH 0 0
BBX 2 2 -7 -3
BITMAP
C0
C0
ENDCHAR
STARTCHAR F027
ENCODING 61479
SWIDTH 0 0
DWIDTH 0 0
BBX 2 2 -6 -3
BITMAP
C0
C0
ENDCHAR
STARTCHAR F028
ENCODING 61480
SWIDTH 0 0
DWIDTH 0 0
BBX 2 2 -7 -3
BITMAP
C0
C0
ENDCHAR
STARTCHAR F029
ENCODING 61481
SWIDTH 0 0
DWIDTH 0 0
BBX 2 2 -4 -3
BITMAP
80
C0
ENDCHAR
STARTCHAR F02A
ENCODING 61482
SWIDTH 0 0
DWIDTH 0 0
BBX 2 2 -4 -3
BITMAP
C0
C0
ENDCHAR
STARTCHAR F02B
ENCODING 61483
SWIDTH 0 0
DWIDTH 0 0
BBX 2 2 -8 -3
BITMAP
80
C0
ENDCHAR
STARTCHAR F02C
ENCODING 61484
SWIDTH 0 0
DWIDTH 0 0
BBX 3 2 -4 -3
BITMAP
40
E0
ENDCHAR
STARTCHAR F02D
ENCODING 61485
SWIDTH 0 0
DWIDTH 0 0
BBX 5 2 -9 17
BITMAP
40
B8
ENDCHAR
STARTCHAR F02E
ENCODING 61486
SWIDTH 0 0
DWIDTH 0 0
BBX 6 2 -9 16
BITMAP
F4
3C
ENDCHAR
STARTCHAR F02F
ENCODING 61487
SWIDTH 0 0
DWIDTH 0 0
BBX 6 2 -10 17
BITMAP
44
B8
ENDCHAR
STARTCHAR F030
ENCODING 61488
SWIDTH 0 0
DWIDTH 0 0
BBX 7 2 -11 16
BITMAP
72
9C
ENDCHAR
STARTCHAR F031
ENCODING 61489
SWIDTH 288 0
DWIDTH 6 0
BBX 3 10 1 0
BITMAP
20
E0
60
60
60
60
60
60
60
60
ENDCHAR
STARTCHAR FB01
ENCODING 64257
SWIDTH 576 0
DWIDTH 12 0
BBX 9 14 1 0
BITMAP
1F00
2300
6000
6000
6000
FF80
6180
6180
6180
6180
6180
6180
6180
E380
ENDCHAR
STARTCHAR FB02
ENCODING 64258
SWIDTH 576 0
DWIDTH 12 0
BBX 9 14 1 0
BITMAP
3F80
2780
6180
6180
6180
FF80
6180
6180
6180
6180
6180
6180
6180
E380
ENDCHAR
STARTCHAR FB1D
ENCODING 64285
SWIDTH 288 0
DWIDTH 6 0
BBX 4 9 1 3
BITMAP
E0
F0
30
10
20
20
00
00
40
ENDCHAR
STARTCHAR FB1E
ENCODING 64286
SWIDTH 0 0
DWIDTH 0 0
BBX 6 3 -3 12
BITMAP
84
78
30
ENDCHAR
STARTCHAR FB1F
ENCODING 64287
SWIDTH 528 0
DWIDTH 11 0
BBX 9 8 1 4
BITMAP
E780
F780
3180
1080
2080
2100
0000
3F80
ENDCHAR
STARTCHAR FB20
ENCODING 64288
SWIDTH 432 0
DWIDTH 9 0
BBX 8 11 1 1
BITMAP
C6
E7
43
42
42
64
24
24
24
FC
F8
ENDCHAR
STARTCHAR FB2A
ENCODING 64298
SWIDTH 624 0
DWIDTH 13 0
BBX 11 14 1 0
BITMAP
0040
0040
0800
CCC0
EEE0
4460
8840
8840
8880
8880
5100
5100
7F00
3E00
ENDCHAR
STARTCHAR FB2B
ENCODING 64299
SWIDTH 624 0
DWIDTH 13 0
BBX 11 14 1 0
BITMAP
C000
C000
0800
CCC0
EEE0
4460
8840
8840
8880
8880
5100
5100
7F00
3E00
ENDCHAR
STARTCHAR FB2C
ENCODING 64300
SWIDTH 624 0
DWIDTH 13 0
BBX 11 14 1 0
BITMAP
0040
0040
0800
CCC0
EEE0
4460
8840
8840
8A80
8A80
5100
5100
7F00
3E00
ENDCHAR
STARTCHAR FB2D
ENCODING 64301
SWIDTH 624 0
DWIDTH 13 0
BBX 11 14 1 0
BITMAP
C000
C000
0800
CCC0
EEE0
4460
8840
8840
8A80
8A80
5100
5100
7F00
3E00
ENDCHAR
STARTCHAR FB2E
ENCODING 64302
SWIDTH 480 0
DWIDTH 10 0
BBX 8 14 1 -2
BITMAP
86
C7
E3
72
3C
5C
8C
C6
C3
63
61
00
00
3C
ENDCHAR
STARTCHAR FB2F
ENCODING 64303
SWIDTH 480 0
DWIDTH 10 0
BBX 8 15 1 -3
BITMAP
86
C7
E3
72
3C
5C
8C
C6
C3
63
61
00
3C
10
18
ENDCHAR
STARTCHAR FB30
ENCODING 64304
SWIDTH 480 0
DWIDTH 10 0
BBX 8 11 1 1
BITMAP
86
C7
E3
72
3C
5C
8C
C6
CB
7B
61
ENDCHAR
STARTCHAR FB31
ENCODING 64305
SWIDTH 432 0
DWIDTH 9 0
BBX 8 11 1 0
BITMAP
FC
FE
0E
02
02
32
12
02
02
FF
FF
ENDCHAR
STARTCHAR FB32
ENCODING 64306
SWIDTH 336 0
DWIDTH 7 0
BBX 7 11 0 1
BITMAP
70
78
38
08
08
28
28
0C
14
76
E4
ENDCHAR
STARTCHAR FB33
ENCODING 64307
SWIDTH 432 0
DWIDTH 9 0
BBX 7 11 1 0
BITMAP
FE
FE
02
04
04
28
2C
0C
0C
0C
08
ENDCHAR
STARTCHAR FB34
ENCODING 64308
SWIDTH 480 0
DWIDTH 10 0
BBX 8 11 1 0
BITMAP
FF
FF
01
02
02
1A
42
82
83
C3
82
ENDCHAR
STARTCHAR FB35
ENCODING 64309
SWIDTH 288 0
DWIDTH 6 0
BBX 4 12 1 0
BITMAP
80
E0
F0
70
10
10
D0
10
10
10
10
10
ENDCHAR
STARTCHAR FB36
ENCODING 64310
SWIDTH 288 0
DWIDTH 6 0
BBX 6 11 0 1
BITMAP
78
7C
18
10
10
D0
10
10
10
10
10
ENDCHAR
STARTCHAR FB38
ENCODING 64312
SWIDTH 480 0
DWIDTH 10 0
BBX 8 11 1 1
BITMAP
C6
EF
4B
91
81
89
89
41
42
7E
7E
ENDCHAR
STARTCHAR FB39
ENCODING 64313
SWIDTH 288 0
DWIDTH 6 0
BBX 4 6 1 6
BITMAP
E0
F0
30
90
E0
20
ENDCHAR
STARTCHAR FB3A
ENCODING 64314
SWIDTH 432 0
DWIDTH 9 0
BBX 7 14 1 -4
BITMAP
FE
FE
02
02
02
32
12
02
02
02
02
02
02
02
ENDCHAR
STARTCHAR FB3B
ENCODING 64315
SWIDTH 432 0
DWIDTH 9 0
BBX 7 11 1 0
BITMAP
F8
FC
0E
02
02
32
12
02
06
FC
F8
ENDCHAR
STARTCHAR FB3C
ENCODING 64316
SWIDTH 432 0
DWIDTH 9 0
BBX 8 16 0 0
BITMAP
80
C0
40
40
40
7E
7F
07
01
01
19
02
04
08
08
08
ENDCHAR
STARTCHAR FB3E
ENCODING 64318
SWIDTH 480 0
DWIDTH 10 0
BBX 8 11 1 1
BITMAP
E4
EE
7F
21
41
49
89
81
81
9F
BF
ENDCHAR
STARTCHAR FB40
ENCODING 64320
SWIDTH 288 0
DWIDTH 6 0
BBX 5 11 0 1
BITMAP
78
78
08
08
08
28
28
08
08
78
F8
ENDCHAR
STARTCHAR FB41
ENCODING 64321
SWIDTH 480 0
DWIDTH 10 0
BBX 8 11 1 0
BITMAP
FC
FE
47
81
81
99
81
81
C3
7E
3E
ENDCHAR
STARTCHAR FB43
ENCODING 64323
SWIDTH 432 0
DWIDTH 9 0
BBX 7 15 1 -4
BITMAP
FC
FE
8E
82
82
EA
EA
02
02
02
02
02
02
02
02
ENDCHAR
STARTCHAR FB44
ENCODING 64324
SWIDTH 432 0
DWIDTH 9 0
BBX 7 11 1 0
BITMAP
F8
FC
4E
82
C2
EA
8A
02
02
FE
F8
ENDCHAR
STARTCHAR FB46
ENCODING 64326
SWIDTH 480 0
DWIDTH 10 0
BBX 8 11 1 1
BITMAP
C6
E7
62
24
28
B8
98
0C
07
FE
FE
ENDCHAR
STARTCHAR FB47
ENCODING 64327
SWIDTH 480 0
DWIDTH 10 0
BBX 8 15 1 -4
BITMAP
FE
FF
07
01
01
B1
92
8C
90
90
90
80
80
80
80
ENDCHAR
STARTCHAR FB48
ENCODING 64328
SWIDTH 480 0
DWIDTH 10 0
BBX 8 11 1 0
BITMAP
FC
FE
0F
03
01
31
11
01
01
01
01
ENDCHAR
STARTCHAR FB49
ENCODING 64329
SWIDTH 624 0
DWIDTH 13 0
BBX 11 12 1 0
BITMAP
0800
CCC0
EEE0
4460
8840
8840
8A80
8A80
5100
5100
7F00
3E00
ENDCHAR
STARTCHAR FB4A
ENCODING 64330
SWIDTH 480 0
DWIDTH 10 0
BBX 9 11 0 0
BITMAP
7F00
7F80
1380
2080
2080
2480
2480
2080
2080
6080
E080
ENDCHAR
STARTCHAR FB4B
ENCODING 64331
SWIDTH 288 0
DWIDTH 6 0
BBX 4 14 1 0
BITMAP
60
60
80
E0
F0
70
10
10
10
10
10
10
10
10
ENDCHAR
STARTCHAR FB4C
ENCODING 64332
SWIDTH 432 0
DWIDTH 9 0
BBX 8 13 1 0
BITMAP
3C
00
FC
FE
0E
02
02
02
02
02
02
FF
FF
ENDCHAR
STARTCHAR FB4D
ENCODING 64333
SWIDTH 432 0
DWIDTH 9 0
BBX 7 13 1 0
BITMAP
78
00
F8
FC
0E
02
02
02
02
02
06
FC
F8
ENDCHAR
STARTCHAR FB4E
ENCODING 64334
SWIDTH 432 0
DWIDTH 9 0
BBX 7 13 1 0
BITMAP
3C
00
F8
FC
4E
82
C2
E2
82
02
02
FE
F8
ENDCHAR
STARTCHAR FB4F
ENCODING 64335
SWIDTH 480 0
DWIDTH 10 0
BBX 10 16 0 0
BITMAP
8000
C000
4000
4000
4000
6380
73C0
3880
0D00
0D00
3700
2300
6380
3180
30C0
3040
ENDCHAR
STARTCHAR FB50
ENCODING 64336
SWIDTH 192 0
DWIDTH 4 0
BBX 4 16 0 3
BITMAP
10
70
F0
80
20
60
20
20
20
20
20
20
20
20
20
20
ENDCHAR
STARTCHAR FB51
ENCODING 64337
SWIDTH 240 0
DWIDTH 5 0
BBX 6 16 -1 3
BITMAP
10
68
F0
00
20
60
20
20
20
20
20
20
20
10
1C
1C
ENDCHAR
STARTCHAR FB52
ENCODING 64338
SWIDTH 720 0
DWIDTH 15 0
BBX 14 13 1 -3
BITMAP
0008
8008
800C
8004
8004
FFFC
7FFC
0000
0000
0300
0100
0100
0300
ENDCHAR
STARTCHAR FB53
ENCODING 64339
SWIDTH 720 0
DWIDTH 15 0
BBX 14 13 1 -3
BITMAP
0008
8008
800C
8004
8004
FFFC
7FFC
0000
0000
0300
0100
0100
0300
ENDCHAR
STARTCHAR FB54
ENCODING 64340
SWIDTH 240 0
DWIDTH 5 0
BBX 6 12 -1 -2
BITMAP
0C
0C
04
04
FC
FC
00
00
30
10
10
18
ENDCHAR
STARTCHAR FB55
ENCODING 64341
SWIDTH 240 0
DWIDTH 5 0
BBX 6 12 -1 -2
BITMAP
0C
0C
04
04
FC
FC
00
00
30
10
10
18
ENDCHAR
STARTCHAR FB56
ENCODING 64342
SWIDTH 720 0
DWIDTH 15 0
BBX 14 13 1 -4
BITMAP
0008
8008
800C
8004
8004
FFFC
7FFC
0000
0000
0180
0680
0100
0180
ENDCHAR
STARTCHAR FB57
ENCODING 64343
SWIDTH 720 0
DWIDTH 15 0
BBX 14 13 1 -4
BITMAP
0008
8008
800C
8004
8004
FFFC
7FFC
0000
0000
0180
0680
0100
0180
ENDCHAR
STARTCHAR FB58
ENCODING 64344
SWIDTH 240 0
DWIDTH 5 0
BBX 6 12 -1 -3
BITMAP
0C
0C
04
04
FC
FC
00
00
0C
78
20
18
ENDCHAR
STARTCHAR FB59
ENCODING 64345
SWIDTH 240 0
DWIDTH 5 0
BBX 6 12 -1 -3
BITMAP
0C
0C
04
04
FC
FC
00
00
0C
78
20
18
ENDCHAR
STARTCHAR FB5A
ENCODING 64346
SWIDTH 720 0
DWIDTH 15 0
BBX 14 14 1 -4
BITMAP
0008
8008
800C
8004
8004
FFFC
7FFC
0000
0000
0180
0680
0480
0580
0600
ENDCHAR
STARTCHAR FB5B
ENCODING 64347
SWIDTH 720 0
DWIDTH 15 0
BBX 14 14 1 -4
BITMAP
0008
8008
800C
8004
8004
FFFC
7FFC
0000
0000
0180
0680
0480
0580
0600
ENDCHAR
STARTCHAR FB5C
ENCODING 64348
SWIDTH 240 0
DWIDTH 5 0
BBX 6 13 -1 -3
BITMAP
0C
0C
04
04
FC
FC
00
00
0C
68
28
2C
70
ENDCHAR
STARTCHAR FB5D
ENCODING 64349
SWIDTH 240 0
DWIDTH 5 0
BBX 6 13 -1 -3
BITMAP
0C
0C
04
04
FC
FC
00
00
0C
68
28
2C
70
ENDCHAR
STARTCHAR FB5E
ENCODING 64350
SWIDTH 720 0
DWIDTH 15 0
BBX 14 12 1 4
BITMAP
0600
0000
0300
0300
0000
0008
8008
800C
8004
8004
FFFC
7FFC
ENDCHAR
STARTCHAR FB5F
ENCODING 64351
SWIDTH 720 0
DWIDTH 15 0
BBX 14 12 1 4
BITMAP
0600
0000
0300
0300
0000
0008
8008
800C
8004
8004
FFFC
7FFC
ENDCHAR
STARTCHAR FB60
ENCODING 64352
SWIDTH 240 0
DWIDTH 5 0
BBX 6 13 -1 3
BITMAP
20
30
00
10
30
00
00
0C
0C
04
04
FC
FC
ENDCHAR
STARTCHAR FB61
ENCODING 64353
SWIDTH 240 0
DWIDTH 5 0
BBX 6 13 -1 3
BITMAP
20
30
00
10
30
00
00
0C
0C
04
04
FC
FC
ENDCHAR
STARTCHAR FB62
ENCODING 64354
SWIDTH 720 0
DWIDTH 15 0
BBX 14 12 1 4
BITMAP
0180
0C00
0580
0780
0400
0008
8008
800C
8004
8004
FFFC
7FFC
ENDCHAR
STARTCHAR FB63
ENCODING 64355
SWIDTH 720 0
DWIDTH 15 0
BBX 14 12 1 4
BITMAP
0180
0C00
0580
0780
0400
0008
8008
800C
8004
8004
FFFC
7FFC
ENDCHAR
STARTCHAR FB64
ENCODING 64356
SWIDTH 240 0
DWIDTH 5 0
BBX 6 12 -1 4
BITMAP
58
68
08
68
60
00
0C
0C
04
04
FC
FC
ENDCHAR
STARTCHAR FB65
ENCODING 64357
SWIDTH 240 0
DWIDTH 5 0
BBX 6 12 -1 4
BITMAP
58
68
08
68
60
00
0C
0C
04
04
FC
FC
ENDCHAR
STARTCHAR FB66
ENCODING 64358
SWIDTH 720 0
DWIDTH 15 0
BBX 14 14 1 3
BITMAP
0400
0400
0400
0400
03C0
0FC0
0000
0008
8008
800C
8004
8004
FFFC
7FFC
ENDCHAR
STARTCHAR FB67
ENCODING 64359
SWIDTH 720 0
DWIDTH 15 0
BBX 14 14 1 3
BITMAP
0400
0400
0400
0400
03C0
0FC0
0000
0008
8008
800C
8004
8004
FFFC
7FFC
ENDCHAR
STARTCHAR FB68
ENCODING 64360
SWIDTH 240 0
DWIDTH 5 0
BBX 7 14 -1 3
BITMAP
20
20
20
20
1E
FE
00
00
0C
0C
04
04
FC
FC
ENDCHAR
STARTCHAR FB69
ENCODING 64361
SWIDTH 240 0
DWIDTH 5 0
BBX 7 14 -1 3
BITMAP
20
20
20
20
1E
FE
00
00
0C
0C
04
04
FC
FC
ENDCHAR
STARTCHAR FB6A
ENCODING 64362
SWIDTH 768 0
DWIDTH 16 0
BBX 16 13 0 3
BITMAP
000C
000C
0003
000F
0008
0000
4003
8007
800D
800D
4007
7FFF
1FFF
ENDCHAR
STARTCHAR FB6B
ENCODING 64363
SWIDTH 768 0
DWIDTH 16 0
BBX 16 13 0 3
BITMAP
000C
000C
0003
000F
0008
0000
4003
8007
800D
800D
4007
7FFF
1FFF
ENDCHAR
STARTCHAR FB6C
ENCODING 64364
SWIDTH 288 0
DWIDTH 6 0
BBX 7 14 -1 3
BITMAP
20
60
08
68
20
00
18
3C
24
3C
1E
02
FE
FE
ENDCHAR
STARTCHAR FB6D
ENCODING 64365
SWIDTH 240 0
DWIDTH 5 0
BBX 6 14 -1 3
BITMAP
20
20
0C
68
20
00
00
1C
1C
24
3C
1C
FC
FC
ENDCHAR
STARTCHAR FB6E
ENCODING 64366
SWIDTH 768 0
DWIDTH 16 0
BBX 16 14 0 3
BITMAP
0002
0003
0018
0003
000F
000C
0000
4003
8007
800D
800D
4007
7FFF
1FFF
ENDCHAR
STARTCHAR FB6F
ENCODING 64367
SWIDTH 768 0
DWIDTH 16 0
BBX 16 14 0 3
BITMAP
0002
0003
0018
0003
000F
000C
0000
4003
8007
800D
800D
4007
7FFF
1FFF
ENDCHAR
STARTCHAR FB70
ENCODING 64368
SWIDTH 288 0
DWIDTH 6 0
BBX 7 14 -1 4
BITMAP
18
68
08
78
60
00
18
3C
24
3C
1E
02
FE
FE
ENDCHAR
STARTCHAR FB71
ENCODING 64369
SWIDTH 240 0
DWIDTH 5 0
BBX 6 14 -1 4
BITMAP
18
68
08
78
60
00
00
1C
1C
24
3C
1C
FC
FC
ENDCHAR
STARTCHAR FB72
ENCODING 64370
SWIDTH 576 0
DWIDTH 12 0
BBX 9 13 1 -4
BITMAP
7F80
FF80
1C00
2000
4000
8C00
8C00
8000
8600
8400
C000
7800
3F80
ENDCHAR
STARTCHAR FB73
ENCODING 64371
SWIDTH 528 0
DWIDTH 11 0
BBX 10 13 1 -4
BITMAP
7F80
FF80
0E00
3200
43C0
81C0
9800
8000
8C00
8800
C000
7800
3F80
ENDCHAR
STARTCHAR FB74
ENCODING 64372
SWIDTH 528 0
DWIDTH 11 0
BBX 12 12 -1 -3
BITMAP
0C00
1F00
0380
00C0
FFF0
FFF0
0000
0000
0600
0200
0200
0600
ENDCHAR
STARTCHAR FB75
ENCODING 64373
SWIDTH 528 0
DWIDTH 11 0
BBX 12 12 -1 -3
BITMAP
0C00
1F00
0380
00C0
FFF0
FFF0
0000
0000
0600
0200
0200
0600
ENDCHAR
STARTCHAR FB76
ENCODING 64374
SWIDTH 576 0
DWIDTH 12 0
BBX 9 13 1 -4
BITMAP
7F80
FF80
1C00
2000
4000
8000
8300
9A00
8800
8000
C000
7800
3F80
ENDCHAR
STARTCHAR FB77
ENCODING 64375
SWIDTH 528 0
DWIDTH 11 0
BBX 10 13 1 -4
BITMAP
7F80
FF80
0E00
3200
43C0
81C0
8C00
BC00
B000
8000
C000
7800
3F80
ENDCHAR
STARTCHAR FB78
ENCODING 64376
SWIDTH 528 0
DWIDTH 11 0
BBX 12 11 -1 -2
BITMAP
0C00
1F00
0380
00C0
FFF0
FFF0
0000
0000
0380
0D00
0400
ENDCHAR
STARTCHAR FB79
ENCODING 64377
SWIDTH 528 0
DWIDTH 11 0
BBX 12 11 -1 -2
BITMAP
0C00
1F00
0380
00C0
FFF0
FFF0
0000
0000
0380
0D00
0400
ENDCHAR
STARTCHAR FB7A
ENCODING 64378
SWIDTH 576 0
DWIDTH 12 0
BBX 9 13 1 -4
BITMAP
7F80
FF80
1C00
2000
4000
8300
9A00
8800
8600
8200
C000
7800
3F80
ENDCHAR
STARTCHAR FB7B
ENCODING 64379
SWIDTH 528 0
DWIDTH 11 0
BBX 10 13 1 -4
BITMAP
7F80
FF80
0E00
3200
43C0
81C0
8C00
B400
A800
8C00
C000
7800
3F80
ENDCHAR
STARTCHAR FB7C
ENCODING 64380
SWIDTH 528 0
DWIDTH 11 0
BBX 12 12 -1 -4
BITMAP
0C00
1F00
0380
00C0
FFF0
FFF0
0000
0000
0300
0D00
0A00
0300
ENDCHAR
STARTCHAR FB7D
ENCODING 64381
SWIDTH 528 0
DWIDTH 11 0
BBX 12 12 -1 -4
BITMAP
0C00
1F00
0380
00C0
FFF0
FFF0
0000
0000
0300
0D00
0A00
0300
ENDCHAR
STARTCHAR FB7E
ENCODING 64382
SWIDTH 576 0
DWIDTH 12 0
BBX 9 13 1 -4
BITMAP
7F80
FF80
1C00
2000
4200
8B00
9800
8300
8D00
8C00
C000
7800
3F80
ENDCHAR
STARTCHAR FB7F
ENCODING 64383
SWIDTH 528 0
DWIDTH 11 0
BBX 10 13 1 -4
BITMAP
7F80
FF80
0E00
3200
43C0
8DC0
B400
9400
9600
B000
C000
7800
3F80
ENDCHAR
STARTCHAR FB80
ENCODING 64384
SWIDTH 528 0
DWIDTH 11 0
BBX 12 13 -1 -4
BITMAP
0C00
1F00
0380
00C0
FFF0
FFF0
0000
0000
0B00
0D00
0500
0580
0C00
ENDCHAR
STARTCHAR FB81
ENCODING 64385
SWIDTH 528 0
DWIDTH 11 0
BBX 12 13 -1 -4
BITMAP
0C00
1F00
0380
00C0
FFF0
FFF0
0000
0000
0B00
0D00
0500
0580
0C00
ENDCHAR
STARTCHAR FB82
ENCODING 64386
SWIDTH 336 0
DWIDTH 7 0
BBX 6 12 1 -1
BITMAP
10
18
0C
04
04
04
FC
FC
00
00
18
68
ENDCHAR
STARTCHAR FB83
ENCODING 64387
SWIDTH 336 0
DWIDTH 7 0
BBX 6 12 1 -1
BITMAP
10
18
0C
04
04
04
FC
FC
00
00
18
68
ENDCHAR
STARTCHAR FB84
ENCODING 64388
SWIDTH 336 0
DWIDTH 7 0
BBX 6 12 1 4
BITMAP
38
C0
40
00
10
18
0C
04
04
04
FC
FC
ENDCHAR
STARTCHAR FB85
ENCODING 64389
SWIDTH 336 0
DWIDTH 7 0
BBX 6 12 1 4
BITMAP
38
C0
40
00
10
18
0C
04
04
04
FC
FC
ENDCHAR
STARTCHAR FB86
ENCODING 64390
SWIDTH 336 0
DWIDTH 7 0
BBX 6 15 1 3
BITMAP
40
60
10
58
C0
00
00
10
18
0C
04
04
04
FC
FC
ENDCHAR
STARTCHAR FB87
ENCODING 64391
SWIDTH 336 0
DWIDTH 7 0
BBX 6 15 1 3
BITMAP
40
60
10
58
C0
00
00
10
18
0C
04
04
04
FC
FC
ENDCHAR
STARTCHAR FB88
ENCODING 64392
SWIDTH 336 0
DWIDTH 7 0
BBX 6 15 1 4
BITMAP
40
40
40
58
24
FC
00
10
18
0C
04
04
04
FC
FC
ENDCHAR
STARTCHAR FB89
ENCODING 64393
SWIDTH 336 0
DWIDTH 7 0
BBX 6 15 1 4
BITMAP
40
40
40
58
24
FC
00
10
18
0C
04
04
04
FC
FC
ENDCHAR
STARTCHAR FB8A
ENCODING 64394
SWIDTH 480 0
DWIDTH 10 0
BBX 9 17 1 -2
BITMAP
0400
0600
0180
0F00
0400
0000
0100
0180
0080
0080
0080
0080
0080
0180
0300
8E00
7C00
ENDCHAR
STARTCHAR FB8B
ENCODING 64395
SWIDTH 480 0
DWIDTH 10 0
BBX 9 17 1 -2
BITMAP
0400
0600
0180
0F00
0400
0000
0100
0180
0080
0080
0080
0080
0080
0180
0300
8E00
7C00
ENDCHAR
STARTCHAR FB8C
ENCODING 64396
SWIDTH 480 0
DWIDTH 10 0
BBX 9 19 1 -2
BITMAP
0800
0800
0800
0800
0780
1F80
0000
0000
0100
0180
0080
0080
0080
0080
0080
0180
0300
8E00
7C00
ENDCHAR
STARTCHAR FB8D
ENCODING 64397
SWIDTH 480 0
DWIDTH 10 0
BBX 9 19 1 -2
BITMAP
0800
0800
0800
0800
0780
1F80
0000
0000
0100
0180
0080
0080
0080
0080
0080
0180
0300
8E00
7C00
ENDCHAR
STARTCHAR FB8E
ENCODING 64398
SWIDTH 816 0
DWIDTH 17 0
BBX 17 12 0 3
BITMAP
000300
000F00
003800
002000
003000
003800
401C00
800600
800300
800180
FFFF80
7FFF80
ENDCHAR
STARTCHAR FB8F
ENCODING 64399
SWIDTH 912 0
DWIDTH 19 0
BBX 19 12 0 3
BITMAP
000300
000F00
003800
002000
003000
003800
401C00
800600
800700
800D80
FFF8E0
7FF060
ENDCHAR
STARTCHAR FB90
ENCODING 64400
SWIDTH 384 0
DWIDTH 8 0
BBX 9 12 -1 3
BITMAP
0300
0F00
1800
2000
3000
3800
1C00
0600
0100
0180
FF80
FF80
ENDCHAR
STARTCHAR FB91
ENCODING 64401
SWIDTH 528 0
DWIDTH 11 0
BBX 12 12 -1 3
BITMAP
0300
0F00
1800
2000
3000
3800
1C00
0600
0700
0580
F8F0
F070
ENDCHAR
STARTCHAR FB92
ENCODING 64402
SWIDTH 816 0
DWIDTH 17 0
BBX 17 15 0 3
BITMAP
000100
000700
001C00
007300
004F00
003800
002000
003000
003800
401C00
800600
800300
800180
FFFF80
7FFF80
ENDCHAR
STARTCHAR FB93
ENCODING 64403
SWIDTH 912 0
DWIDTH 19 0
BBX 19 15 0 3
BITMAP
000100
000700
001C00
007300
004F00
003800
002000
003000
003800
401C00
800600
800700
800D80
FFF8E0
7FF060
ENDCHAR
STARTCHAR FB94
ENCODING 64404
SWIDTH 384 0
DWIDTH 8 0
BBX 9 15 -1 3
BITMAP
0100
0700
1C00
2300
0F00
1800
2000
3000
3800
1C00
0600
0100
0180
FF80
FF80
ENDCHAR
STARTCHAR FB95
ENCODING 64405
SWIDTH 528 0
DWIDTH 11 0
BBX 12 15 -1 3
BITMAP
0100
0700
1C00
2300
0F00
1800
2000
3000
3800
1C00
0600
0700
0580
F8F0
F070
ENDCHAR
STARTCHAR FB96
ENCODING 64406
SWIDTH 816 0
DWIDTH 17 0
BBX 17 21 0 -3
BITMAP
000100
000700
001C00
007300
004F00
003800
002000
003000
003800
401C00
800600
800300
800180
FFFF80
7FFF80
000000
000000
00C000
004000
004000
00C000
ENDCHAR
STARTCHAR FB97
ENCODING 64407
SWIDTH 912 0
DWIDTH 19 0
BBX 19 21 0 -3
BITMAP
000100
000700
001C00
007300
004F00
003800
002000
003000
003800
401C00
800600
800700
800D80
FFF8E0
7FF060
000000
000000
030000
010000
010000
030000
ENDCHAR
STARTCHAR FB98
ENCODING 64408
SWIDTH 384 0
DWIDTH 8 0
BBX 9 21 -1 -3
BITMAP
0100
0700
1C00
2300
0F00
1800
2000
3000
3800
1C00
0600
0100
0180
FF80
FF80
0000
0000
0C00
0400
0400
0C00
ENDCHAR
STARTCHAR FB99
ENCODING 64409
SWIDTH 528 0
DWIDTH 11 0
BBX 12 21 -1 -3
BITMAP
0100
0700
1C00
2300
0F00
1800
2000
3000
3800
1C00
0600
0700
0580
F8F0
F070
0000
0000
3000
1000
1000
1800
ENDCHAR
STARTCHAR FB9A
ENCODING 64410
SWIDTH 816 0
DWIDTH 17 0
BBX 17 15 0 4
BITMAP
000900
002700
001C00
007300
004F00
003800
002000
003000
003800
401C00
800600
800300
800180
FFFF80
7FFF80
ENDCHAR
STARTCHAR FB9B
ENCODING 64411
SWIDTH 912 0
DWIDTH 19 0
BBX 19 15 0 4
BITMAP
000900
002700
001C00
007300
004F00
003800
002000
003000
003800
401C00
800600
800700
800D80
FFF8E0
7FF060
ENDCHAR
STARTCHAR FB9C
ENCODING 64412
SWIDTH 384 0
DWIDTH 8 0
BBX 9 15 -1 4
BITMAP
0900
2700
1C00
2300
0F00
1800
2000
3000
3800
1C00
0600
0100
0180
FF80
FF80
ENDCHAR
STARTCHAR FB9D
ENCODING 64413
SWIDTH 528 0
DWIDTH 11 0
BBX 12 15 -1 4
BITMAP
0900
2700
1C00
2300
0F00
1800
2000
3000
3800
1C00
0600
0700
0580
F8F0
F070
ENDCHAR
STARTCHAR FB9E
ENCODING 64414
SWIDTH 528 0
DWIDTH 11 0
BBX 10 10 1 -1
BITMAP
0040
40C0
8040
8040
8040
8040
80C0
C380
FF00
0800
ENDCHAR
STARTCHAR FB9F
ENCODING 64415
SWIDTH 528 0
DWIDTH 11 0
BBX 10 10 1 -1
BITMAP
0040
40C0
8040
8040
8040
8040
80C0
C380
FF00
0800
ENDCHAR
STARTCHAR FBA0
ENCODING 64416
SWIDTH 528 0
DWIDTH 11 0
BBX 10 18 1 -2
BITMAP
1800
1000
0800
0A00
0D00
3F00
0000
0000
0040
40C0
8040
8040
8040
8040
80C0
C380
FF00
0800
ENDCHAR
STARTCHAR FBA1
ENCODING 64417
SWIDTH 528 0
DWIDTH 11 0
BBX 10 18 1 -2
BITMAP
1800
1000
0800
0A00
0D00
3F00
0000
0000
0040
40C0
8040
8040
8040
8040
80C0
C380
FF00
0800
ENDCHAR
STARTCHAR FBA2
ENCODING 64418
SWIDTH 240 0
DWIDTH 5 0
BBX 7 14 -1 3
BITMAP
20
20
20
20
1E
FE
00
00
0C
0C
04
04
FC
FC
ENDCHAR
STARTCHAR FBA3
ENCODING 64419
SWIDTH 240 0
DWIDTH 5 0
BBX 7 14 -1 3
BITMAP
20
20
20
20
1E
FE
00
00
0C
0C
04
04
FC
FC
ENDCHAR
STARTCHAR FBA4
ENCODING 64420
SWIDTH 288 0
DWIDTH 6 0
BBX 4 10 1 3
BITMAP
60
40
20
00
40
70
B0
90
90
F0
ENDCHAR
STARTCHAR FBA5
ENCODING 64421
SWIDTH 384 0
DWIDTH 8 0
BBX 8 12 0 3
BITMAP
30
20
10
08
08
18
38
48
FC
64
07
07
ENDCHAR
STARTCHAR FBA6
ENCODING 64422
SWIDTH 288 0
DWIDTH 6 0
BBX 4 6 1 3
BITMAP
40
70
B0
90
90
F0
ENDCHAR
STARTCHAR FBA7
ENCODING 64423
SWIDTH 384 0
DWIDTH 8 0
BBX 8 5 0 1
BITMAP
18
3C
27
43
80
ENDCHAR
STARTCHAR FBA8
ENCODING 64424
SWIDTH 240 0
DWIDTH 5 0
BBX 6 12 -1 -2
BITMAP
0C
0C
04
04
FC
FC
00
00
10
20
18
10
ENDCHAR
STARTCHAR FBA9
ENCODING 64425
SWIDTH 336 0
DWIDTH 7 0
BBX 8 12 -1 -4
BITMAP
08
08
10
F3
F7
0C
08
08
00
08
08
0C
ENDCHAR
STARTCHAR FBAA
ENCODING 64426
SWIDTH 432 0
DWIDTH 9 0
BBX 9 8 -1 4
BITMAP
0800
0C00
0E00
1700
2500
3D80
FE80
E380
ENDCHAR
STARTCHAR FBAB
ENCODING 64427
SWIDTH 384 0
DWIDTH 8 0
BBX 8 9 0 3
BITMAP
08
08
18
38
48
FC
64
07
07
ENDCHAR
STARTCHAR FBAC
ENCODING 64428
SWIDTH 432 0
DWIDTH 9 0
BBX 9 8 -1 4
BITMAP
0800
0C00
0E00
1700
2500
3D80
FE80
E380
ENDCHAR
STARTCHAR FBAD
ENCODING 64429
SWIDTH 384 0
DWIDTH 8 0
BBX 9 10 -1 -1
BITMAP
0600
0E00
1200
1400
FF80
FF80
2400
1200
1A00
0E00
ENDCHAR
STARTCHAR FBAE
ENCODING 64430
SWIDTH 816 0
DWIDTH 17 0
BBX 15 9 1 -1
BITMAP
0100
0300
0500
1800
7000
C000
8000
FFFE
7FF8
ENDCHAR
STARTCHAR FBAF
ENCODING 64431
SWIDTH 816 0
DWIDTH 17 0
BBX 16 9 1 -4
BITMAP
003F
03FF
0F80
3C00
7000
4000
8000
8000
FFFE
ENDCHAR
STARTCHAR FBB0
ENCODING 64432
SWIDTH 816 0
DWIDTH 17 0
BBX 15 11 1 -1
BITMAP
0800
1800
1100
0300
0500
1800
7000
C000
8000
FFFE
7FF8
ENDCHAR
STARTCHAR FBB1
ENCODING 64433
SWIDTH 816 0
DWIDTH 17 0
BBX 16 13 1 -4
BITMAP
0030
0018
0020
0000
003F
03FF
0F80
3C00
7000
4000
8000
8000
FFFE
ENDCHAR
STARTCHAR FBD3
ENCODING 64467
SWIDTH 624 0
DWIDTH 13 0
BBX 13 15 0 3
BITMAP
0600
0400
03A0
0D30
0430
0120
0230
0410
0390
4090
9F10
8010
C010
7FF8
3FF8
ENDCHAR
STARTCHAR FBD4
ENCODING 64468
SWIDTH 624 0
DWIDTH 13 0
BBX 13 15 0 3
BITMAP
0600
0400
03A0
0D30
0430
0120
0230
0410
0390
4090
9F10
8010
C010
7FF8
3FF8
ENDCHAR
STARTCHAR FBD5
ENCODING 64469
SWIDTH 384 0
DWIDTH 8 0
BBX 9 15 -1 3
BITMAP
1000
1C00
3000
0300
0F00
1800
2000
3000
3800
1C00
0600
0100
0180
FF80
FF80
ENDCHAR
STARTCHAR FBD6
ENCODING 64470
SWIDTH 384 0
DWIDTH 8 0
BBX 9 15 -1 3
BITMAP
1000
1C00
3000
0300
0F00
1800
2000
3000
3800
1C00
0600
0100
0180
FF80
FF80
ENDCHAR
STARTCHAR FBD7
ENCODING 64471
SWIDTH 432 0
DWIDTH 9 0
BBX 8 16 1 -2
BITMAP
02
06
02
05
08
00
06
07
09
07
07
01
03
06
9C
70
ENDCHAR
STARTCHAR FBD8
ENCODING 64472
SWIDTH 432 0
DWIDTH 9 0
BBX 8 16 1 -2
BITMAP
02
06
02
05
08
00
06
07
09
07
07
01
03
06
9C
70
ENDCHAR
STARTCHAR FBD9
ENCODING 64473
SWIDTH 432 0
DWIDTH 9 0
BBX 8 14 1 -2
BITMAP
05
02
00
00
06
07
09
07
07
01
03
06
9C
70
ENDCHAR
STARTCHAR FBDA
ENCODING 64474
SWIDTH 432 0
DWIDTH 9 0
BBX 8 14 1 -2
BITMAP
05
02
00
00
06
07
09
07
07
01
03
06
9C
70
ENDCHAR
STARTCHAR FBDB
ENCODING 64475
SWIDTH 432 0
DWIDTH 9 0
BBX 8 17 1 -2
BITMAP
04
04
04
04
04
00
00
06
07
09
07
07
01
03
06
9C
70
ENDCHAR
STARTCHAR FBDC
ENCODING 64476
SWIDTH 432 0
DWIDTH 9 0
BBX 8 17 1 -2
BITMAP
04
04
04
04
04
00
00
06
07
09
07
07
01
03
06
9C
70
ENDCHAR
STARTCHAR FBDD
ENCODING 64477
SWIDTH 432 0
DWIDTH 9 0
BBX 10 15 1 -2
BITMAP
0800
1980
09C0
1000
2000
0600
0700
0900
0700
0700
0100
0300
0600
9C00
7000
ENDCHAR
STARTCHAR FBDE
ENCODING 64478
SWIDTH 432 0
DWIDTH 9 0
BBX 8 17 1 -2
BITMAP
08
0C
02
0B
18
00
00
06
07
09
07
07
01
03
06
9C
70
ENDCHAR
STARTCHAR FBDF
ENCODING 64479
SWIDTH 432 0
DWIDTH 9 0
BBX 8 17 1 -2
BITMAP
08
0C
02
0B
18
00
00
06
07
09
07
07
01
03
06
9C
70
ENDCHAR
STARTCHAR FBE0
ENCODING 64480
SWIDTH 432 0
DWIDTH 9 0
BBX 8 10 1 -2
BITMAP
06
07
09
07
07
19
07
06
9C
70
ENDCHAR
STARTCHAR FBE1
ENCODING 64481
SWIDTH 432 0
DWIDTH 9 0
BBX 8 10 1 -2
BITMAP
06
07
09
07
07
19
07
06
9C
70
ENDCHAR
STARTCHAR FBE2
ENCODING 64482
SWIDTH 432 0
DWIDTH 9 0
BBX 8 14 1 -2
BITMAP
02
05
00
00
06
07
09
07
07
01
03
06
9C
70
ENDCHAR
STARTCHAR FBE3
ENCODING 64483
SWIDTH 432 0
DWIDTH 9 0
BBX 8 14 1 -2
BITMAP
02
05
00
00
06
07
09
07
07
01
03
06
9C
70
ENDCHAR
STARTCHAR FBE4
ENCODING 64484
SWIDTH 624 0
DWIDTH 13 0
BBX 12 14 1 -4
BITMAP
0060
00F0
0110
8200
8200
83E0
81E0
8060
81C0
FF80
7E00
0000
0800
0800
ENDCHAR
STARTCHAR FBE5
ENCODING 64485
SWIDTH 576 0
DWIDTH 12 0
BBX 12 8 0 -4
BITMAP
4070
41F0
8200
83E0
C020
70E0
3F80
0400
ENDCHAR
STARTCHAR FBE6
ENCODING 64486
SWIDTH 240 0
DWIDTH 5 0
BBX 6 12 -1 -2
BITMAP
0C
0C
04
04
FC
FC
00
00
30
10
10
18
ENDCHAR
STARTCHAR FBE7
ENCODING 64487
SWIDTH 240 0
DWIDTH 5 0
BBX 6 12 -1 -2
BITMAP
0C
0C
04
04
FC
FC
00
00
30
10
10
18
ENDCHAR
STARTCHAR FBFC
ENCODING 64508
SWIDTH 624 0
DWIDTH 13 0
BBX 12 11 1 -1
BITMAP
0060
00F0
0110
8200
8200
83E0
81E0
8060
81C0
FF80
7E00
ENDCHAR
STARTCHAR FBFD
ENCODING 64509
SWIDTH 576 0
DWIDTH 12 0
BBX 12 7 0 -2
BITMAP
4070
41F0
8200
83E0
C020
70E0
3F80
ENDCHAR
STARTCHAR FBFE
ENCODING 64510
SWIDTH 240 0
DWIDTH 5 0
BBX 6 10 -1 0
BITMAP
0C
0C
04
04
FC
FC
00
08
2C
60
ENDCHAR
STARTCHAR FBFF
ENCODING 64511
SWIDTH 240 0
DWIDTH 5 0
BBX 6 10 -1 0
BITMAP
0C
0C
04
04
FC
FC
00
08
2C
60
ENDCHAR
STARTCHAR FC5E
ENCODING 64606
SWIDTH 240 0
DWIDTH 5 0
BBX 4 6 1 13
BITMAP
70
A0
D0
00
60
E0
ENDCHAR
STARTCHAR FC5F
ENCODING 64607
SWIDTH 192 0
DWIDTH 4 0
BBX 3 5 1 14
BITMAP
60
E0
20
C0
E0
ENDCHAR
STARTCHAR FC60
ENCODING 64608
SWIDTH 192 0
DWIDTH 4 0
BBX 3 4 1 14
BITMAP
60
80
60
E0
ENDCHAR
STARTCHAR FC61
ENCODING 64609
SWIDTH 192 0
DWIDTH 4 0
BBX 3 6 1 13
BITMAP
20
60
20
C0
60
E0
ENDCHAR
STARTCHAR FC62
ENCODING 64610
SWIDTH 192 0
DWIDTH 4 0
BBX 3 4 1 14
BITMAP
60
E0
00
E0
ENDCHAR
STARTCHAR FD3E
ENCODING 64830
SWIDTH 336 0
DWIDTH 7 0
BBX 4 20 1 -4
BITMAP
10
10
30
20
60
60
60
E0
C0
C0
C0
C0
E0
60
60
60
20
30
10
10
ENDCHAR
STARTCHAR FD3F
ENCODING 64831
SWIDTH 336 0
DWIDTH 7 0
BBX 4 20 1 -4
BITMAP
80
40
40
60
20
30
30
30
30
30
30
30
30
30
30
20
60
40
40
80
ENDCHAR
STARTCHAR FDF2
ENCODING 65010
SWIDTH 624 0
DWIDTH 13 0
BBX 13 13 0 3
BITMAP
0200
0100
0040
0180
0300
0000
0090
0890
0890
1890
6C98
6FF8
F730
ENDCHAR
STARTCHAR FE80
ENCODING 65152
SWIDTH 432 0
DWIDTH 9 0
BBX 6 6 1 1
BITMAP
38
48
40
EC
78
60
ENDCHAR
STARTCHAR FE81
ENCODING 65153
SWIDTH 192 0
DWIDTH 4 0
BBX 3 14 1 3
BITMAP
E0
00
40
C0
40
40
40
40
40
40
40
40
40
40
ENDCHAR
STARTCHAR FE82
ENCODING 65154
SWIDTH 240 0
DWIDTH 5 0
BBX 5 14 0 3
BITMAP
E0
00
40
C0
40
40
40
40
40
40
40
20
38
38
ENDCHAR
STARTCHAR FE83
ENCODING 65155
SWIDTH 192 0
DWIDTH 4 0
BBX 3 15 1 3
BITMAP
40
E0
80
40
C0
40
40
40
40
40
40
40
40
40
40
ENDCHAR
STARTCHAR FE84
ENCODING 65156
SWIDTH 240 0
DWIDTH 5 0
BBX 5 15 0 3
BITMAP
40
60
80
40
C0
40
40
40
40
40
40
40
20
38
38
ENDCHAR
STARTCHAR FE85
ENCODING 65157
SWIDTH 432 0
DWIDTH 9 0
BBX 8 14 1 -2
BITMAP
08
10
18
00
06
07
09
07
07
01
03
06
9C
70
ENDCHAR
STARTCHAR FE86
ENCODING 65158
SWIDTH 432 0
DWIDTH 9 0
BBX 8 14 1 -2
BITMAP
08
10
18
00
06
07
09
07
07
01
03
06
9C
70
ENDCHAR
STARTCHAR FE87
ENCODING 65159
SWIDTH 192 0
DWIDTH 4 0
BBX 2 17 1 -2
BITMAP
40
C0
40
40
40
40
40
40
40
40
40
40
00
00
C0
80
C0
ENDCHAR
STARTCHAR FE88
ENCODING 65160
SWIDTH 240 0
DWIDTH 5 0
BBX 5 17 0 -2
BITMAP
40
C0
40
40
40
40
40
40
40
20
38
38
00
00
60
40
40
ENDCHAR
STARTCHAR FE89
ENCODING 65161
SWIDTH 624 0
DWIDTH 13 0
BBX 12 13 1 -1
BITMAP
4000
8000
4060
00F0
0110
8200
8200
83E0
81E0
8060
81C0
FF80
7E00
ENDCHAR
STARTCHAR FE8A
ENCODING 65162
SWIDTH 576 0
DWIDTH 12 0
BBX 12 12 0 -2
BITMAP
2000
5000
6000
0000
0000
4070
41F0
8200
83E0
C020
70E0
3F80
ENDCHAR
STARTCHAR FE8B
ENCODING 65163
SWIDTH 240 0
DWIDTH 5 0
BBX 6 11 -1 3
BITMAP
18
20
10
00
00
0C
0C
04
04
FC
FC
ENDCHAR
STARTCHAR FE8C
ENCODING 65164
SWIDTH 240 0
DWIDTH 5 0
BBX 6 11 -1 3
BITMAP
18
20
10
00
00
0C
0C
04
04
FC
FC
ENDCHAR
STARTCHAR FE8D
ENCODING 65165
SWIDTH 192 0
DWIDTH 4 0
BBX 2 12 1 3
BITMAP
40
C0
40
40
40
40
40
40
40
40
40
40
ENDCHAR
STARTCHAR FE8E
ENCODING 65166
SWIDTH 240 0
DWIDTH 5 0
BBX 5 12 0 3
BITMAP
40
C0
40
40
40
40
40
40
40
20
38
38
ENDCHAR
STARTCHAR FE8F
ENCODING 65167
SWIDTH 720 0
DWIDTH 15 0
BBX 14 11 1 -1
BITMAP
0008
8008
800C
8004
8004
FFFC
7FFC
0000
0000
0300
0200
ENDCHAR
STARTCHAR FE90
ENCODING 65168
SWIDTH 720 0
DWIDTH 15 0
BBX 14 11 1 -1
BITMAP
0008
8008
800C
8004
8004
FFFC
7FFC
0000
0000
0300
0200
ENDCHAR
STARTCHAR FE91
ENCODING 65169
SWIDTH 240 0
DWIDTH 5 0
BBX 6 10 -1 0
BITMAP
0C
0C
04
04
FC
FC
00
00
18
18
ENDCHAR
STARTCHAR FE92
ENCODING 65170
SWIDTH 240 0
DWIDTH 5 0
BBX 6 10 -1 0
BITMAP
0C
0C
04
04
FC
FC
00
00
18
18
ENDCHAR
STARTCHAR FE93
ENCODING 65171
SWIDTH 288 0
DWIDTH 6 0
BBX 6 10 0 3
BITMAP
18
D0
40
00
20
38
5C
44
48
78
ENDCHAR
STARTCHAR FE94
ENCODING 65172
SWIDTH 384 0
DWIDTH 8 0
BBX 8 13 0 3
BITMAP
18
58
60
00
08
08
18
38
48
FC
64
07
07
ENDCHAR
STARTCHAR FE95
ENCODING 65173
SWIDTH 720 0
DWIDTH 15 0
BBX 14 10 1 3
BITMAP
0180
0580
0400
0008
8008
800C
8004
8004
FFFC
7FFC
ENDCHAR
STARTCHAR FE96
ENCODING 65174
SWIDTH 720 0
DWIDTH 15 0
BBX 14 10 1 3
BITMAP
0180
0580
0400
0008
8008
800C
8004
8004
FFFC
7FFC
ENDCHAR
STARTCHAR FE97
ENCODING 65175
SWIDTH 240 0
DWIDTH 5 0
BBX 6 11 -1 3
BITMAP
08
2C
60
00
00
0C
0C
04
04
FC
FC
ENDCHAR
STARTCHAR FE98
ENCODING 65176
SWIDTH 240 0
DWIDTH 5 0
BBX 6 11 -1 3
BITMAP
08
2C
60
00
00
0C
0C
04
04
FC
FC
ENDCHAR
STARTCHAR FE99
ENCODING 65177
SWIDTH 720 0
DWIDTH 15 0
BBX 14 12 1 3
BITMAP
0400
0600
0180
0580
0400
0008
8008
800C
8004
8004
FFFC
7FFC
ENDCHAR
STARTCHAR FE9A
ENCODING 65178
SWIDTH 720 0
DWIDTH 15 0
BBX 14 12 1 3
BITMAP
0400
0600
0180
0580
0400
0008
8008
800C
8004
8004
FFFC
7FFC
ENDCHAR
STARTCHAR FE9B
ENCODING 65179
SWIDTH 240 0
DWIDTH 5 0
BBX 6 13 -1 3
BITMAP
20
30
08
2C
60
00
00
0C
0C
04
04
FC
FC
ENDCHAR
STARTCHAR FE9C
ENCODING 65180
SWIDTH 240 0
DWIDTH 5 0
BBX 6 13 -1 3
BITMAP
20
30
08
2C
60
00
00
0C
0C
04
04
FC
FC
ENDCHAR
STARTCHAR FE9D
ENCODING 65181
SWIDTH 576 0
DWIDTH 12 0
BBX 9 13 1 -4
BITMAP
7F80
FF80
1C00
2000
4000
8000
8600
8400
8000
8000
C000
7800
3F80
ENDCHAR
STARTCHAR FE9E
ENCODING 65182
SWIDTH 528 0
DWIDTH 11 0
BBX 10 13 1 -4
BITMAP
7F80
FF80
0E00
3200
43C0
81C0
8800
8C00
8000
8000
C000
7800
3F80
ENDCHAR
STARTCHAR FE9F
ENCODING 65183
SWIDTH 528 0
DWIDTH 11 0
BBX 12 9 -1 -1
BITMAP
0C00
1F00
0380
00C0
FFF0
FFF0
0000
0000
0600
ENDCHAR
STARTCHAR FEA0
ENCODING 65184
SWIDTH 528 0
DWIDTH 11 0
BBX 12 9 -1 -1
BITMAP
0C00
1F00
0380
00C0
FFF0
FFF0
0000
0000
0600
ENDCHAR
STARTCHAR FEA1
ENCODING 65185
SWIDTH 576 0
DWIDTH 12 0
BBX 9 13 1 -4
BITMAP
7F80
FF80
1C00
2000
4000
8000
8000
8000
8000
8000
C000
7800
3F80
ENDCHAR
STARTCHAR FEA2
ENCODING 65186
SWIDTH 528 0
DWIDTH 11 0
BBX 10 13 1 -4
BITMAP
7F80
FF80
0E00
3200
43C0
81C0
8000
8000
8000
8000
C000
7800
3F80
ENDCHAR
STARTCHAR FEA3
ENCODING 65187
SWIDTH 528 0
DWIDTH 11 0
BBX 12 6 -1 3
BITMAP
0C00
1F00
0380
00C0
FFF0
FFF0
ENDCHAR
STARTCHAR FEA4
ENCODING 65188
SWIDTH 528 0
DWIDTH 11 0
BBX 12 6 -1 3
BITMAP
0C00
1F00
0380
00C0
FFF0
FFF0
ENDCHAR
STARTCHAR FEA5
ENCODING 65189
SWIDTH 576 0
DWIDTH 12 0
BBX 9 17 1 -4
BITMAP
0C00
0800
0000
0000
7F80
FF80
1C00
2000
4000
8000
8000
8000
8000
8000
C000
7800
3F80
ENDCHAR
STARTCHAR FEA6
ENCODING 65190
SWIDTH 528 0
DWIDTH 11 0
BBX 10 17 1 -4
BITMAP
0C00
0800
0000
0000
7F80
FF80
0E00
3200
43C0
81C0
8000
8000
8000
8000
C000
7800
3F80
ENDCHAR
STARTCHAR FEA7
ENCODING 65191
SWIDTH 528 0
DWIDTH 11 0
BBX 12 10 -1 3
BITMAP
0600
0600
0000
0000
0C00
1F00
0380
00C0
FFF0
FFF0
ENDCHAR
STARTCHAR FEA8
ENCODING 65192
SWIDTH 528 0
DWIDTH 11 0
BBX 12 10 -1 3
BITMAP
0600
0600
0000
0000
0C00
1F00
0380
00C0
FFF0
FFF0
ENDCHAR
STARTCHAR FEA9
ENCODING 65193
SWIDTH 336 0
DWIDTH 7 0
BBX 6 8 1 4
BITMAP
10
18
0C
04
04
04
FC
FC
ENDCHAR
STARTCHAR FEAA
ENCODING 65194
SWIDTH 336 0
DWIDTH 7 0
BBX 6 8 1 4
BITMAP
10
18
0C
04
04
04
FC
FC
ENDCHAR
STARTCHAR FEAB
ENCODING 65195
SWIDTH 336 0
DWIDTH 7 0
BBX 6 13 1 3
BITMAP
40
60
20
00
00
10
18
0C
04
04
04
FC
FC
ENDCHAR
STARTCHAR FEAC
ENCODING 65196
SWIDTH 336 0
DWIDTH 7 0
BBX 6 13 1 3
BITMAP
40
60
20
00
00
10
18
0C
04
04
04
FC
FC
ENDCHAR
STARTCHAR FEAD
ENCODING 65197
SWIDTH 480 0
DWIDTH 10 0
BBX 9 11 1 -2
BITMAP
0100
0180
0080
0080
0080
0080
0080
0180
0300
8E00
7C00
ENDCHAR
STARTCHAR FEAE
ENCODING 65198
SWIDTH 480 0
DWIDTH 10 0
BBX 9 11 1 -2
BITMAP
0100
0180
0080
0080
0080
0080
0080
0180
0300
8E00
7C00
ENDCHAR
STARTCHAR FEAF
ENCODING 65199
SWIDTH 480 0
DWIDTH 10 0
BBX 9 15 1 -2
BITMAP
0300
0200
0000
0000
0100
0180
0080
0080
0080
0080
0080
0180
0300
8E00
7C00
ENDCHAR
STARTCHAR FEB0
ENCODING 65200
SWIDTH 480 0
DWIDTH 10 0
BBX 9 15 1 -2
BITMAP
0300
0200
0000
0000
0100
0180
0080
0080
0080
0080
0080
0180
0300
8E00
7C00
ENDCHAR
STARTCHAR FEB1
ENCODING 65201
SWIDTH 816 0
DWIDTH 17 0
BBX 16 9 1 -1
BITMAP
00C1
40C9
8045
807F
807B
8040
80C0
C380
FF00
ENDCHAR
STARTCHAR FEB2
ENCODING 65202
SWIDTH 816 0
DWIDTH 17 0
BBX 16 9 1 -1
BITMAP
00C1
40C9
8045
807F
807B
8040
80C0
C380
FF00
ENDCHAR
STARTCHAR FEB3
ENCODING 65203
SWIDTH 528 0
DWIDTH 11 0
BBX 12 5 -1 3
BITMAP
0010
0890
0850
FFF0
F7B0
ENDCHAR
STARTCHAR FEB4
ENCODING 65204
SWIDTH 528 0
DWIDTH 11 0
BBX 12 5 -1 3
BITMAP
0010
0890
0850
FFF0
F7B0
ENDCHAR
STARTCHAR FEB5
ENCODING 65205
SWIDTH 816 0
DWIDTH 17 0
BBX 16 16 1 -2
BITMAP
0010
0018
0006
001E
0018
0000
0000
00C1
40C9
8045
807F
807B
8040
80C0
C380
FF00
ENDCHAR
STARTCHAR FEB6
ENCODING 65206
SWIDTH 816 0
DWIDTH 17 0
BBX 16 16 1 -2
BITMAP
0010
0018
0006
001E
0018
0000
0000
00C1
40C9
8045
807F
807B
8040
80C0
C380
FF00
ENDCHAR
STARTCHAR FEB7
ENCODING 65207
SWIDTH 528 0
DWIDTH 11 0
BBX 12 12 -1 3
BITMAP
0100
0180
0060
0160
0100
0000
0000
0010
0890
0850
FFF0
F7B0
ENDCHAR
STARTCHAR FEB8
ENCODING 65208
SWIDTH 528 0
DWIDTH 11 0
BBX 12 12 -1 3
BITMAP
0100
0180
0060
0160
0100
0000
0000
0010
0890
0850
FFF0
F7B0
ENDCHAR
STARTCHAR FEB9
ENCODING 65209
SWIDTH 1104 0
DWIDTH 23 0
BBX 22 9 1 -1
BITMAP
00C0F8
40C19C
80460C
807FFC
807FFC
804000
808000
C38000
FF0000
ENDCHAR
STARTCHAR FEBA
ENCODING 65210
SWIDTH 1104 0
DWIDTH 23 0
BBX 22 9 1 -1
BITMAP
00C0F8
40C19C
80460C
807FFC
807FFC
804000
808000
C38000
FF0000
ENDCHAR
STARTCHAR FEBB
ENCODING 65211
SWIDTH 864 0
DWIDTH 18 0
BBX 19 5 -1 3
BITMAP
0007C0
081CE0
083060
FFFFE0
F7FFE0
ENDCHAR
STARTCHAR FEBC
ENCODING 65212
SWIDTH 864 0
DWIDTH 18 0
BBX 19 5 -1 3
BITMAP
0007C0
081CE0
083060
FFFFE0
F7FFE0
ENDCHAR
STARTCHAR FEBD
ENCODING 65213
SWIDTH 1104 0
DWIDTH 23 0
BBX 22 13 1 -2
BITMAP
000600
000600
000000
000000
00C0F8
40C19C
80460C
807FFC
807FFC
804000
808000
C38000
FF0000
ENDCHAR
STARTCHAR FEBE
ENCODING 65214
SWIDTH 1104 0
DWIDTH 23 0
BBX 22 13 1 -2
BITMAP
000600
000600
000000
000000
00C0F8
40C19C
80460C
807FFC
807FFC
804000
808000
C38000
FF0000
ENDCHAR
STARTCHAR FEBF
ENCODING 65215
SWIDTH 864 0
DWIDTH 18 0
BBX 19 9 -1 3
BITMAP
003000
003000
000000
000000
0007C0
081CE0
083060
FFFFE0
F7FFE0
ENDCHAR
STARTCHAR FEC0
ENCODING 65216
SWIDTH 864 0
DWIDTH 18 0
BBX 19 9 -1 3
BITMAP
003000
003000
000000
000000
0007C0
081CE0
083060
FFFFE0
F7FFE0
ENDCHAR
STARTCHAR FEC1
ENCODING 65217
SWIDTH 576 0
DWIDTH 12 0
BBX 13 13 -1 4
BITMAP
0C00
1C00
0C00
0800
0400
0400
0400
0400
05F8
07B8
0C18
FFF8
FFF8
ENDCHAR
STARTCHAR FEC2
ENCODING 65218
SWIDTH 576 0
DWIDTH 12 0
BBX 13 13 -1 4
BITMAP
0C00
1C00
0C00
0800
0400
0400
0400
0400
05F8
07B8
0C18
FFF8
FFF8
ENDCHAR
STARTCHAR FEC3
ENCODING 65219
SWIDTH 576 0
DWIDTH 12 0
BBX 13 13 -1 4
BITMAP
0C00
1C00
0C00
0800
0400
0400
0400
0400
05F8
07B8
0C18
FFF8
FFF8
ENDCHAR
STARTCHAR FEC4
ENCODING 65220
SWIDTH 576 0
DWIDTH 12 0
BBX 13 13 -1 4
BITMAP
0C00
1C00
0C00
0800
0400
0400
0400
0400
05F8
07B8
0C18
FFF8
FFF8
ENDCHAR
STARTCHAR FEC5
ENCODING 65221
SWIDTH 576 0
DWIDTH 12 0
BBX 13 13 -1 4
BITMAP
0C00
1C00
0C00
08C0
0440
0400
0400
0400
05F8
07B8
0C18
FFF8
FFF8
ENDCHAR
STARTCHAR FEC6
ENCODING 65222
SWIDTH 576 0
DWIDTH 12 0
BBX 13 13 -1 4
BITMAP
0C00
1C00
0C00
08C0
0440
0400
0400
0400
05F8
07B8
0C18
FFF8
FFF8
ENDCHAR
STARTCHAR FEC7
ENCODING 65223
SWIDTH 576 0
DWIDTH 12 0
BBX 13 13 -1 4
BITMAP
0C00
1C00
0C00
08C0
0440
0400
0400
0400
05F8
07B8
0C18
FFF8
FFF8
ENDCHAR
STARTCHAR FEC8
ENCODING 65224
SWIDTH 576 0
DWIDTH 12 0
BBX 13 13 -1 4
BITMAP
0C00
1C00
0C00
08C0
0440
0400
0400
0400
05F8
07B8
0C18
FFF8
FFF8
ENDCHAR
STARTCHAR FEC9
ENCODING 65225
SWIDTH 528 0
DWIDTH 11 0
BBX 10 15 0 -4
BITMAP
3C00
6000
8000
4180
7780
3C00
3000
6000
4000
8000
8000
C000
6000
7C00
3FC0
ENDCHAR
STARTCHAR FECA
ENCODING 65226
SWIDTH 432 0
DWIDTH 9 0
BBX 9 13 1 -4
BITMAP
3800
3C00
1C00
3C00
6F00
C700
8000
8000
8000
8000
C000
F800
3F80
ENDCHAR
STARTCHAR FECB
ENCODING 65227
SWIDTH 528 0
DWIDTH 11 0
BBX 11 7 -1 3
BITMAP
0E00
1F00
2000
2000
30E0
FFC0
FE00
ENDCHAR
STARTCHAR FECC
ENCODING 65228
SWIDTH 384 0
DWIDTH 8 0
BBX 9 6 -1 3
BITMAP
1C00
3F00
2E00
0E00
FF80
F380
ENDCHAR
STARTCHAR FECD
ENCODING 65229
SWIDTH 528 0
DWIDTH 11 0
BBX 10 19 0 -4
BITMAP
1800
1800
0000
0000
3C00
6000
8000
4180
7780
3C00
3000
6000
4000
8000
8000
C000
6000
7C00
3FC0
ENDCHAR
STARTCHAR FECE
ENCODING 65230
SWIDTH 432 0
DWIDTH 9 0
BBX 9 17 1 -4
BITMAP
1800
1800
0000
0000
3800
3C00
1C00
3C00
6F00
C700
8000
8000
8000
8000
C000
F800
3F80
ENDCHAR
STARTCHAR FECF
ENCODING 65231
SWIDTH 528 0
DWIDTH 11 0
BBX 11 10 -1 3
BITMAP
0C00
0400
0000
0E00
1F00
2000
2000
30E0
FFC0
FE00
ENDCHAR
STARTCHAR FED0
ENCODING 65232
SWIDTH 384 0
DWIDTH 8 0
BBX 9 10 -1 3
BITMAP
0C00
0800
0000
0000
1C00
3F00
2E00
0E00
FF80
F380
ENDCHAR
STARTCHAR FED1
ENCODING 65233
SWIDTH 768 0
DWIDTH 16 0
BBX 16 11 0 3
BITMAP
000C
000C
0000
0000
4003
8007
800D
800D
4007
7FFF
1FFF
ENDCHAR
STARTCHAR FED2
ENCODING 65234
SWIDTH 768 0
DWIDTH 16 0
BBX 16 11 0 3
BITMAP
000C
000C
0000
0000
4003
8007
800D
800D
4007
7FFF
1FFF
ENDCHAR
STARTCHAR FED3
ENCODING 65235
SWIDTH 288 0
DWIDTH 6 0
BBX 7 12 -1 3
BITMAP
18
18
00
00
18
3C
24
3C
1E
02
FE
FE
ENDCHAR
STARTCHAR FED4
ENCODING 65236
SWIDTH 240 0
DWIDTH 5 0
BBX 6 11 -1 4
BITMAP
18
08
00
00
1C
1C
24
3C
1C
FC
FC
ENDCHAR
STARTCHAR FED5
ENCODING 65237
SWIDTH 576 0
DWIDTH 12 0
BBX 11 16 1 -2
BITMAP
00C0
0680
0200
0000
0000
01C0
01E0
0260
81E0
81E0
8020
8020
8060
C1E0
7F80
1C00
ENDCHAR
STARTCHAR FED6
ENCODING 65238
SWIDTH 576 0
DWIDTH 12 0
BBX 11 16 1 -2
BITMAP
00C0
0680
0200
0000
0000
01C0
01E0
0260
81E0
81E0
8020
8020
8060
C1E0
7F80
1C00
ENDCHAR
STARTCHAR FED7
ENCODING 65239
SWIDTH 288 0
DWIDTH 6 0
BBX 7 12 -1 3
BITMAP
0C
34
20
00
18
3C
24
3C
1E
02
FE
FE
ENDCHAR
STARTCHAR FED8
ENCODING 65240
SWIDTH 240 0
DWIDTH 5 0
BBX 6 12 -1 3
BITMAP
0C
3C
00
00
00
1C
1C
24
3C
1C
FC
FC
ENDCHAR
STARTCHAR FED9
ENCODING 65241
SWIDTH 624 0
DWIDTH 13 0
BBX 13 13 0 3
BITMAP
0020
0030
0030
0120
0230
0410
0390
4090
9F10
8010
C010
7FF8
3FF8
ENDCHAR
STARTCHAR FEDA
ENCODING 65242
SWIDTH 624 0
DWIDTH 13 0
BBX 13 13 0 3
BITMAP
0020
0030
0030
0120
0230
0410
0390
4090
9F10
8010
C010
7FF8
3FF8
ENDCHAR
STARTCHAR FEDB
ENCODING 65243
SWIDTH 384 0
DWIDTH 8 0
BBX 9 12 -1 3
BITMAP
0300
0F00
1800
2000
3000
3800
1C00
0600
0100
0180
FF80
FF80
ENDCHAR
STARTCHAR FEDC
ENCODING 65244
SWIDTH 384 0
DWIDTH 8 0
BBX 9 12 -1 3
BITMAP
0300
0F00
1800
2000
3000
3800
1C00
0600
0100
0180
FF80
FF80
ENDCHAR
STARTCHAR FEDD
ENCODING 65245
SWIDTH 528 0
DWIDTH 11 0
BBX 10 16 1 0
BITMAP
0100
0180
0180
0080
0080
0080
0080
0080
0080
8080
8080
8040
8040
8180
FF80
3E00
ENDCHAR
STARTCHAR FEDE
ENCODING 65246
SWIDTH 528 0
DWIDTH 11 0
BBX 10 16 1 0
BITMAP
0100
0180
0180
0080
0080
0080
0080
0080
0080
8080
8080
8040
8040
8180
FF80
3E00
ENDCHAR
STARTCHAR FEDF
ENCODING 65247
SWIDTH 192 0
DWIDTH 4 0
BBX 5 13 -1 3
BITMAP
20
18
18
10
10
10
08
08
08
08
08
F8
F8
ENDCHAR
STARTCHAR FEE0
ENCODING 65248
SWIDTH 192 0
DWIDTH 4 0
BBX 5 13 -1 3
BITMAP
20
18
18
10
10
10
08
08
08
08
08
F8
F8
ENDCHAR
STARTCHAR FEE1
ENCODING 65249
SWIDTH 336 0
DWIDTH 7 0
BBX 7 10 0 -4
BITMAP
3C
2E
1E
7E
40
80
80
40
40
40
ENDCHAR
STARTCHAR FEE2
ENCODING 65250
SWIDTH 336 0
DWIDTH 7 0
BBX 7 10 0 -4
BITMAP
3C
2E
1E
7E
40
80
80
40
40
40
ENDCHAR
STARTCHAR FEE3
ENCODING 65251
SWIDTH 384 0
DWIDTH 8 0
BBX 9 6 -1 3
BITMAP
0100
0300
0580
0C80
FF80
F380
ENDCHAR
STARTCHAR FEE4
ENCODING 65252
SWIDTH 384 0
DWIDTH 8 0
BBX 9 6 -1 3
BITMAP
0100
0300
0580
0C80
FF80
F380
ENDCHAR
STARTCHAR FEE5
ENCODING 65253
SWIDTH 528 0
DWIDTH 11 0
BBX 10 14 1 -2
BITMAP
0800
0C00
0000
0000
0040
40C0
8040
8040
8040
8040
80C0
C380
FF00
0800
ENDCHAR
STARTCHAR FEE6
ENCODING 65254
SWIDTH 528 0
DWIDTH 11 0
BBX 10 14 1 -2
BITMAP
0800
0C00
0000
0000
0040
40C0
8040
8040
8040
8040
80C0
C380
FF00
0800
ENDCHAR
STARTCHAR FEE7
ENCODING 65255
SWIDTH 240 0
DWIDTH 5 0
BBX 6 10 -1 3
BITMAP
18
18
00
00
0C
0C
04
04
FC
FC
ENDCHAR
STARTCHAR FEE8
ENCODING 65256
SWIDTH 240 0
DWIDTH 5 0
BBX 6 10 -1 3
BITMAP
18
18
00
00
0C
0C
04
04
FC
FC
ENDCHAR
STARTCHAR FEE9
ENCODING 65257
SWIDTH 288 0
DWIDTH 6 0
BBX 4 6 1 3
BITMAP
40
70
B0
90
90
F0
ENDCHAR
STARTCHAR FEEA
ENCODING 65258
SWIDTH 384 0
DWIDTH 8 0
BBX 8 9 0 3
BITMAP
08
08
18
38
48
FC
64
07
07
ENDCHAR
STARTCHAR FEEB
ENCODING 65259
SWIDTH 432 0
DWIDTH 9 0
BBX 9 8 -1 4
BITMAP
0800
0C00
0E00
1700
2500
3D80
FE80
E380
ENDCHAR
STARTCHAR FEEC
ENCODING 65260
SWIDTH 384 0
DWIDTH 8 0
BBX 9 10 -1 -1
BITMAP
0600
0E00
1200
1400
FF80
FF80
2400
1200
1A00
0E00
ENDCHAR
STARTCHAR FEED
ENCODING 65261
SWIDTH 432 0
DWIDTH 9 0
BBX 8 10 1 -2
BITMAP
06
07
09
07
07
01
03
06
9C
70
ENDCHAR
STARTCHAR FEEE
ENCODING 65262
SWIDTH 432 0
DWIDTH 9 0
BBX 8 10 1 -2
BITMAP
06
07
09
07
07
01
03
06
9C
70
ENDCHAR
STARTCHAR FEEF
ENCODING 65263
SWIDTH 624 0
DWIDTH 13 0
BBX 12 11 1 -1
BITMAP
0060
00F0
0110
8200
8200
83E0
81E0
8060
81C0
FF80
7E00
ENDCHAR
STARTCHAR FEF0
ENCODING 65264
SWIDTH 576 0
DWIDTH 12 0
BBX 12 7 0 -2
BITMAP
4070
41F0
8200
83E0
C020
70E0
3F80
ENDCHAR
STARTCHAR FEF1
ENCODING 65265
SWIDTH 624 0
DWIDTH 13 0
BBX 12 14 1 -4
BITMAP
0060
00F0
0110
8200
8200
83E0
81E0
8060
81C0
FF80
7E00
0200
0E00
1800
ENDCHAR
STARTCHAR FEF2
ENCODING 65266
SWIDTH 576 0
DWIDTH 12 0
BBX 12 9 0 -4
BITMAP
4070
41F0
8200
83E0
C020
70E0
3F80
0000
0F00
ENDCHAR
STARTCHAR FEF3
ENCODING 65267
SWIDTH 240 0
DWIDTH 5 0
BBX 6 10 -1 0
BITMAP
0C
0C
04
04
FC
FC
00
08
2C
60
ENDCHAR
STARTCHAR FEF4
ENCODING 65268
SWIDTH 240 0
DWIDTH 5 0
BBX 6 10 -1 0
BITMAP
0C
0C
04
04
FC
FC
00
08
2C
60
ENDCHAR
STARTCHAR FEF5
ENCODING 65269
SWIDTH 528 0
DWIDTH 11 0
BBX 9 15 1 2
BITMAP
E000
0000
8100
C180
E080
7100
1100
0900
0500
0500
0200
0200
0500
1900
1F00
ENDCHAR
STARTCHAR FEF6
ENCODING 65270
SWIDTH 624 0
DWIDTH 13 0
BBX 12 15 1 2
BITMAP
E000
0000
C080
F080
7880
2C80
0680
0280
02C0
00C0
0140
0340
0E70
3C30
C000
ENDCHAR
STARTCHAR FEF7
ENCODING 65271
SWIDTH 528 0
DWIDTH 11 0
BBX 10 16 0 2
BITMAP
6000
6000
8000
4080
60C0
7040
3880
0880
0480
0280
0280
0100
0100
0280
0C80
0F80
ENDCHAR
STARTCHAR FEF8
ENCODING 65272
SWIDTH 624 0
DWIDTH 13 0
BBX 12 16 1 2
BITMAP
C000
C000
0000
C080
F080
7880
2C80
0680
0280
02C0
00C0
0140
0340
0E70
3C30
C000
ENDCHAR
STARTCHAR FEF9
ENCODING 65273
SWIDTH 528 0
DWIDTH 11 0
BBX 9 17 1 -2
BITMAP
8100
C180
E080
7100
1100
0900
0500
0500
0200
0200
0500
1900
1F00
0000
0800
3000
1800
ENDCHAR
STARTCHAR FEFA
ENCODING 65274
SWIDTH 624 0
DWIDTH 13 0
BBX 12 17 1 -2
BITMAP
C080
F080
7880
2C80
0680
0280
02C0
00C0
0140
0340
0E70
3C30
C000
0000
2000
4000
2000
ENDCHAR
STARTCHAR FEFB
ENCODING 65275
SWIDTH 528 0
DWIDTH 11 0
BBX 9 13 1 2
BITMAP
8100
C180
E080
7100
1100
0900
0500
0500
0200
0200
0500
1900
1F00
ENDCHAR
STARTCHAR FEFC
ENCODING 65276
SWIDTH 624 0
DWIDTH 13 0
BBX 12 13 1 2
BITMAP
C080
F080
7880
2C80
0680
0280
02C0
00C0
0140
0340
0E70
3C30
C000
ENDCHAR
STARTCHAR FFFC
ENCODING 65532
SWIDTH 1008 0
DWIDTH 21 0
BBX 21 15 0 0
BITMAP
E38E38
800008
800008
000000
1F7C40
114440
B1C448
A1FC48
B1C448
114440
1F7DC0
000000
800008
800008
E38E38
ENDCHAR
ENDFONT
